<?xml version="1.0" encoding="UTF-8" standalone="no"?>
<!DOCTYPE svg PUBLIC "-//W3C//DTD SVG 1.1//EN" "http://www.w3.org/Graphics/SVG/1.1/DTD/svg11.dtd">
<svg width="100%" height="100%" viewBox="0 0 1000 1000" version="1.1" xmlns="http://www.w3.org/2000/svg" xmlns:xlink="http://www.w3.org/1999/xlink" xml:space="preserve" xmlns:serif="http://www.serif.com/" style="fill-rule:evenodd;clip-rule:evenodd;stroke-linejoin:round;stroke-miterlimit:2;">
    <g id="Object">
        <g>
            <path d="M464.882,638.312L464.89,638.312C465.442,638.127 465.997,637.94 466.551,637.755L466.456,634.803C465.867,634.425 465.281,634.048 464.692,633.67C465.189,632.513 465.695,631.354 466.202,630.197C466.239,630.211 466.276,630.224 466.313,630.237C464.856,576.535 466.482,522.426 466.559,468.684C466.382,468.372 466.276,468.09 466.263,467.845C452.522,454.468 269.421,267.633 265.463,271.029C263.622,272.573 307.423,318.758 310.681,322.201C318.021,315.75 328.135,338.981 327.242,340.418C338.928,353.454 351.55,365.555 363.924,377.928C367.729,377.97 369.062,379.28 367.927,381.857C398.683,411.589 429.635,441.144 460.552,470.712C461.582,555.17 463.602,639.724 462.665,724.172C463.975,724.351 465.284,724.536 466.591,724.731C466.81,696.523 467.634,668.288 466.628,640.085C466.046,639.495 465.465,638.903 464.882,638.312Z" style="fill:rgb(26,26,26);fill-rule:nonzero;"/>
            <path d="M324.422,905.79C322.135,907.382 322.294,907.958 324.895,907.514C324.509,907.002 324.351,906.426 324.422,905.79Z" style="fill:rgb(26,26,26);fill-rule:nonzero;"/>
            <path d="M462.873,728.922C462.791,728.927 462.712,728.935 462.63,728.94C462.707,763.578 473.813,807.352 445.984,833.957C446.137,833.991 446.29,834.023 446.446,834.055C447.317,835.291 448.193,836.527 449.068,837.762C478.502,810.489 466.796,765.028 466.577,729.083C465.544,728.806 464.171,728.84 462.873,728.922Z" style="fill:rgb(26,26,26);fill-rule:nonzero;"/>
            <path d="M422.549,854.858C421.646,855.518 420.543,856.099 419.588,856.748C420.543,856.101 421.646,855.519 422.549,854.858Z" style="fill:rgb(26,26,26);fill-rule:nonzero;"/>
            <path d="M445.984,833.958C439.914,840.461 431.063,845.89 423.749,850.799C425.856,851.084 427.96,851.369 430.068,851.654C429.421,852.359 428.771,853.067 428.122,853.769C426.709,853.7 425.299,853.627 423.887,853.555C423.563,854.038 423.093,854.462 422.55,854.858C421.647,855.518 420.544,856.1 419.589,856.748C420.544,856.1 421.647,855.518 422.55,854.858C423.092,854.462 423.563,854.038 423.887,853.555C423.177,853.281 422.467,853.006 421.754,852.734C421.458,852.734 421.162,852.737 420.869,852.739C418.2,854.569 415.498,856.348 412.765,858.078C412.591,859.029 411.97,859.927 410.813,860.756C410.407,863.333 407.679,865.517 405.646,862.512C380.836,877.475 354.088,888.687 328.987,903.03C329.563,903.996 329.679,905.042 329.336,906.167C333.175,904.828 336.956,903.25 340.693,901.66C338.929,900.776 337.791,899.785 338,898.555C337.794,899.786 338.929,900.776 340.693,901.66C345.514,899.606 350.294,897.459 355.076,895.32C355.076,895.32 355.071,895.288 355.071,895.27C355.599,893.828 356.552,893.147 357.925,893.224C357.975,893.171 358.028,893.126 358.092,893.097C358.092,893.131 358.099,893.166 358.113,893.2C389.786,881.677 424.167,860.817 449.07,837.763C448.196,836.528 447.32,835.292 446.445,834.056C446.29,834.024 446.137,833.992 445.984,833.958Z" style="fill:rgb(26,26,26);fill-rule:nonzero;"/>
            <path d="M564.774,868.91C561.663,868.923 558.592,869.261 555.561,869.931C561.212,873.29 627.248,909.43 631.393,903.185C631.852,902.5 568.93,871.212 564.774,868.91Z" style="fill:rgb(26,26,26);fill-rule:nonzero;"/>
            <path d="M665.841,264.842C660.249,262.79 654.44,261.348 648.6,260.015C654.292,261.596 660.07,263.326 665.841,264.842Z" style="fill:rgb(26,26,26);fill-rule:nonzero;"/>
            <path d="M552.501,335.581L552.502,335.582C552.797,335.241 553.119,334.937 553.456,334.653C553.119,334.937 552.796,335.241 552.501,335.581Z" style="fill:rgb(26,26,26);fill-rule:nonzero;"/>
            <path d="M650.196,252.963C636.505,249.38 622.793,247.017 608.693,245.593C610.977,242.649 613.245,239.729 615.286,236.61C615.722,236.808 616.165,236.993 616.609,237.18C618.867,235.266 629.521,237.693 623.461,239.604C645.366,245.87 670.665,237.243 681.275,217.004C685.912,208.161 688.391,198.896 685.761,189.089C684.956,186.079 672.218,163.915 668.107,170.294C669.039,168.844 681.658,195.352 681.632,198.782C681.521,213.072 671.379,228.382 658.242,233.876C646.5,238.785 628.991,237.906 617.935,232.567C619.567,230.08 624.446,224.083 623.633,220.761C626.001,221.588 636.233,231.466 635.935,227.55C635.553,222.528 628.893,219.531 625.154,217.743C623.34,216.874 609.747,211.549 607.902,215.998C605.755,221.176 621.023,220.247 622.023,220.062C618.242,221.34 615.2,226.357 612.766,229.557C595.117,216.597 591.618,195.846 605.914,178.981C611.099,172.863 618.369,168.086 626.108,165.99C630.28,164.86 663.37,166.468 663.249,166.78C666.082,159.585 631.883,157.338 627.629,158.117C618.004,159.878 608.895,165.553 602.391,172.753C584.853,192.172 588.537,218.809 609.874,233.624C607.247,237.458 604.363,241.128 601.588,244.854C542.6,238.33 483.912,237.762 424.758,241.416C423.221,244.59 420.726,244.471 409.979,243.938C410.298,243.291 410.7,242.705 411.165,242.166C395.473,242.56 379.711,244.556 364.191,246.845C364.271,246.914 364.35,246.98 364.429,247.046L364.429,247.048C363.771,248.323 361.437,248.297 360.555,247.357C342.669,249.717 324.587,252.028 306.861,255.4C301.783,256.406 263.639,263.622 264.502,268.518C264.687,269.579 334.169,256.443 340.45,255.442C341.313,250.539 350.241,250.792 353.172,253.211C394.9,245.374 442.016,240.967 484.697,243.582C487.024,242.679 489.305,242.835 491.544,244.044C526.709,246.315 561.641,246.09 596.622,251.189C596.593,251.223 596.562,251.263 596.532,251.297C562.097,249.185 528.299,247.149 493.751,247.228C493.801,250.022 489.025,252.131 486.931,252.929C521.662,255.413 556.381,256.079 591.135,259.034C586.416,267.238 581.336,275.218 576.242,283.189C514.529,292.832 448.768,290.957 386.775,285.663C386.587,289.563 368.664,288.478 369.952,283.868C343.254,280.557 317.185,277.063 290.661,272.482C292.652,276.559 278.367,276.472 280.471,271.019C281.828,267.502 289.755,270.824 290.595,272.353C301.102,270.668 311.542,268.627 322.043,266.898C316.844,265.686 333.97,261.506 335.7,264.973C383.96,259.853 433.012,249.439 481.882,252.579C481.457,252.117 481.179,251.478 480.617,250.773C481.042,249.556 481.367,248.18 481.901,246.796C439.537,245.043 394.636,251.097 352.768,257.223C352.457,257.6 352.132,257.981 351.865,258.361C354.162,264.608 344.202,261.289 341.862,258.501C322.167,259.988 295.398,261.221 277.889,270.93C276.5,270.864 276.051,271.228 276.547,272.023C276.101,273.111 276.846,273.61 278.778,273.525C299.564,284.483 328.039,288.385 351.323,290.371C347.233,286.342 363.329,287.82 356.311,290.725C428.618,295.177 499.927,296.766 572.081,288.75C562.855,299.544 555.969,311.873 547.147,322.96C530.298,323.393 360.764,338.951 363.903,350.566C365.279,355.699 427.19,339.463 430.699,338.739C427.126,337.606 433.297,335.058 433.089,338.245C470.003,330.63 506.531,328.259 544.068,326.587C543.978,326.69 543.885,326.798 543.796,326.901C510.346,331.609 480.509,348.785 448.194,357.816C431.259,362.548 411.624,365.458 394.07,362.075C388.05,360.916 365.376,354.378 363.889,351.896C361.035,353.731 389.943,385.493 394.225,389.639C414.161,408.935 440.264,439.18 468.393,444.759C508.151,452.646 544.964,397.423 569.278,372.693C568.663,372.73 568.048,372.767 567.43,372.806C566.63,373.173 565.827,373.543 565.027,373.907C562.675,376.738 561.454,377.725 558.059,375.341C554.991,374.976 553.282,373.392 552.931,370.583C551.42,369.862 551.032,369.03 552.099,368.061C551.711,367.3 551.323,366.54 550.935,365.78C557.632,363.971 566.554,367.671 573.574,368.154C573.548,368.217 573.53,368.283 573.506,368.347C582.33,359.235 590.616,349.642 598.023,339.41C598.023,339.41 597.794,339.22 597.358,338.895C598.826,328.97 564.943,324.94 559.903,324.626C558.094,323.48 556.079,323.013 553.859,323.227C562.306,311.622 570.17,299.595 578.529,287.913C607.828,283.694 648.6,285.793 675.055,271.099C676.446,271.165 676.895,270.801 676.399,270.006C676.842,268.92 676.101,268.419 674.167,268.506C671.467,267.077 668.682,265.885 665.842,264.843C660.071,263.327 654.293,261.597 648.601,260.016C643.339,258.815 638.055,257.695 632.891,256.276C637.997,257.18 643.262,258.533 648.601,260.016C654.441,261.349 660.25,262.791 665.842,264.843C674.695,267.169 683.528,268.981 691.993,268.928C655.224,290.857 622.96,329.35 593.218,360.048C557.923,396.479 521.403,431.724 485.463,467.516C485.658,467.735 485.854,467.952 486.049,468.168C488.549,468.097 491.052,468.025 493.555,467.954C501.999,459.695 510.127,451.745 517.932,444.111C517.412,443.58 517.14,443.004 517.248,442.363C517.14,443.005 517.412,443.58 517.932,444.111C549.855,412.882 581.705,381.674 613.084,349.899C625.072,337.761 637.614,326.206 649.567,314.034C658.985,304.446 668.325,294.793 677.847,285.31C681.348,281.822 690.914,269.19 693.191,268.298C688.047,259.271 659.334,255.355 650.196,252.963ZM604.729,229.106C604.106,228.338 603.483,227.569 602.859,226.801C604.298,226.814 605.679,227.208 607,227.978C606.243,228.354 605.487,228.731 604.729,229.106ZM407.639,339.972C407.349,340.254 407.169,340.257 407.111,339.943C407.285,339.954 407.462,339.961 407.639,339.972C407.679,339.935 407.71,339.908 407.753,339.861L407.853,339.982C407.781,339.98 407.71,339.975 407.639,339.972ZM407.871,339.901C410.667,340.838 411.737,341.208 411.951,341.974C411.737,341.208 410.668,340.838 407.871,339.901ZM424.908,391.561C423.595,391.947 422.69,391.574 422.196,390.442C422.978,388.796 432.364,380.738 434.414,386.383C431.778,388.023 429.621,390.402 424.908,391.561ZM482.573,366.007C482.66,365.943 485.623,365.909 481.791,366.891C482.04,366.593 482.225,366.266 482.573,366.007ZM477.337,359.863C477.018,359.715 476.537,359.578 476.292,359.422C476.537,359.578 477.018,359.712 477.337,359.863ZM470.445,351.091C472.013,351.546 473.587,352 475.158,352.451C473.587,351.999 472.016,351.545 470.442,351.094L470.445,351.091ZM461.383,358.244C461.668,357.721 462.349,357.262 462.854,356.773C468.547,355.109 470.918,358.294 473.503,362.595C471.914,362.474 459.971,360.829 461.383,358.244ZM474.277,440.323C471.658,440.857 469.379,440.265 467.444,438.549C467.398,437.152 468.044,436.369 469.379,436.196C466.381,436.363 463.526,435.714 460.814,434.23C461.783,431.386 463.729,429.844 466.649,429.599C471.32,430.988 474.974,432.736 474.402,435.944C476.456,436.132 477.996,436.818 478.445,438.204C478.2,439.584 476.529,440.21 474.277,440.323ZM487.928,403.766C485.868,403.338 483.809,402.908 481.747,402.48C483.809,402.908 485.869,403.338 487.931,403.766C488.91,405.152 489.89,406.536 490.87,407.919C489.89,406.536 488.91,405.152 487.928,403.766ZM495.775,344.44C491.194,349.04 495.95,335.663 496.541,343.081C496.367,343.418 496.237,343.975 495.775,344.44ZM526.102,351.532C525.577,351.724 524.982,351.859 524.417,352.02L524.328,351.973C525.317,350.896 526.774,351.284 526.102,351.532ZM526.418,341.944C526.252,341.912 526.188,341.717 526.08,341.593C526.527,341.289 526.867,341.355 527.1,341.791C526.87,341.847 526.592,341.976 526.418,341.944ZM528.708,347.41C530.488,347.431 532.299,347.418 532.941,348.606C531.034,348.715 529.262,348.685 528.708,347.41ZM532.694,404.743C532.072,403.974 531.448,403.206 530.825,402.438C532.264,402.451 533.645,402.842 534.965,403.615C534.208,403.99 533.452,404.365 532.694,404.743ZM541.812,365.154C541.725,365.334 541.545,365.5 541.411,365.672C537.395,365.027 537.395,365.027 537.67,362.736C542.979,362.374 543.114,362.453 541.812,365.154ZM547.233,343.434C546.211,343.896 544.939,344.197 544.094,344.461C545.129,344.546 537.162,344.54 538.263,342.721C540.26,339.418 549.364,342.473 547.233,343.434ZM549.673,387.873C548.918,387.82 548.78,387.569 549.264,387.118C550.359,386.877 550.494,387.128 549.673,387.873ZM584.419,346.563C584.652,346.547 584.923,346.692 585.177,346.767C584.982,346.883 584.789,346.996 584.607,347.105C584.303,347.015 584.052,346.941 583.799,346.867C584.004,346.758 584.192,346.579 584.419,346.563ZM575.682,331.177C581.621,333.017 569.976,336.925 569.723,335.116C570.797,332.589 572.785,331.277 575.682,331.177ZM560.102,348.527C559.77,348.323 559.432,348.12 559.099,347.914C560.089,347.64 562.601,347.204 560.102,348.527ZM555.189,333.516C554.559,333.822 553.985,334.207 553.456,334.653C553.119,334.937 552.797,335.241 552.502,335.582L552.738,335.766C554.795,336.305 555.854,337.218 556.163,338.412C553.876,337.96 552.083,337.324 552.738,335.766L552.501,335.584L552.502,335.583L552.501,335.582C552.796,335.242 553.119,334.938 553.456,334.654C553.984,334.207 554.557,333.822 555.189,333.516ZM586.22,286.444C585.114,287.213 583.82,287.091 582.341,286.085C581.992,285.803 585.188,283.841 586.663,285.649C586.494,285.895 586.426,286.23 586.22,286.444ZM637.398,261.745C638.707,260.945 640.007,261.035 641.295,262.009C641.3,263.446 636.769,262.912 637.398,261.745ZM662.701,269.616C635.94,273.968 609.179,277.939 582.407,282.179C585.325,277.917 588.174,273.611 590.952,269.259C589.94,268.613 589.296,267.901 589.26,267.082C589.255,266.965 589.262,266.846 589.283,266.725C589.262,266.847 589.255,266.966 589.26,267.082C589.296,267.901 589.94,268.613 590.955,269.259C593.154,266.067 595.082,262.693 597.31,259.521C599.827,259.716 602.108,259.92 604.157,260.245C623.736,263.116 643.188,266.228 662.701,269.616ZM576.313,386.368C574.673,386.672 573.028,386.595 571.375,386.141C570.485,385.352 574.15,382.753 574.237,382.672C577.332,383.511 577.366,384.85 576.313,386.368Z" style="fill:rgb(26,26,26);fill-rule:nonzero;"/>
            <path d="M469.378,436.195C469.597,436.183 469.816,436.177 470.036,436.156C469.8,436.155 469.582,436.169 469.378,436.195Z" style="fill:rgb(26,26,26);fill-rule:nonzero;"/>
            <path d="M491.418,778.896C489.525,779.002 487.774,778.965 487.222,777.697C488.973,777.721 490.75,777.713 491.418,778.845C491.835,748.092 491.534,717.275 491.534,686.513C490.222,686.515 488.909,686.595 487.602,686.753C487.676,708.238 487.251,729.708 487.362,751.196C487.473,773.009 482.62,799.385 493.844,819.22C504.921,838.791 528.31,853.153 546.691,864.604C547.105,862.666 548.587,861.663 551.137,861.591C551.29,861.483 551.414,861.403 551.555,861.306C517.393,840.705 490.84,821.64 491.418,778.896Z" style="fill:rgb(26,26,26);fill-rule:nonzero;"/>
            <path d="M491.472,533.754C491.395,514.97 491.24,496.186 491.115,477.401C490.832,477.602 490.545,477.797 490.257,477.995C488.665,477.837 487.072,477.67 485.483,477.507C485.663,474.402 485.842,471.297 486.022,468.194C485.71,468.249 485.401,468.313 485.092,468.373C485.364,493.416 485.887,518.458 486.243,543.5C487.656,543.577 487.608,545.349 486.272,545.742C486.343,551.842 486.235,557.939 486.137,564.038C486.686,564.022 487.259,564.019 487.88,564.046C487.244,564.323 486.663,564.608 486.124,564.902C485.749,588.74 485.709,612.702 486.792,636.522C487.867,637.349 487.896,637.987 486.879,638.434C487.547,653.02 487.539,667.609 487.586,682.205C488.909,682.194 490.226,682.213 491.533,682.281C491.523,633.641 491.681,584.982 491.48,536.347C487.094,535.513 490.014,533.775 491.472,533.754Z" style="fill:rgb(26,26,26);fill-rule:nonzero;"/>
            <path d="M496.306,929.055C530.893,924.265 567.918,919.79 602.609,917.123C602.421,917.434 602.253,917.754 602.091,918.076C604.087,917.714 627.508,913.78 627.104,910.572C627.281,911.98 503.675,924.973 492.136,925.617C493.843,926.652 495.535,927.687 496.306,929.055Z" style="fill:rgb(26,26,26);fill-rule:nonzero;"/>
            <path d="M484.844,925.715C445.39,925.865 405.643,923.473 366.548,918.089C362.476,917.484 326.521,909.087 325.766,912.064C322.138,926.19 478.222,929.963 489.978,929.605C486.906,929.58 485.192,928.284 484.844,925.715Z" style="fill:rgb(26,26,26);fill-rule:nonzero;"/>
            <path d="M476.479,474.531C475.217,496.907 476.289,519.446 476.228,541.845C476.619,541.929 477.01,542.016 477.397,542.101C477.463,517.928 478.396,493.759 478.67,469.585C478.036,469.688 477.397,469.775 476.753,469.857C476.643,471.415 476.55,472.97 476.479,474.531Z" style="fill:rgb(26,26,26);fill-rule:nonzero;"/>
            <path d="M478.2,461.048C477.944,460.993 477.659,462.202 477.342,464.404C477.778,464.306 478.214,464.209 478.652,464.114C478.583,462.226 478.422,461.096 478.2,461.048Z" style="fill:rgb(26,26,26);fill-rule:nonzero;"/>
            <path d="M476.127,570.415C476.122,570.951 475.779,585.08 476.851,585.083C477.875,585.083 477.727,573.359 477.727,572.269C476.949,571.679 476.36,571.066 476.127,570.415Z" style="fill:rgb(26,26,26);fill-rule:nonzero;"/>
            <path d="M476.226,543.64C476.194,552.166 476.244,560.687 476.141,569.213C476.538,568.479 477.063,567.859 477.712,567.349C477.672,559.539 477.398,551.739 477.398,543.928C477.007,543.833 476.616,543.735 476.226,543.64Z" style="fill:rgb(26,26,26);fill-rule:nonzero;"/>
            <path d="M480.611,574.705C480.568,593.991 481.041,613.341 480.479,632.614C480.923,632.675 481.334,632.757 481.709,632.867C481.725,631.903 481.744,630.937 481.762,629.973C482.292,611.664 482.137,593.318 482.348,574.998C481.768,575.08 481.186,574.985 480.611,574.705Z" style="fill:rgb(26,26,26);fill-rule:nonzero;"/>
            <path d="M481.306,572.617C481.655,572.67 482.011,572.712 482.365,572.76C482.379,571.168 482.379,569.575 482.36,567.983C481.332,569.403 481.021,570.953 481.306,572.617Z" style="fill:rgb(26,26,26);fill-rule:nonzero;"/>
            <path d="M480.762,542.806C481.417,542.933 482.085,543.035 482.753,543.138C482.785,542.01 482.798,540.788 482.809,539.83C482.912,530.678 482.37,472.46 482.141,472.479C479.418,472.601 480.894,536.807 480.762,542.806Z" style="fill:rgb(26,26,26);fill-rule:nonzero;"/>
            <path d="M480.64,546.914C480.442,553.045 480.508,559.192 480.54,565.324C481.084,565.044 481.683,564.796 482.362,564.595C482.388,558.298 482.417,552.005 482.663,545.71C482.042,545.394 481.39,545.121 480.706,544.881C480.685,545.539 480.664,546.214 480.64,546.914Z" style="fill:rgb(26,26,26);fill-rule:nonzero;"/>
            <path d="M480.379,640.281C480.371,640.67 480.366,641.057 480.361,641.445C480.256,652.649 477.639,745.306 480.92,745.673C480.767,745.654 481.361,650.249 481.567,640.159C481.171,640.2 480.775,640.239 480.379,640.281Z" style="fill:rgb(26,26,26);fill-rule:nonzero;"/>
            <path d="M476.096,639.956C475.983,639.954 475.885,639.964 475.774,639.967C475.859,654.476 475.885,669.062 476.323,683.561C476.423,683.497 476.516,683.435 476.656,683.376C476.551,683.643 476.448,683.909 476.342,684.176C476.588,692.787 474.481,802.923 477.813,803.251C475.927,803.042 477.881,655.685 477.881,640.362C477.279,640.313 476.682,640.194 476.096,639.956Z" style="fill:rgb(26,26,26);fill-rule:nonzero;"/>
            <path d="M476.558,600.426C473.017,603.919 475.705,627.763 475.731,632.289C476.441,632.352 477.162,632.4 477.889,632.436C477.894,631.391 477.886,630.348 477.87,629.302C477.849,628.214 475.856,601.126 476.558,600.426Z" style="fill:rgb(26,26,26);fill-rule:nonzero;"/>
            <path d="M473.553,482.08C471.364,482.201 472.365,534.195 472.251,537.509C472.692,538.019 473.125,538.531 473.561,539.04C473.564,537.953 473.566,536.843 473.572,535.679C473.585,532.603 475.375,481.982 473.553,482.08Z" style="fill:rgb(26,26,26);fill-rule:nonzero;"/>
            <path d="M472.098,541.829C472.054,543.088 472.014,544.292 471.982,545.365C471.338,548.687 471.549,551.903 472.616,555.013C474.068,554.873 473.561,543.194 473.561,542.024C473.057,541.963 472.568,541.9 472.098,541.829Z" style="fill:rgb(26,26,26);fill-rule:nonzero;"/>
            <path d="M472.55,565.886C471.322,565.775 471.473,626.062 471.618,631.729C472.276,631.853 472.938,631.964 473.617,632.054C473.567,629.696 473.522,627.336 473.485,624.978C473.413,619.131 474.752,566.089 472.55,565.886Z" style="fill:rgb(26,26,26);fill-rule:nonzero;"/>
            <path d="M472.143,732.683C472.23,737.716 470.139,818.271 473.099,818.612C473.381,818.644 473.292,731.981 473.257,728.3C472.882,729.759 472.51,731.222 472.143,732.683Z" style="fill:rgb(26,26,26);fill-rule:nonzero;"/>
            <path d="M471.855,641.963C471.812,641.95 471.77,641.94 471.728,641.926C471.805,651.199 471.675,660.47 471.747,669.746C472.264,669.685 472.822,669.659 473.418,669.664C473.429,659.873 473.637,650.09 473.637,640.299C472.688,640.638 472.122,641.208 471.855,641.963Z" style="fill:rgb(26,26,26);fill-rule:nonzero;"/>
            <path d="M471.76,671.125C471.755,689.223 472.298,707.299 472.085,725.4C472.64,725.519 473.017,725.659 473.252,725.835C473.445,707.109 473.394,688.391 473.418,669.665C472.821,669.66 472.264,669.686 471.747,669.747C471.75,670.204 471.76,670.679 471.76,671.125Z" style="fill:rgb(26,26,26);fill-rule:nonzero;"/>
            <path d="M468.944,477.653C469.897,478.362 470.217,485.395 470.232,494.37C470.546,484.604 470.284,478.207 468.944,477.653Z" style="fill:rgb(26,26,26);fill-rule:nonzero;"/>
            <path d="M468.071,613.869C464.174,611.002 469.218,549.98 469.218,541.103C467.958,540.557 467.359,539.706 467.988,538.275C468.299,537.565 466.815,536.522 469.253,536.324C469.265,533.711 470.26,510.791 470.233,494.371C469.1,529.55 460.517,608.279 468.071,613.869Z" style="fill:rgb(26,26,26);fill-rule:nonzero;"/>
            <path d="M468.806,477.594C468.855,477.599 468.899,477.634 468.945,477.653C468.899,477.62 468.853,477.599 468.806,477.594Z" style="fill:rgb(26,26,26);fill-rule:nonzero;"/>
            <path d="M468.304,636.936C468.436,636.701 468.568,636.466 468.668,636.226L468.67,636.226C468.567,636.16 468.467,636.097 468.366,636.031C468.344,636.323 468.325,636.625 468.304,636.936Z" style="fill:rgb(26,26,26);fill-rule:nonzero;"/>
            <path d="M468.655,734.098C468.393,732.854 468.607,731.56 468.142,730.351C468.126,736.688 466.838,825.437 469.378,825.648C469.687,825.674 469.589,740.384 469.531,734.728C469.114,734.578 468.7,734.306 468.655,734.098Z" style="fill:rgb(26,26,26);fill-rule:nonzero;"/>
            <path d="M468.829,631.085C469.167,631.18 469.513,631.267 469.859,631.352C469.845,630.94 469.833,630.557 469.811,630.216C469.537,625.196 468.967,629.936 468.829,631.085Z" style="fill:rgb(26,26,26);fill-rule:nonzero;"/>
            <path d="M469.489,670.291C469.677,670.209 469.888,670.148 470.094,670.082C470.004,660.529 470.07,650.973 469.962,641.417C469.35,641.24 468.734,641.063 468.119,640.886C467.118,668.87 468.452,696.92 468.185,724.911C468.679,724.956 469.17,725.006 469.661,725.061C469.727,721.145 469.753,717.23 469.732,713.314C469.706,698.908 470.244,684.478 470.094,670.081C469.889,670.148 469.677,670.208 469.489,670.291Z" style="fill:rgb(26,26,26);fill-rule:nonzero;"/>
            <path d="M480.844,814.133C481.607,814.18 481.53,768.651 481.657,763.46C482.132,760.413 481.877,757.466 480.886,754.62C477.551,754.979 480.783,814.128 480.844,814.133Z" style="fill:rgb(26,26,26);fill-rule:nonzero;"/>
            <path d="M294.746,283.157C289.417,287.636 331.831,323.609 335.182,327.317C335.375,327.264 335.565,327.214 335.758,327.161C335.652,327.312 335.55,327.462 335.449,327.613C336.445,328.77 358.041,350.643 359.984,348.681C359.49,349.177 294.724,283.175 294.746,283.157Z" style="fill:rgb(26,26,26);fill-rule:nonzero;"/>
            <path d="M610.143,328.319C609.208,329.162 604.233,333.521 605.437,334.923C606.609,336.288 661.682,280.999 659.72,279.159C656.53,276.152 615.65,323.524 610.143,328.319Z" style="fill:rgb(26,26,26);fill-rule:nonzero;"/>
            <path d="M407.715,875.149C409.698,875.286 411.539,874.959 413.64,874.473C419.858,870.14 425.894,865.548 432.097,861.197C431.951,860.927 431.866,860.649 431.862,860.357C431.861,860.259 431.868,860.16 431.885,860.059C431.868,860.16 431.861,860.259 431.862,860.357C431.866,860.65 431.95,860.927 432.097,861.194C433.906,859.927 457.438,842.663 456.45,841.375C453.863,837.985 407.773,875.112 407.715,875.149Z" style="fill:rgb(26,26,26);fill-rule:nonzero;"/>
            <path d="M355.065,908.705C355.043,908.656 355.046,908.601 355.041,908.548C355.036,908.601 355.042,908.653 355.065,908.705Z" style="fill:rgb(26,26,26);fill-rule:nonzero;"/>
            <path d="M611.541,906.771C611.526,906.787 611.509,906.801 611.493,906.816C611.51,906.801 611.526,906.786 611.541,906.771Z" style="fill:rgb(26,26,26);fill-rule:nonzero;"/>
            <path d="M611.708,906.508C611.674,906.61 611.614,906.694 611.541,906.771C611.614,906.693 611.675,906.609 611.708,906.508Z" style="fill:rgb(26,26,26);fill-rule:nonzero;"/>
            <path d="M514.019,849.349C506.681,856.058 571.51,893.107 577.274,895.6C560.848,892.109 544.711,890.266 527.884,889.16C525.207,886.633 495.821,841.375 496.23,841.175C489.449,844.557 521.843,886.346 524.222,888.313C524.782,888.279 525.392,888.295 526.02,888.329C525.376,889.517 523.565,889.504 521.787,889.528C521.919,889.224 522.125,888.995 522.382,888.815C513.969,888.342 505.562,888.281 497.141,888.308C496.465,885.929 487.422,839.733 487.569,839.721C480.165,840.405 493.898,885.407 494.991,888.305C488.804,888.295 482.586,888.007 476.405,888.089C475.542,882.739 475.502,876.365 475.639,870.918C475.301,870.659 475.114,870.339 474.868,870.044C474.849,870.039 474.828,870.033 474.81,870.028C474.815,870.023 474.823,870.018 474.823,870.018L474.842,870.01C474.842,870.01 474.861,870.034 474.868,870.045C475.129,870.111 475.396,870.174 475.658,870.24C475.666,869.857 477.3,834.068 476.27,833.984C469.74,833.453 473.643,882.634 474.255,888.145C472.848,888.184 471.432,888.225 470.02,888.266C470.165,888.311 470.315,888.367 470.466,888.403C471.842,890.074 471.818,891.049 470.39,891.331C469.109,891.46 468.383,888.678 469.23,888.287C463.527,888.446 457.939,889.441 452.254,889.71C454.583,883.587 474.371,835.818 470.304,834.944C467.138,834.263 452.434,884.06 449.896,889.826C437.23,890.465 424.846,891.268 412.238,892.947C422.67,883.822 434.347,876.188 443.717,865.721C442.156,865.877 440.567,865.972 438.988,866.094C438.906,866.033 438.827,865.975 438.748,865.914C428.928,875.731 419.219,884.817 408.44,893.459C398.351,894.903 388.219,895.727 378.146,897.295C387.554,890.609 397.635,884.389 407.423,878.25C406.37,878.068 405.377,877.761 404.44,877.347C395.061,883.698 385.51,889.631 376.042,895.899C376.982,896.197 377.668,896.599 377.61,897.254C377.383,899.905 371.938,899.387 370.518,898.788C368.184,899.828 365.168,900.008 362.692,900.728C362.56,900.868 362.428,901.011 362.296,901.153C363.336,902.78 363.722,906.115 360.659,904.121C360.191,904.403 354.917,907.183 355.04,908.548C355.345,905.439 401.735,897.869 403.35,897.578C401.679,898.98 388.442,905.372 389.91,907.95C391.13,910.097 407.102,897.444 407.852,896.762C421.379,894.338 434.854,893.063 448.563,892.648C447.769,894.539 439.071,905.46 441.355,907.091C443.23,908.435 450.686,893.546 451.109,892.555C458.957,892.27 466.674,891.496 474.553,891.464C474.804,893.331 473.479,906.639 476.528,906.568C478.274,906.531 477.135,892.631 476.906,891.478C483.362,891.602 489.831,892.006 496.295,892.144C496.681,893.644 508.539,921.427 512.246,916.846C512.304,916.772 498.864,894.178 498.347,892.184C508.714,892.361 519.03,892.916 529.36,893.797C530.197,894.872 553.988,916.463 556.33,912.125C556.715,911.417 534.67,896.277 534.192,895.873C532.739,896.039 531.789,895.487 531.343,894.215C530.401,892.66 536.08,892.431 537.095,892.45C536.98,892.411 537.02,892.414 537.171,892.451C537.251,892.454 537.259,892.459 537.229,892.466C538.299,892.741 543.185,894.244 540.259,894.941C557.697,897.029 576.977,902.427 594.399,902.68C593.575,902.252 594.461,901.819 595.157,901.57C566.193,887.86 509.841,853.18 514.019,849.349Z" style="fill:rgb(26,26,26);fill-rule:nonzero;"/>
            <path d="M537.095,892.449C537.116,892.456 537.138,892.464 537.17,892.474C537.211,892.471 537.215,892.468 537.229,892.465C537.209,892.46 537.188,892.455 537.171,892.45C537.153,892.449 537.118,892.449 537.095,892.449Z" style="fill:rgb(26,26,26);fill-rule:nonzero;"/>
            <path d="M597.854,902.821C597.551,902.977 596.944,903.068 595.892,903.027C597.855,903.838 609.623,908.491 611.493,906.816C610.322,907.828 605.196,906.154 597.854,902.821Z" style="fill:rgb(26,26,26);fill-rule:nonzero;"/>
            <path d="M595.826,901.356L595.823,901.359L595.82,901.356C595.853,901.353 595.532,901.435 595.157,901.569C596.084,902.008 596.986,902.427 597.854,902.821C598.715,902.38 597.083,901.407 595.826,901.356Z" style="fill:rgb(26,26,26);fill-rule:nonzero;"/>
            <path d="M360.565,904.047C360.113,903.701 359.936,903.192 359.847,902.742C359.839,901.604 360.621,901.057 362.197,901.108L362.199,901.108C362.331,900.989 362.463,900.873 362.596,900.757C360.346,901.082 358.405,901.998 356.771,903.509C357.995,904.097 359.26,904.276 360.565,904.047Z" style="fill:rgb(26,26,26);fill-rule:nonzero;"/>
            <path d="M441.751,862.652C443.256,862.647 444.743,862.798 446.213,863.101C447.551,861.644 456.635,854.025 455.267,852.734C453.137,850.709 443.33,860.867 441.751,862.652ZM449.754,858.079C449.902,856.812 450.522,855.629 451.975,854.601L451.978,854.601C452.414,855.979 451.703,857.144 449.754,858.079Z" style="fill:rgb(26,26,26);fill-rule:nonzero;"/>
            <path d="M711.666,83.302C713.385,84.849 713.866,87.894 710.774,89.074C710.8,91.366 712.886,93.122 714.938,93.745C709.436,101.281 705.509,110.755 699.243,117.367C700.954,118.172 701.625,119.321 702.552,120.382C708.224,113.348 717.444,104.04 720.703,95.445C753.291,103.966 723.68,45.318 711.666,83.302ZM717.127,89.412C717.045,89.095 716.757,87.968 717.198,87.767C721.378,85.435 720.192,73.733 729.088,78.969C741.409,86.222 722.266,89.301 717.127,89.412Z" style="fill:rgb(26,26,26);fill-rule:nonzero;"/>
            <path d="M688.092,132.465C682.426,140.893 676.144,148.881 670.541,157.307C665.165,165.389 661.521,172.202 674.459,163.924C687.611,155.509 694.036,133.598 702.324,120.66C700.769,120.071 699.147,119.752 697.458,119.701C694.965,124.482 690.875,127.976 688.092,132.465Z" style="fill:rgb(26,26,26);fill-rule:nonzero;"/>
            <path d="M603.737,210.882C604.761,210.689 604.442,193.898 605.754,190.775C606.021,190.036 617.826,173.834 618.22,174.439C610.932,163.274 594.146,212.741 603.737,210.882Z" style="fill:rgb(26,26,26);fill-rule:nonzero;"/>
            <path d="M617.562,182.652C614.251,179.082 611.505,191.434 611.354,192.031C608.642,202.662 614.604,202.698 613.817,191.999C614.544,189.188 619.313,184.54 617.562,182.652Z" style="fill:rgb(26,26,26);fill-rule:nonzero;"/>
            <path d="M618.587,195.757C617.478,200.106 619.073,199.324 620.512,196.338C620.277,196.071 620.242,195.805 620.49,195.538C620.604,195.047 621.568,193.663 621.913,192.971C621.752,192.918 621.604,192.868 621.433,192.81L621.433,192.807C621.605,192.868 621.752,192.918 621.913,192.971C622.154,192.612 620.05,190.02 618.587,195.757ZM621.201,192.881C620.911,193.164 620.731,193.166 620.673,192.852C620.847,192.863 621.024,192.871 621.201,192.881C621.241,192.841 621.272,192.818 621.315,192.77L621.415,192.892C621.343,192.89 621.272,192.884 621.201,192.881Z" style="fill:rgb(26,26,26);fill-rule:nonzero;"/>
            <path d="M643.415,225.917C651.587,226.39 667.826,194.223 666.086,193.722C661.054,192.256 649.335,226.178 643.415,225.917Z" style="fill:rgb(26,26,26);fill-rule:nonzero;"/>
            <path d="M671.211,196.407C669.904,196.182 654.352,226.451 653.457,225.09C656.364,229.502 676.233,197.254 671.211,196.407Z" style="fill:rgb(26,26,26);fill-rule:nonzero;"/>
            <path d="M675.565,204.703C674.482,204.399 671.853,205.891 671.427,207.021C670.598,209.057 660.287,225.401 659.915,224.651C661.938,228.708 679.378,205.765 675.565,204.703Z" style="fill:rgb(26,26,26);fill-rule:nonzero;"/>
        </g>
    </g>
</svg>
