<?xml version="1.0" encoding="UTF-8"?>
<svg id="Layer_2" data-name="Layer 2" xmlns="http://www.w3.org/2000/svg" viewBox="0 0 392.56 693.8">
  <defs>
    <style>
      .cls-1 {
        fill: #231f20;
      }
    </style>
  </defs>
  <g id="Layer_1-2" data-name="Layer 1">
    <path class="cls-1" d="m391.79,321.07c-.19-1.9-2.96-1.42-3.17.26-1.22,9.64-7.33,17.76-14.82,23.59-9.04,7.03-20.11,10.78-30.71,14.72-10.21,3.8-20.05,8.23-29.25,14.1-8.69,5.54-16.75,12.04-23.98,19.38-7.94,8.06-14.85,17.09-20.55,26.86-.18.04-.35.13-.52.26-13.12,10.6-25.27,22.24-36.31,34.96,3.01-4.15,7.06-7.66,10.18-11.63,4.53-5.77,8.54-12.05,12.67-18.1,8.68-12.7,16.93-25.73,23.66-39.58,3.73-7.69,6.97-15.61,9.47-23.79.43-1.39-1.71-2.08-2.15-.69-4.57,14.72-11.53,28.53-19.51,41.68-7.9,13.03-16.54,25.72-25.48,38.06-2.2,3.04-4.89,5.72-7.41,8.53,8.53-16.29,20.75-30.61,29.77-46.62,5.4-9.59,9.8-19.89,11.42-30.84,1.85-12.52-.9-24.88-2.56-37.25-1.61-12.01-1.81-25.27,5.26-35.71.69-1.02-.61-2.65-1.73-1.88-19.43,13.54-34.71,32.13-44.32,53.78-9.78,22.02-13.12,46.2-9.78,70.04,2.08,14.85,5.79,30.44.77,45.11-.1.29-.09.55,0,.77-9.76,12.56-18.48,25.93-26.02,39.94-9.26,17.19-16.43,35.39-22.19,54.03-5.62,18.21-9.81,36.89-12.23,55.79-.28,1.02-.53,2.05-.73,3.1-.08.41.01.81.2,1.15-.04.34-.09.69-.13,1.03-1.84,16.72-2.21,33.65-.72,50.41-12.86-30.97-23.3-62.91-31.28-95.48-1.06-4.33-2.07-8.67-3.05-13.02,4.5-25.53,24.55-43.49,40.69-62.53,9.41-11.1,17.35-22.97,22.86-36.5,6-14.73,9.24-30.45,11.02-46.22,2.03-18.01,2.11-36.18,2.14-54.28,0-1.68-1.95-2.15-2.93-.94-17.72,21.81-35.51,43.71-50.27,67.68-13.87,22.53-24.99,47.05-30.1,73.12-.9,4.58-1.58,9.2-2.08,13.83-1.2-7.8-2.26-15.62-3.19-23.46.78-7.56,2.23-15.08,3.74-22.41,1.66-8.09,3.37-16.17,4.84-24.3,1.43-7.92,3.11-15.79,5.11-23.59,2.23-8.7,4.96-17.29,8.59-25.52,1.32-.4,2.54-1.25,3.71-1.92,2.45-1.41,4.76-3.07,7.05-4.73,4.58-3.32,8.6-7.12,11.61-11.95,2.74-4.41,4.41-9.25,5.4-14.33.92-4.69,1.43-10.04-1.05-14.36-3.96-6.9-12.77-7.01-19.29-3.99-8.11,3.76-12.97,12.66-14.71,21.1-1.17,5.65-.98,11.33.12,16.99.52,2.69,1.25,5.36,2.09,7.97.61,1.9,1.31,3.81,2.7,5.25-6.5,14.59-10.3,30.26-13.24,45.91-1.56,8.33-3.19,16.64-4.92,24.94-1.04,4.98-2.04,9.98-2.86,15.01-.89-8.61-1.63-17.24-2.2-25.87-2.58-39.26-1.76-78.68,2.21-117.82,3.86-11.81,11.79-22.2,22.09-29.14,5.53-3.73,11.63-6.41,18.11-7.98,7.65-1.86,15.53-2.4,23.33-3.29,7.56-.87,15.09-2.09,22.19-4.89,6.08-2.4,11.71-5.89,16.74-10.06,10.31-8.53,17.99-19.8,23.56-31.88,7.02-15.2,10.79-31.62,14.55-47.86.3-1.3-1.34-2.77-2.43-1.55-16.97,18.93-40.31,29.93-62.76,40.9-20.48,10-41.2,20.87-57.02,37.65-5.14,5.45-9.61,11.49-13.11,18.07.06-.36.12-.72.18-1.08,3.63-7.79,2.86-16.81,6.31-24.7,4.09-9.38,9.21-18.3,14.85-26.83,11.58-17.5,25.72-33.26,40.15-48.44,4.07-4.28,8.26-8.35,12.86-12.06,3.76-3.03,7.61-5.95,11.28-9.08,1.5,2.08,4.55,2.41,6.95,2.31,3.77-.16,7.49-1.09,11.09-2.19,7.83-2.4,15.2-6.29,21-12.18,6.19-6.29,11.14-16.65,5.77-25.02-5.93-9.26-18.52-5.84-25.88-.41-5.44,4.01-9.62,9.52-12.93,15.37-1.74,3.06-3.29,6.3-4.24,9.7-.89,3.14-1.29,6.48-1.71,9.73,0,0,0,0-.01.01-.04.03-.07.06-.11.09-7.51,6.54-15.77,12.09-22.81,19.2-7.67,7.74-14.93,15.9-22.13,24.08-13.42,15.26-25.56,32-34.3,50.4-.37.79-.73,1.57-1.07,2.35,3.42-16.75,7.45-33.38,12.08-49.85,10.78-38.35,25.02-75.72,42.33-111.59,1.53-3.18,3.1-6.34,4.69-9.49.37.08.77-.02,1.12-.42,6.85-7.71,17.22-10.25,27.06-11.56,11-1.47,22.12-2.06,32.17-7.24,17.52-9.04,28.4-26.82,34.5-44.98,3.88-11.55,6.15-23.56,8.4-35.51.29-1.51-1.4-2.32-2.39-1.13-12.29,14.82-26.03,28.46-41.13,40.42-7.73,6.13-15.86,11.65-24.16,16.97-8,5.13-16.09,10.34-22.92,17-6.77,6.61-12.34,14.64-14.52,23.96-.04.16-.04.31-.03.45-13.87,26-25.84,52.95-35.95,80.61.07-.6.13-1.21.18-1.81.59-7.25.45-14.59-.26-21.83-1.44-14.81-4.97-29.31-8.6-43.7-1.9-7.52-3.89-15.01-5.65-22.56.45-.09.75-.38.91-.75,1.51-.51,2.89-1.49,4.1-2.52,2.19-1.86,4.15-4.07,5.87-6.37,3.53-4.72,5.86-10.14,7.14-15.88,2.13-9.55,1.83-23.26-8.29-28.32-7.77-3.88-17.08.48-22.4,6.51-7.09,8.05-6.16,19.25-4.04,29.05.94,4.37,3,8.48,5.65,12.06,2.18,2.94,5.27,5.88,8.99,6.26,6.1,27.82,15.67,55.51,14.68,84.33-.22,6.5-1.48,12.72-3.04,18.96-.1.29-.19.57-.29.86-1.32-9.6-5.71-18.34-11.43-26.08-13.08-17.7-32.87-29.69-44.25-48.73-6-10.04-9.46-22.2-6.42-33.78,0-.01,0-.03,0-.04.16-.43.03-.83-.25-1.12-.36-.51-1-.81-1.62-.4-9.59,6.29-16.73,16.06-19.77,27.14-3.3,12.02-1.38,25.2,4.95,35.91,6.4,10.83,16.84,17.35,27.53,23.37,5.39,3.04,10.82,6.05,15.79,9.74,4.94,3.67,9.29,8.16,12.77,13.23,7.85,11.43,11.51,25.42,10.15,39.22-.05.54.13.94.44,1.2-8.03,29.6-14.01,59.76-17.99,90.17-2.23,17.06-3.81,34.2-4.75,51.38-.22-1.15-.43-2.29-.64-3.43-2.07-11.54-4.6-22.91-7.63-34.24-3.08-11.49-6.41-22.9-9.61-34.36-3.17-11.35-5.5-22.91-8.83-34.23-2.76-9.37-5.16-19.47-10.85-27.58.41-1.05.62-2.17.72-3.32,3.44-8.06,4.76-16.81,3.93-25.6-.68-7.22-3.25-15.68-10.39-18.95-8.17-3.74-17.94.65-22.79,7.6-5.93,8.49-4.15,18.82,1.01,27.2,2.91,4.73,6.79,9.1,11.02,12.68,1.96,1.66,4.31,2.98,6.93,3.11,2.68.13,5.27-.91,7.74-1.86,5.2,7.44,7.46,16.78,9.9,25.38,3.08,10.86,5.36,21.9,8.24,32.81,5.93,22.5,13.24,44.63,17.56,67.53,1.03,5.45,2.15,10.89,3.03,16.36.06.39.12.78.18,1.17-.19,4.67-.33,9.34-.42,14.02-2.09-15.44-5.64-30.68-10.8-45.38-5.13-14.62-11.9-28.66-20.39-41.62-8.7-13.29-19.17-25.28-30.53-36.35-12.81-12.49-26.65-23.79-40.45-35.14-.91-.75-2.3.15-2.34,1.2-1.18,31.12,8.29,61.51,22.28,89.01,14.09,27.69,32.89,52.45,51.75,77,10.71,13.94,21.29,27.97,30.98,42.64.11.17.24.3.39.4,2.04,37.78,7.09,75.4,15.28,112.34,8.71,39.27,20.92,77.78,36.58,114.84,1.92,4.54,3.89,9.05,5.91,13.54,1.5,3.33,6.52.68,5.02-2.65-.16-.35-.31-.7-.47-1.05-3.28-19.39-3.78-39.16-2.18-58.74.34-4.17.79-8.32,1.31-12.47,5.94-7.83,15.02-12.77,24.27-15.9,12.95-4.38,26.74-5.54,39.71-9.87,11.82-3.94,22.09-10.86,30.47-20.05,8.3-9.09,14.57-19.77,19.41-31.05,6.02-14.02,9.84-28.84,13.64-43.57.45-1.74-1.64-2.58-2.71-1.28-14.65,17.89-35.79,28.82-55.92,39.33-19.95,10.42-40.4,21.27-55.14,38.74-2.58,3.06-4.95,6.29-7.06,9.67,1.49-8.84,6.86-16.67,11.73-23.99,5.61-8.43,11.95-16.34,18.73-23.86,6.81-7.55,14.03-14.71,21.37-21.73,6.46-6.17,13.05-12.22,20.28-17.5,8.04-5.88,17.24-11.27,27.2-12.91,1.51-.25.98-2.48-.51-2.3-9.05,1.11-17.34,5.44-24.82,10.47-7.67,5.15-14.67,11.19-21.36,17.55-15.12,14.38-29.95,29.34-41.75,46.64-2.31,3.38-4.7,6.89-6.84,10.54,5.15-17.65,11.59-34.91,19.71-51.42,8.24-16.77,18.18-32.7,29.57-47.51,11.32-14.72,24.13-28.52,38.18-40.68,1.49-1.29,3-2.55,4.51-3.8.13.02.26.03.4,0,6.18-.86,12.4-1.24,18.6-1.88,6.75-.69,13.47-1.76,20.16-2.86,13.17-2.15,26.36-4.96,38.65-10.28,10.66-4.62,20.74-11.17,28.36-20.02,7.24-8.42,11.95-18.67,14.4-29.46,2.78-12.25,2.82-24.86,1.59-37.31Zm-255.09,62.99c.45-4.65,1.56-9.2,2.83-13.69,1.27-4.46,2.65-8.73,4.94-12.79,1.05-1.87,2.16-3.76,3.53-5.41,1.16-1.41,2.52-2.62,3.81-3.91,1.01-.08,2.01-.05,2.98.1.23,1.3-.43,3.01-.78,4.14-.47,1.5-.91,2.99-1.32,4.51-1.31,4.84-3.36,9.54-5.43,14.1-2.14,4.7-4.48,9.31-6.69,13.97-1.06,2.22-2.04,4.48-3.15,6.67-.32.64-.63,1.27-.93,1.91-.01-3.21-.1-6.42.21-9.61Zm22.17-34.02c.72,1.99.18,4.28-.2,6.3-.42,2.18-.96,4.29-1.72,6.37-1.71,4.62-4,9.06-6.45,13.33-2.39,4.17-5.02,8.21-7.82,12.12-1.72,2.4-3.26,5.54-5.42,7.78-.1.06-.2.12-.3.18.66-1.72,1.54-3.35,2.38-5,1.14-2.25,2.16-4.57,3.26-6.84,2.31-4.76,4.69-9.49,6.78-14.35,2.03-4.73,3.52-9.47,4.89-14.41.42-1.52,1.02-2.99,1.42-4.51.19-.7.41-1.54.39-2.32,1,.29,1.94.76,2.8,1.39Zm3.62,12.84c-.59,4.51-1.83,9.1-3.9,13.16-2.49,4.85-5.95,8.9-10.21,12.28-2.23,1.77-4.56,3.43-6.94,4.98-.38.25-.77.48-1.16.71,1.01-1.5,1.93-3.07,2.94-4.46,3.22-4.47,6.24-9.08,8.94-13.89,2.49-4.44,4.85-9.08,6.47-13.92.73-2.16,1.2-4.4,1.6-6.64.21-1.2.33-2.41.21-3.58,2.58,3.14,2.56,7.5,2.06,11.37Zm-29.74,24.09c-1.04-4.6-1.56-9.32-1.06-14.02.85-8.01,4.42-16.38,11.04-21.27,1.89-1.39,4.34-2.53,6.88-3.09-2.4,2.39-4.36,5.02-6.09,8.07-2.3,4.06-3.76,8.31-5.03,12.78-1.26,4.41-2.39,8.86-2.94,13.42-.51,4.21-.26,8.43-.28,12.65-.37-.85-.65-1.75-.91-2.58-.61-1.96-1.17-3.96-1.62-5.96Zm110.42-223.73c-4.89,5.6-11.53,9.42-18.53,11.75-3.52,1.17-7.1,2.24-10.77,2.78-1.65.24-4.93.73-6.46-.42.03-.01.07-.03.1-.06.01,0,.02,0,.03,0,4.48-.65,8.86-2.87,13.04-4.52,4.53-1.79,8.97-3.87,12.96-6.68,3.56-2.51,6.73-5.48,9.73-8.63,1.4-1.47,2.88-2.91,4.06-4.57.51-.71.95-1.45,1.21-2.29.1-.33.18-.65.25-.98,0,4.91-2.57,10.11-5.63,13.61Zm-34.25,12.62c5.3-5.54,11.13-10.29,17.32-14.86,3.59-2.65,7.22-5.25,11.01-7.59,3.6-2.22,7.42-4.06,10.97-6.37-.77,1.51-.78,3.27-1.73,4.74-1.17,1.81-2.83,3.37-4.32,4.92-2.93,3.07-6.05,6-9.54,8.44-3.74,2.62-7.89,4.55-12.09,6.3-2.14.89-4.31,1.68-6.45,2.58-1.7.71-3.4,1.4-5.18,1.85Zm39.22-30.26s-.05.01-.07.03c-3.68,2.42-7.66,4.35-11.39,6.7-3.69,2.33-7.22,4.89-10.76,7.44-6.34,4.56-12.46,9.24-17.67,15.05,1.19-3.08,2.48-6.1,4.15-9,2.17-3.78,4.74-7.35,7.65-10.6,2.86-3.2,6.08-6.07,9.51-8.64,3.94-2.96,8.27-5.84,13.11-7.01,1.06.45,2.05,1.07,2.91,1.94,1.23,1.24,2.06,2.63,2.57,4.1Zm-36.8,15.44c2.36-4.84,5.38-9.51,9.11-13.41,3.65-3.81,8.13-7.15,13.34-8.41,2.07-.5,4.32-.7,6.44-.35-3.9,1.36-7.4,3.77-10.71,6.21-3.72,2.74-7.16,5.84-10.3,9.24-4.46,4.84-8.53,10.6-11.13,16.83.11-.71.24-1.43.39-2.13.61-2.77,1.62-5.44,2.86-7.98Zm52.88-101.45c-5.39,7.8-12.33,14.71-20.69,19.29-9.77,5.35-20.68,6.12-31.51,7.51-8.82,1.13-18.17,3.19-25.35,8.6,3.89-7.42,12.02-11.96,19.77-14.89,4.98-1.88,10.2-3.17,15.09-5.28,3.06-1.32,5.95-3.04,8.7-4.91,7-4.74,13.33-10.46,19.23-16.49,6.88-7.03,13.24-14.6,19.06-22.53,5.22-7.12,9.94-14.56,13.98-22.38-3.48,17.86-7.82,35.96-18.28,51.08Zm-44.39.95c16.05-10.31,31.13-21.72,44.84-35.01,4.6-4.46,9.02-9.1,13.3-13.86-3.06,5.37-6.46,10.57-10.03,15.57-5.79,8.13-12.17,15.87-19.09,23.06-5.94,6.18-12.31,12.11-19.38,16.98-2.77,1.91-5.67,3.67-8.76,5.03-4.77,2.09-9.92,3.3-14.81,5.08-5.68,2.07-11.57,5.01-16.14,9.16,7.29-11,19.06-18.94,30.07-26.01Zm-95.58-19.24c2.4-1.76,5.16-3.04,8-3.49.03,1.28.19,2.55.34,3.83.29,2.31.29,4.64.35,6.97.13,4.66.2,9.32-.02,13.98-.21,4.47-.62,8.94-1.3,13.36-.57,3.69-1.04,7.52-1.98,11.15-.1,0-.2.03-.3.03-.02-.01-.02-.03-.04-.04-1.71-1.04-2.44-3.26-3.06-5.05-.62-1.78-1.28-3.56-1.88-5.35-1.72-5.12-2.49-10.52-2.62-15.9-.1-3.96.08-7.99.6-11.92.33-2.45.82-5.2,1.91-7.57Zm12.21-3.5c9.91,1.62,11.65,13.9,10.68,22.02-.67,5.62-2.41,11.23-5.35,16.08-1.55,2.55-3.39,4.88-5.49,6.99-1.43,1.44-3.11,3.14-5.09,3.87.76-3.23,1.17-6.58,1.69-9.84.72-4.52,1.16-9.08,1.37-13.66.21-4.65.16-9.3.03-13.96-.06-2.1-.03-4.21-.21-6.3-.15-1.78-.48-3.55-.57-5.33.98-.07,1.97-.04,2.95.12Zm-13.59,44.72c-2.11-2.7-3.78-5.94-4.86-9.19-1.28-3.87-1.96-8.2-2.18-12.26-.24-4.49.17-9.28,2.47-13.25.95-1.65,2.23-3.23,3.71-4.65-.44,1.43-.73,2.91-.95,4.33-.72,4.52-.89,9.23-.73,13.8.2,5.66,1.07,11.35,3.04,16.68.72,1.95,1.37,3.95,2.16,5.88.31.77.67,1.56,1.13,2.28-1.47-.91-2.72-2.25-3.78-3.62Zm93.27,199.14c-4.87,4.36-10.35,8.01-16.34,10.62-7.08,3.09-14.75,4.36-22.38,5.26-7.89.93-15.87,1.52-23.62,3.38-6.37,1.53-12.46,4.03-17.99,7.57-8.33,5.33-15.25,12.67-20.08,21.23,2.33-8.21,6.06-16.01,10.99-23.01,7.81-11.1,18.37-19.39,30.57-25.21,13.76-6.57,28.63-10.49,42.22-17.43,11.37-5.81,21.58-13.94,30.53-22.99,6.9-6.98,13.36-14.76,18.36-23.31-5.82,23.56-13.74,47.34-32.25,63.9Zm-58.36-15.86c20.17-13.02,42.76-21.58,63.47-33.64,9.7-5.65,18.97-12.12,27.08-19.88-4.71,9.19-11.31,17.5-18.38,24.89-8.82,9.22-18.89,17.6-30.19,23.62-13.48,7.18-28.35,11.13-42.19,17.5-12.37,5.7-23.2,13.7-31.48,24.58-4.09,5.38-7.45,11.28-10.01,17.51.42-3.21.86-6.42,1.33-9.62,7.34-19.32,23.27-33.92,40.37-44.95Zm-60.04-125.86c14.62,14.66,33.53,28.53,38.99,49.59.97,3.72,1.46,7.61,1.38,11.47-.65,1.99-1.3,3.97-1.93,5.97-.61,1.91-1.2,3.83-1.79,5.74-.15-5.34-1.08-10.67-2.77-15.75-1.91-5.76-4.76-11.15-8.52-15.91-4.17-5.26-9.35-9.63-14.7-13.62-10.83-8.08-23.24-14.93-31.26-26.13-4.64-6.48-6.19-14.96-6.72-22.76-.59-8.8.3-18.55,4.17-26.73-1.45,18.49,10.49,35.44,23.16,48.13Zm26.44,58.18c-5.59-10.68-14.09-18.81-24.29-25.07-10.17-6.24-21.56-11.15-29.94-19.89-8.69-9.07-13.13-21.97-11.94-34.47,1.02-10.7,6.26-20.79,14.16-28-3.44,6.9-4.85,14.64-4.94,22.47-.09,8.44,1.03,17.51,4.57,25.26,2.22,4.86,6.04,9.1,9.88,12.75,4.89,4.65,10.38,8.58,15.93,12.4,11.1,7.65,22.51,15.44,28.7,27.84,4.54,9.09,6.11,19.43,4.68,29.4-.78-7.9-3.12-15.65-6.81-22.69Zm-79.15,1.47c.75-.65,1.54-1.24,2.38-1.76,1.55,3.11,3.39,6.1,4.91,9.23,1.77,3.63,3.37,7.34,4.82,11.11,1.45,3.76,2.74,7.59,3.85,11.47.85,2.94,1.65,5.84,2.81,8.63-2.57-1.71-4.61-4.32-6.57-6.62-2.6-3.06-4.85-6.42-6.74-9.96-3.6-6.76-5.95-14.39-5.45-22.1Zm7.39-3.87c3.13,1.12,5.49,3.65,7.26,6.46,2.15,3.4,3.81,7.27,4.97,11.12,1.58,5.26,2.22,10.77,2.37,16.24.05,1.75.13,3.49.2,5.23-.52,1.44-1.1,2.85-1.75,4.24-1.63-3.43-2.52-7.1-3.61-10.74-1.1-3.7-2.37-7.34-3.76-10.94-1.46-3.76-3.06-7.47-4.8-11.12-1.43-3.01-2.87-6.22-4.71-9.05,1.22-.64,2.5-1.12,3.83-1.44Zm7.53.24c6.51,2.12,8.93,9.55,9.79,15.67.93,6.55.4,13.15-1.35,19.45-.03-.5-.06-.99-.08-1.46-.2-5.91-.83-11.83-2.64-17.49-1.89-5.9-5.06-13.7-10.95-16.76,1.73-.13,3.49.03,5.22.6Zm-16.27,4.93c-.49,7.62,2.13,15.34,5.73,21.95,2.01,3.69,4.42,7.19,7.19,10.35,1.78,2.02,3.61,4.25,5.82,5.88-2.18-.37-4.37-.71-6.3-2.05-3.38-2.33-5.84-6.11-8.46-9.22-2.94-3.49-5.27-7.19-6.45-11.64-.9-3.37-1.15-6.87-.89-10.34.12-.25.22-.5.35-.75.79-1.51,1.82-2.92,3.02-4.18Zm9.91,37.83c-3.17-2.64-6.17-5.84-8.64-9.14-4.12-5.52-7.09-12.46-6.03-19.21.33,6.47,2.83,12.65,7.08,17.77,2.75,3.31,5.44,7.18,8.91,9.76,2.06,1.53,4.57,2.22,7.1,2.75-.92.25-1.86.43-2.79.47-2.12.07-4.05-1.09-5.63-2.4Zm13.91,71.1c17.77,25.37,28.61,55.15,33.42,85.64,1.91,12.06,2.87,24.26,3.04,36.47-6.21-25.7-21.42-48.65-37.64-69.28-9.16-11.66-18.79-22.82-26.98-35.21-8.22-12.43-15.47-25.52-21.57-39.12-6.03-13.45-11.04-27.53-14.02-42,23.14,19.06,46.45,38.81,63.75,63.5Zm-13.97,66.19c-18.06-25.23-34.27-52.41-43.34-82.26-3.65-12.03-6.07-24.41-6.88-36.93,6.18,23.47,16.97,45.85,29.79,66.3,3.79,6.05,7.81,11.95,12.06,17.68,4.34,5.86,9.05,11.42,13.64,17.08,10.2,12.58,20.05,25.54,28.11,39.62,8.11,14.17,14.28,29.53,16.36,45.76-15.69-23.07-33.52-44.57-49.76-67.26Zm135.2,83.63c-5.1,13.95-12.73,26.35-22.17,37.77-8.53,10.31-18.02,19.8-26.2,30.42-6.82,8.85-12.33,18.53-15.35,29.14-.17-.82-.35-1.63-.52-2.45-.36-10.85,1.53-21.63,5.23-32.03,5.26-14.81,13.34-28.44,21.17-41.99,14.05-24.33,28.62-48.47,39.87-74.27,3.52-8.08,6.86-16.44,9.22-25.03-.37,26.55-2.1,53.42-11.26,78.44Zm-68.91,70.29c.7-20.04,5.61-39.86,13.08-58.45,10.07-25.04,24.87-47.87,41-69.4,8.31-11.09,17.01-21.88,25.75-32.63-1.75,11.17-5.86,22.08-10.2,32.4-5.83,13.86-12.78,27.25-20.04,40.41-6.46,11.7-13.26,23.21-19.98,34.77-7.71,13.27-15.64,26.59-21.25,40.92-3.07,7.83-5.2,15.89-6.18,24.06-.76-4.02-1.49-8.05-2.18-12.08Zm141.18,37.04c-8.13,9.4-18.21,16.8-29.98,20.94-12.88,4.54-26.64,5.75-39.6,10.03-8.7,2.88-17.31,7.17-23.73,13.7.05-.32.1-.65.14-.97,8.69-18.48,29.69-28.76,47.29-37.59,5.63-2.82,11.27-5.67,16.6-9.04,4.73-2.99,9.25-6.31,13.58-9.86,9.39-7.67,17.98-16.32,25.89-25.5,6.48-7.51,12.54-15.41,17.98-23.7-5.92,22.08-13.02,44.47-28.18,61.99Zm-56.3-10.34c19.5-13.29,41.58-22.11,61.35-34.93,6.34-4.11,12.38-8.63,17.93-13.69-3.88,5.52-8.03,10.85-12.38,15.99-7.92,9.34-16.53,18.15-25.91,26.02-4.39,3.68-8.96,7.17-13.76,10.31-5.23,3.42-10.77,6.31-16.35,9.12-11.67,5.88-23.71,11.43-33.92,19.73-4.68,3.81-9,8.25-12.48,13.22.42-2.38.87-4.76,1.34-7.14,6.84-16.01,19.92-28.9,34.19-38.63Zm18.98-147.4c-.28-5.82-.12-11.66.44-17.46,2.26-23.29,11.15-45.83,25.04-64.62,6.63-8.97,14.49-17.13,23.35-23.94-9,19.45,1.53,42.34.56,62.79-1.11,23.43-15.99,43.04-28.7,61.65-4.16,6.09-8.18,12.27-11.68,18.73,4.76-23.54,3.38-48.25,10.15-71.46,2.25-7.71,5.4-15.13,9.83-21.84.86-1.31-1.18-2.62-2.05-1.31-16.73,25.08-14.63,56.46-18.77,85.04-1.01,6.96-2.44,13.86-4.55,20.55,1.24-9.57-.08-19.42-1.45-28.97-.91-6.37-1.85-12.73-2.16-19.16Zm151.96-25.66c-15.21,19.71-40.6,27.15-64.06,31.26-7.26,1.27-14.57,2.48-21.9,3.3-5.6.63-11.22,1.09-16.81,1.82,7.05-6.93,17.92-8.28,27.38-9.26,4.81-.5,9.63-.94,14.31-2.2,3.84-1.03,7.59-2.46,11.19-4.14,16.38-7.59,30.87-19.79,42.8-33.21,6.18-6.95,11.87-14.45,16.22-22.7.72-1.37-1.31-2.68-2.04-1.3-8.14,15.39-20.79,28.71-34.19,39.65-7.02,5.73-14.58,10.91-22.74,14.88-3.66,1.78-7.45,3.32-11.38,4.42-4.51,1.26-9.13,1.7-13.77,2.14-8.64.82-17.97,1.96-25.3,6.62,10.11-15.25,23.33-28.4,38.7-38.36,9.29-6.02,19.22-10.58,29.58-14.42,10.76-3.98,21.85-7.7,31.17-14.58,6.05-4.47,11.33-10.23,14.4-17.04.77,18.61-2.02,38.11-13.58,53.11Z"/>
  </g>
</svg>