<?xml version="1.0" encoding="UTF-8"?>
<svg id="Layer_2" data-name="Layer 2" xmlns="http://www.w3.org/2000/svg" viewBox="0 0 364.67 685.11">
  <defs>
    <style>
      .cls-1 {
        fill: #231f20;
      }
    </style>
  </defs>
  <g id="Layer_1-2" data-name="Layer 1">
    <path class="cls-1" d="m363.06.15c-7.85,4.79-16.56,8.05-24.58,12.54-7.48,4.19-14.75,8.86-21.34,14.37-6.58,5.51-12.11,11.89-16.79,19.07-4.66,7.15-8.34,14.84-12.67,22.19-2.5,4.25-5.27,8.29-8.91,11.65-3.12,2.89-6.56,5.45-9.51,8.52-7.1,2.12-12.88,7.43-17.47,13.09-5.83,7.21-10.42,15.37-14.44,23.69-9.02,18.65-15.83,38.54-21.74,58.36-.25.83-.49,1.67-.73,2.5.79-6.51,1.42-13.02,1.44-19.62.03-9.13-.17-18.26-.92-27.36-.74-8.94-2.11-17.85-4.38-26.54-2.26-8.66-5.32-17.1-8.61-25.42-3.8-9.61-7.95-19.07-11.6-28.74-.55-1.46-2.42-1.13-2.61.35-1.29,9.99-4.88,19.52-6.1,29.52-1.25,10.21-.74,20.65.84,30.8,1.57,10.08,4.34,19.84,8.09,29.32,3.6,9.08,7.78,17.92,11.56,26.93,3.38,8.06,7.81,16.67,8.25,25.59-5.15,20.56-8.59,41.58-9.25,62.77-.71,22.68,2.17,45.19,6.32,67.44-2.42-6.57-5.09-13.07-7.96-19.51-4.46-10.02-8.98-20.12-14.54-29.59-5.41-9.23-12.17-17.18-19.57-24.86-8.21-8.51-16.56-16.91-22.21-27.42-.66-1.22-2.41-.58-2.48.67-1.25,23.59,1.68,47.63,11.13,69.43,4.78,11.02,11.26,21.18,19.18,30.21,8.24,9.41,17.74,17.57,26.7,26.26,2.55,2.47,5.07,4.95,7.21,7.8,1.92,2.56,3.6,5.3,5.22,8.05,2.83,4.79,5.52,9.7,9.01,14.04,2.9,13.56,5.57,27.16,7.45,40.91,3.3,24.05,4.36,48.46,3.24,72.71,0,.02,0,.04,0,.05-1.56-12.05-4.06-23.99-7.47-35.61-6.15-20.93-15.35-41.43-29.23-58.42-7.38-9.03-16.18-16.92-26.3-22.76-.88-.51-1.94.14-1.97,1.13-.39,12.73,1.86,25.33,6.06,37.33,4.06,11.63,9.72,22.61,15.64,33.38,5.88,10.7,11.66,21.5,18.14,31.86,6.33,10.13,13.03,20.17,17.72,31.2,2,4.71,3.62,9.66,4.44,14.73-4.7,33.77-14.89,67.03-34.65,94.88-20.15,28.39-56.64,63.08-94.56,48.14-2.15-.85-4.27-1.83-6.35-2.89,11.51.65,22.97-3.05,32.96-8.88,12.7-7.42,23.73-18.14,31.78-30.43,9.23-14.1,15.18-30.52,17.38-47.2,1.28-9.69,1.24-19.46.16-29.14.16-.24.23-.56.15-.92-.67-3.02.31-6.24,1.25-9.1,1-3.04,2.32-5.96,3.33-8.99,2.51-7.58,3.98-15.67,4.19-23.65.22-7.91-1.09-15.79-2.87-23.47-1.75-7.53-4.14-14.89-6.89-22.11-3.05-8.01-6.55-15.85-10.09-23.65-.43-.94-1.99-.9-2.43,0-6.01,12.32-6.62,25.8-4.27,39.13,2.38,13.5,7.27,26.38,10.77,39.59.72,2.7,1.35,5.41,1.85,8.15-6.75-23.94-18.21-46.29-30.3-68.06.08-.23.1-.49.03-.76-2.44-9.34-2.95-19.16-1.22-28.67,1.56-8.59,4.66-16.78,7.17-25.12,2.53-8.45,4.13-16.92,3.79-25.76-.35-9.22-2.11-18.32-4.16-27.29-2.31-10.12-5.06-20.19-6.48-30.49-.19-1.38-2.6-1.38-2.8,0-2.63,18.92-12.59,35.62-16.87,54.11-2.07,8.96-3.06,18.23-2.23,27.42.8,8.89,3.11,17.58,5.62,26.13-11.66-20.66-23.17-41.48-32.52-63.28-11.05-25.79-20.25-55.61-13.77-83.77.15-.63.31-1.26.47-1.88.41-.1.79-.36.94-.8,1.28-3.53,3.82-6.54,6.24-9.34,2.43-2.81,4.95-5.55,7.41-8.33,5.08-5.76,10.48-11.25,15.22-17.3,4.72-6.02,8.67-12.55,11.19-19.79,3.07-8.83,4.89-18.1,6.34-27.32.78-4.96,1.31-9.88,1.54-14.89.25-5.27.33-10.62,1.34-15.81.26-1.36-1.76-2.47-2.41-1.02-6.91,15.51-15.31,30.28-24.3,44.67-8.63,13.8-19.4,27.15-22.41,43.57-.66,3.61-.74,7.3-.94,10.95-.2,3.64-.32,7.49-1.68,10.91-.16.4-.07.76.13,1.05-8.23,24.83-2.71,52.18,5.73,76.29,6,17.13,13.79,33.48,22.17,49.55-1.2-1.58-2.45-3.13-3.78-4.61-5.55-6.16-12.67-10.74-20.6-13.18-17.3-5.31-35.77-.33-53.17-4.88-4.61-1.2-9.05-2.92-13.47-4.69-3.23-1.29-7.17-2.88-10.56-1.3-.56.26-.84,1.06-.66,1.63,4.77,15.4,16.87,29.33,31.46,36.2,8.02,3.78,16.61,4.8,25.4,4.06,9.24-.77,18.37-3.04,27.68-2.9,5.14.08,10.15,1.06,14.89,3.1,4.6,1.98,8.88,4.63,13.36,6.86.14.07.28.11.42.14,1.18,2.17,2.36,4.33,3.54,6.5,15.62,28.64,32.73,56.93,43.56,87.85,5.22,14.9,8.86,30.47,9.24,46.31.39,16.2-2.76,32.35-9.39,47.15-.04.09-.08.17-.12.26.68-8.37.76-16.77-.31-25.11-1.47-11.54-4.62-22.82-8.84-33.65-3.83-9.82-9.38-18.8-16-26.98-7.39-9.14-16.23-17.5-26.28-23.66-.76-.47-1.64,0-1.92.78-2.89,8.17-1.34,17.15,0,25.48,1.54,9.57,3.92,18.79,7.55,27.79,3.62,8.96,8.12,17.54,13.14,25.79,5.04,8.27,10.9,16.07,15.16,24.79,2.36,4.83,4.2,10.09,4.74,15.47.41,4.16-.01,8.25-1.15,12.21-3.75,4.66-7.93,9-12.61,12.94-10.78,9.09-24.44,16.46-38.85,16.59-3.42.03-6.78-.37-10.1-1.2-2.19-.55-3.47,1.74-2.86,3.34-.09.53.05,1.09.54,1.54,14.56,13.33,34.63,16.31,53.16,10.35,18.59-5.98,34.52-18.96,47.55-33.16,13.04-14.19,24-30.43,31.76-48.08,13.82-10.63,31.98-14.69,47.4-22.41,9.54-4.78,17.76-11.39,25.17-19.03,7.44-7.67,14.46-16.51,19.21-26.13,2.36-4.78,4.32-9.74,6.69-14.51,2.26-4.56,4.87-9.17,8.95-12.35,1.24-.97-.34-2.84-1.64-2.12-17.23,9.54-35.88,16.23-52.96,26.05-15.66,9.01-29.9,21.19-40.83,35.65,2.96-11.37,5.16-22.95,6.75-34.6.94-6.9,1.66-13.82,2.2-20.76,13.24-14.81,29.78-26.39,42.55-41.68,7.34-8.78,13.22-18.75,18.1-29.08,4.92-10.43,9.04-21.45,11.7-32.69,2.99-12.66,4.14-26.01,9.92-37.84.65-1.33-1.13-2.35-1.97-1.15-12.09,17.26-29.92,28.99-44.89,43.47-7.6,7.36-14.35,15.49-19.38,24.83-6.05,11.23-10.82,23.22-14.01,35.58-.33,1.26-.65,2.53-.96,3.81-.09-6.27-.33-12.54-.71-18.8-.64-10.48-1.76-20.89-3.24-31.23.87-8.96,5.12-17.3,9.84-24.84,5.69-9.09,12.42-17.45,18.63-26.18,6.32-8.9,11.42-18.29,15.14-28.57,3.83-10.6,6.06-21.67,7.24-32.86,1.4-13.25,1.36-26.57,1.58-39.88.02-1.22-1.74-1.41-2.08-.28-6.23,20.37-21.45,36.17-34.06,52.75-6.31,8.3-12.23,17.01-16.11,26.74-4.15,10.41-6.02,21.64-6.53,32.8-.06,1.32-.09,2.64-.12,3.96-.54-2.59-1.09-5.17-1.66-7.75-6.1-27.88-13.07-55.69-16.12-84.12-.71-6.61-1.16-13.23-1.38-19.85,5.86-7.68,13.61-13,22.25-17.23,8.36-4.09,17.02-7.56,24.46-13.27,8.66-6.65,15.07-15.92,20.13-25.5,5.19-9.83,8.76-20.45,11.45-31.22,3.06-12.24,5.01-24.72,7.01-37.17.18-1.11-1.24-2.36-2.15-1.25-6.42,7.82-13.55,14.77-21.13,21.44-7.9,6.95-16.05,13.6-23.93,20.57-14.44,12.77-28.62,26.92-36.6,44.74.92-8.42,2.23-16.81,3.92-25.15,4.82-23.73,12.05-47.08,20.55-69.75,3.32-8.87,7.03-17.61,11.53-25.95,4.33-8.04,9.43-16.15,16.41-22.17,2.42-2.08,5.13-3.84,8.1-4.99.03,0,.06.01.09.01,1.01-.09,2-.32,2.98-.63,1.18-.24,2.36-.46,3.53-.74,2.25-.53,4.47-1.2,6.71-1.77,4.25-1.07,8.42-2.51,12.5-4.1,8.09-3.15,15.91-7.02,23.05-11.98,7.1-4.94,13.39-10.96,18.6-17.87,5.59-7.42,9.85-15.71,13.81-24.08,4.51-9.53,8.88-19.03,14.09-28.2.52-.92-.54-2.04-1.47-1.47ZM86.63,240.1c4.03-7.36,8.98-14.24,13.45-21.34,4.44-7.07,8.77-14.21,12.85-21.49,3.34-5.97,6.51-12.04,9.46-18.2-.49,6.36-.52,12.76-1.45,19.09-1.35,9.09-3.02,18.16-5.7,26.96-2.35,7.71-6,14.67-10.87,21.08-4.78,6.28-10.33,11.93-15.53,17.85-2.68,3.05-5.4,6.09-8.01,9.2-.93,1.1-1.84,2.23-2.7,3.4,0,0,0-.02-.01-.03.12-.65.22-1.31.31-1.98,1.77-6.95,4.7-13.43,9.23-19.32,3.45-4.49,7.03-8.79,10.1-13.56,2.92-4.52,5.52-9.24,7.92-14.05,2.86-5.73,5.45-11.57,7.99-17.45.59-1.37-1.4-2.58-2.03-1.19-4.7,10.3-9.24,20.71-15.27,30.33-5.54,8.83-13.07,16.25-17.35,25.81.05-1.01.11-2.02.2-3.01.7-7.76,3.72-15.33,7.43-22.12Zm3.93,174.88c-8.97-1.33-17.94.31-26.83,1.48-8.86,1.16-17.89,1.79-26.49-1.14-7.66-2.61-14.51-7.42-20.19-13.12-6.02-6.06-10.96-13.37-13.78-21.47,2.56-.37,5.92,1.36,8.01,2.2,3.78,1.53,7.63,2.95,11.56,4.05,8.28,2.32,16.9,2.5,25.44,2.5,8.4,0,16.92-.19,25.16,1.66,8.06,1.81,15.4,5.71,21.28,11.53,4.23,4.18,7.65,9.04,11.03,13.92-7.14-6.19-15.49-11.01-25.14-10.92-5.92.05-11.79,2.04-17.64,2.88-5.98.87-12.12,1.27-18.14.55-6.56-.79-12.96-3.22-17.58-8.07-1.21-1.26-3.06.62-1.91,1.91,8.18,9.08,21.33,10.05,32.75,8.94,5.67-.55,11.27-1.63,16.84-2.84,6.85-1.49,13.65-.25,19.79,3.05,4.36,2.34,8.22,5.43,11.77,8.85-5.03-2.68-10.14-5.09-15.94-5.94Zm35.08,22.54c-2.74-9.2-5.54-18.54-6.62-28.11-2.06-18.26,3.32-35.95,10.03-52.71,2.88-7.19,5.57-14.49,7.34-22.02,3.05,15.8,8.09,31.27,9.02,47.41.52,9.03-.86,17.58-3.39,26.24-2.42,8.27-5.46,16.38-7.07,24.86-1.03,5.44-1.37,10.97-1.09,16.47-2.37-9.13-3.3-18.67-3.41-28.07-.08-7.16.12-14.47,1.26-21.55,1.07-6.64,3.11-13.01,4.98-19.45,1.68-5.77,3.74-12.8,1.46-18.67-.56-1.45-2.92-.82-2.35.65,1.01,2.6.74,5.77.34,8.47-.43,2.99-1.2,5.94-2.05,8.84-1.89,6.44-3.95,12.8-5.03,19.44-1.15,7.06-1.44,14.3-1.41,21.45.03,6.99.53,13.98,1.67,20.89.53,3.19,1.21,6.35,2.05,9.47-.55-.98-1.1-1.96-1.65-2.93-.71-1.26-1.42-2.52-2.14-3.78-.73-2.34-1.34-4.7-1.99-6.88Zm39.81,70.82c-3.86-12.7-7.85-25.75-7.63-39.16.11-6.8,1.45-13.46,4.08-19.7,5.88,13.13,11.51,26.44,14.98,40.44,1.88,7.56,3.32,15.35,3.28,23.16-.04,8.13-1.51,16.28-3.98,24.02-.14.45-.3.91-.47,1.37,1.2-6.66,1.93-13.39,1.58-20.17-.54-10.47-4.02-20.26-6.81-30.26-1.58-5.65-2.69-11.34-3.13-17.2-.12-1.55-2.41-1.59-2.44,0-.19,9.96,3.52,19.63,6.23,29.07,1.44,5.02,2.7,10.12,3.22,15.34.52,5.29.37,10.62-.24,15.9-.34,2.94-.83,5.86-1.4,8.76-.37-4.19-.89-8.37-1.87-12.48-1.53-6.43-3.49-12.75-5.41-19.08Zm-31.69,82.91c-10.68-16.48-19.82-34.36-23.54-53.8-.94-4.91-1.77-9.9-2.23-14.88-.4-4.3-.56-8.89.66-13.09,15.92,10.99,29.6,26.6,37.31,44.39,4.35,10.04,7.43,20.86,9.36,31.61,1.68,9.34,1.98,18.71,1.54,28.17-.16,3.46-.41,6.94-.96,10.37-.44.8-.9,1.6-1.36,2.39-.29-11.61-2.31-23.12-6.56-34-5.25-13.44-13.89-25.17-20.74-37.79-3.94-7.25-7.32-14.75-9.55-22.71-.49-1.73-3.15-1-2.7.74,3.56,13.79,10.96,26.03,18.28,38.1,3.77,6.22,7.62,12.42,10.57,19.08,2.92,6.58,5.02,13.54,6.33,20.61,1.26,6.78,1.74,13.67,1.51,20.55-.53.81-1.08,1.61-1.63,2.4,1.56-15.09-8.18-29.63-16.3-42.16Zm77.53-99.54c-3.1-4.93-6.24-9.83-9.15-14.88-3.15-5.47-6.12-11.05-9.2-16.56-6.17-11.05-12.35-22.17-17.02-33.96-5.05-12.71-8.08-26.06-8.02-39.74,17.13,10.51,29.8,26.88,38.95,44.57,10.07,19.47,16.33,40.91,19.84,62.49.54,3.34,1.01,6.7,1.4,10.07-1.86-5.05-4.14-9.96-6.43-14.64-6.61-13.47-14.56-26.27-20.66-40-2.94-6.62-5.75-13.88-6.48-21.15-.14-1.43-2.39-1.44-2.25,0,1.37,13.66,7.98,26.15,14.37,38.09,7.03,13.15,14.89,26.13,19.7,40.32,1.19,3.5,2.17,7.09,2.78,10.73-.25,2.71-.53,5.43-.84,8.14-3.56-11.96-10.69-23.46-16.98-33.48Zm32.46,59.91c7.09-6.65,14.76-12.5,23.11-17.47,8.23-4.9,16.89-9,25.59-13,7.54-3.46,15.09-6.89,22.45-10.68-3.73,5.36-6.16,11.89-8.74,17.62-4.4,9.72-10.57,18.5-17.7,26.41-7.26,8.05-15.5,15.34-25.09,20.47-9,4.82-18.67,8.17-28.07,12.08-6.16,2.56-12.29,5.38-17.9,8.98,5.36-7.09,10.32-14.52,16.7-20.74,5.1-4.98,11.17-8.62,17.15-12.42,6.07-3.86,12.16-7.7,18.01-11.89,6.57-4.7,12.83-9.84,18.38-15.73,1.02-1.08-.61-2.72-1.64-1.64-10.05,10.58-22.32,18.49-34.6,26.23-5.9,3.72-12.02,7.24-17.22,11.91-4.81,4.32-8.84,9.39-12.68,14.57-.62.84-1.24,1.68-1.86,2.52,1.76-4.76,3.35-9.58,4.8-14.44,5.33-8.39,12.04-15.95,19.33-22.78Zm-3.83-76.69c2.98-12.29,7.5-24.18,13.34-35.38,4.88-9.35,11.16-17.52,18.62-24.95,7.22-7.19,15.11-13.65,22.74-20.39,6.42-5.66,12.68-11.52,18.18-18.07-2.7,8.04-4.09,16.5-5.8,24.82-2.36,11.46-6.06,22.63-10.77,33.35-4.66,10.6-10.35,20.93-17.41,30.14-6.68,8.72-14.75,16.25-22.85,23.64-6.84,6.24-13.76,12.45-20.04,19.25.01-.2.02-.39.04-.59.69,0,1.4-.76,1.02-1.6-.33-.73-.58-1.48-.78-2.26.01-.23.02-.45.03-.68,4.19-11.05,9.47-21.66,15.8-31.66,3.83-6.04,8.2-11.56,12.89-16.94,4.4-5.05,8.9-10.04,12.88-15.44,4.5-6.1,8.19-12.76,9.98-20.18.3-1.26-1.63-1.8-1.95-.54-3.47,13.54-13.16,24.01-22.11,34.26-4.54,5.19-8.87,10.49-12.62,16.29-4.35,6.72-8.25,13.73-11.65,20.99-1.02,2.19-2,4.4-2.92,6.62.08-2.26.14-4.51.18-6.77.89-4.67,2.09-9.29,3.2-13.9Zm-5.59-118.74c7-19.88,22.41-35.31,34.63-52.02,5.51-7.53,10.55-15.49,14.05-24.14-.3,21.1-1,42.46-7.72,62.62-3.53,10.6-8.54,20.41-14.95,29.54-6.09,8.68-12.74,16.96-18.48,25.89-4.16,6.47-8.07,13.52-10.08,21.03-.49-3.11-1.01-6.21-1.55-9.3.06-1.81.2-3.62.45-5.42,1.01-7.37,3.49-14.46,6.71-21.14,6.53-13.56,15.74-25.57,23.21-38.59,4.17-7.28,7.76-14.76,9.95-22.87.35-1.29-1.65-1.84-1.99-.55-4.01,14.82-12.85,27.66-21.08,40.38-7.72,11.93-15.45,24.46-18.34,38.55-.79-14.87.2-29.77,5.21-43.98Zm-39.15-203.79c-7.96-19.08-12.16-39.35-10.69-60.07.69-9.71,3.76-18.95,5.55-28.46,5.94,15.28,12.82,30.24,17.33,46.02,4.93,17.24,6.16,35.24,6.42,53.09.12,8.47-.39,16.83-1.33,25.21-4.49-19.29-9.99-38.38-12.92-57.99-.95-6.36-1.56-12.75-1.92-19.17-.08-1.41-2.25-1.43-2.2,0,.73,22.08,6.35,43.6,11.79,64.89.91,3.55,1.79,7.1,2.65,10.66-1.06-2.69-2.25-5.32-3.37-7.88-3.85-8.72-7.63-17.51-11.3-26.31Zm8.77,206.21c-8.44-9.06-18.08-16.94-26.58-25.94-8.32-8.8-15.35-18.6-20.62-29.52-5.06-10.48-8.51-21.72-10.62-33.15-2.12-11.5-2.86-23.25-2.5-34.93,10.24,16.41,26.55,28.02,37.02,44.35,5.78,9.01,10.29,18.76,14.75,28.47,4.55,9.92,8.86,19.96,12.4,30.28,1.95,5.69,3.65,11.45,5.06,17.29.54,2.48,1.08,4.95,1.62,7.42.34,1.7.65,3.4.93,5.1-2.55-4.77-4.52-9.86-7.09-14.63-3.6-6.68-8.66-12.44-13.54-18.2-10.1-11.92-18.25-25.16-23.97-39.73-3.16-8.05-5.57-16.38-7.47-24.81-.35-1.56-2.71-.9-2.39.66,3.14,15,8.33,29.51,15.82,42.89,3.84,6.85,8.21,13.33,13.23,19.37,5.09,6.11,10.67,11.95,14.82,18.77,4.34,7.13,6.76,15.31,11.63,22.13.16.22.4.38.67.46.44,1.98.87,3.96,1.3,5.94-4.87-7.38-8.38-15.68-14.48-22.23Zm4.83-113.63c3.33-9.28,8.61-17.77,14.8-25.41,12.92-15.94,29.32-28.6,44.66-42.07,7.22-6.34,14.52-12.89,20.97-20.08-3.43,20.42-7.16,41.02-16.29,59.77-4.77,9.8-10.92,19.52-19.34,26.59-7.13,5.99-15.72,9.63-24.01,13.66-8.6,4.18-16.34,9.26-22.5,16.43,0-.11,0-.22,0-.33.27-3.66.52-7.35,1.33-10.9,1.07-4.72,3.77-8.81,6.54-12.7,4.16-5.85,8.92-11.08,14.17-15.98,5.13-4.79,10.5-9.29,15.58-14.13,5.58-5.32,10.76-11.09,14.66-17.77.73-1.25-1.21-2.39-1.94-1.14-7.3,12.44-18.97,21.24-29.41,30.87-5.22,4.82-10.03,9.94-14.22,15.69-2.45,3.36-4.94,6.86-6.54,10.73.14-3.45.34-6.9.6-10.35.3-.97.6-1.94.94-2.89ZM350.05,24.85c-3.8,8.13-7.66,16.26-12.65,23.74-9.75,14.61-24.22,25.38-40.35,32.07-4.49,1.86-9.12,3.54-13.81,4.81-1.01.27-2.02.52-3.03.77.68-.43,1.34-.85,1.99-1.25,5.06-3.1,10.27-5.84,15.07-9.36,5.08-3.73,9.69-8.09,14.2-12.48,4.29-4.18,8.25-8.68,11.42-13.78,3.3-5.32,6.06-11.19,10.7-15.51,1.05-.98-.52-2.54-1.58-1.57-3.9,3.55-6.53,8.23-9.17,12.73-2.97,5.04-6.33,9.66-10.32,13.95-4.12,4.44-8.55,8.76-13.25,12.59-4.86,3.96-10.18,7.2-15.63,10.26-3.36,1.89-6.8,4.64-10.55,6.1-.16.04-.32.07-.48.11,2.08-1.91,4.28-3.68,6.4-5.54,3.1-2.73,5.71-5.77,8-9.2,4.77-7.13,8.35-14.99,12.79-22.32,4.42-7.28,9.51-14.04,15.85-19.77,6.5-5.88,13.79-10.81,21.32-15.27,7.62-4.51,15.71-8.22,23.65-12.15-4.07,6.71-7.26,13.99-10.57,21.08Z"/>
  </g>
</svg>