<?xml version="1.0" encoding="UTF-8"?>
<svg id="Layer_2" data-name="Layer 2" xmlns="http://www.w3.org/2000/svg" viewBox="0 0 341.24 686.76">
  <defs>
    <style>
      .cls-1 {
        fill: #231f20;
      }
    </style>
  </defs>
  <g id="Layer_1-2" data-name="Layer 1">
    <g>
      <path class="cls-1" d="m340.97,249.11c-.64-4.77-1.74-9.56-2.81-14.19l-.51-2.23c-1.4-6.16-2.69-11.12-4.05-15.61-3.47-11.43-7.77-20.99-13.16-29.23-5.33-8.15-12.04-14.71-19.97-19.49-7.48-4.52-16.04-7.9-25.19-10.04,9.69-2.14,18.89-5.64,27.03-10.33,12.93-7.44,21.8-16.56,26.35-27.09,2.55-5.9,3.75-12.4,3.46-18.81-.29-6.49-2.57-12.36-7.39-19.02l-.81-1.12c-3.81-5.25-7.41-10.21-8.7-16.69-.48-2.4-.91-4.81-1.35-7.22-1.25-6.9-2.54-14.03-4.81-20.84-4.68-14.06-14.47-25.3-27.55-31.66-13.38-6.5-28.16-7.3-40.55-2.17-3.99,1.65-7.6,4.05-10.96,6.37-.56.39-1.14.81-1.73,1.24-2.5,1.82-5.32,3.87-8.21,4.2-.11-.03-.23-.05-.34-.07-.27-.06-.53,0-.75.13-.73-.03-1.47-.16-2.24-.29-.32-.06-.64-.11-.96-.16-1.9-.28-3.65-.35-5.37-.2-3.35.29-6.14,1.23-8.3,2.78-3.69,2.66-5.75,7.14-6.29,13.69-.29,3.48-.13,7,.01,10.4.09,1.97.17,4.01.17,6.01,0,11.27-.8,22.73-1.57,33.8-.16,2.34-.33,4.69-.49,7.03-.59,8.76-.97,15.88-1.19,22.42-.06,1.59-.11,3.23-.16,4.91-1.46-9.6-3.52-19.44-6.95-28.89-2.55-7.03-6.15-14.21-10.69-21.33-4.61-7.23-9.48-12.92-14.87-17.38-5.55-4.6-12.26-8.26-21.76-11.88-5.23-1.99-9.55-3.05-13.58-3.33-3.21-.22-6.37.34-9.41.88-1.06.19-2.13.38-3.19.53-4.66.69-8.29.09-11.74-1.92-1.11-.65-2.19-1.34-3.26-2.03-2.18-1.4-4.42-2.84-6.92-3.88-7.14-2.99-15.38-3.71-25.95-2.27-11.67,1.58-27.67,6.58-37.65,21.41-2.69,3.99-4.54,7.45-5.82,10.88-.54,1.45-.98,2.93-1.4,4.35-.74,2.5-1.44,4.87-2.68,7.15-.3.56-.62,1.12-.93,1.69-2.94,5.3-5.97,10.78-4.48,17.1,2.45,10.36,14.57,13.93,26.1,16.05,5.24.97,10.61,1.74,15.8,2.5,12.15,1.76,24.72,3.58,36.46,7.93,9.63,3.57,19.03,8.67,26.13,12.71,4.2,2.39,7.67,4.43,10.93,7.03,1.11.89,2.21,1.79,3.3,2.7,1.01.84,2.05,1.69,3.1,2.53-1.56-.39-3.07-.74-4.52-1.06-18.19-4.01-35.86-5.58-52.53-4.66-18.7,1.03-33.87,4.77-46.38,11.42-7.36,3.91-13.42,8.71-18,14.27-5.87,7.12-9.88,15.41-11.27,23.35-1.42,8.12.85,16.07,6.57,22.99,1.21,1.47,3.08,3.62,5.26,5.33l.66.51c1.51,1.16,2.93,2.26,3.77,4,.57,1.19.94,2.47,1.32,3.81.26.92.53,1.87.88,2.79.87,2.32,2.17,4.38,3.65,6.65,2.82,4.31,6.19,8.56,10.3,12.98,4.22,4.54,7.73,7.36,11.72,9.44,3.62,1.88,7.89,4.02,12.08,5.53,3.6,1.3,5.25,4.22,7.16,7.59l.29.52c2.4,4.23,5.84,7.22,9.19,9.82,3.95,3.06,7.99,5.53,12.03,7.33,4.06,1.81,9.35,3.5,14.99,3.5,3.42,0,6.98-.62,10.46-2.21,6.63-3.02,11.86-9.26,16.09-14.97,3.6-4.85,6.94-10.49,10.52-17.76,2.32-4.72,4.48-9.61,6.57-14.34,3.39-7.67,6.89-15.61,11.17-22.97,7.3-12.58,16.35-21.17,26.94-25.58-20.68,29.39-37.14,63.57-48.9,101.65-11.44,37.04-18.16,76.55-19.98,117.42-.26,5.91-.41,11.81-.46,17.69-.04.07-.08.14-.13.21l-.35.44.18.14c.01.22.12.42.28.59-.15,22.78,1.24,45.28,4.18,67.29-2.8-6.24-4.29-12.99-5.72-19.54-.78-3.6-1.52-7.2-2.25-10.81-.79-3.9-1.62-7.94-2.49-11.9-3.19-14.42-7.13-31.41-12.18-48.05-2.3-7.59-5.03-15.41-8.1-23.24-2.65-6.76-5.67-13.97-9.72-20.87-3.68-6.28-8.13-12.41-13.21-18.23-2.21-2.53-4.6-4.93-6.92-7.25-2.15-2.16-4.37-4.39-6.43-6.7-1.2-1.35-2.39-2.72-3.57-4.09-3.29-3.79-6.69-7.71-10.39-11.25-4.36-4.17-9.7-8.58-16.17-9.66-.6-.1-1.18.04-1.61.39-.41.33-.65.82-.67,1.38-.74,15.8-.8,32.73,3.82,49.52,3.73,13.56,9.19,27.56,16.24,41.61,7.07,14.09,15.25,27.2,24.33,38.96,7.76,10.06,16.61,19.47,25.17,28.57,2.4,2.55,4.8,5.11,7.18,7.68,5.91,6.39,12.03,12.99,16.77,20.46,2.94,4.63,5.54,9.8,7.78,15.43.92,5.73,1.94,11.42,3.07,17.07,5.35,26.64,17.06,51.73,29.62,77.23,7.71,15.65,15.67,30.6,23.66,44.44,6.43,11.14,14.23,24.15,23.33,36.26,1.69,2.24,3.46,4.48,5.26,6.64.47.57,1.07.87,1.72.87.12,0,.25-.01.38-.03.89-.15,1.68-.85,2.02-1.77.33-.89.16-1.83-.46-2.56-8.54-10.21-15.59-21.68-22.09-32.55-5.7-9.55-11.36-19.66-17.12-30.62-.08-13.43,3.21-26.75,6.81-39.18,1.99-6.85,4.33-13.7,6.6-20.34,1.82-5.32,3.7-10.82,5.39-16.3,4.19-13.59,6.46-25.78,6.93-37.26.47-11.68-.56-22.97-3.08-33.56-3.13-13.14-8.36-24.1-15.54-32.6l.04-.15-.14.04c-.21-.24-.41-.48-.62-.72-.42-.48-1.06-.68-1.71-.54-.69.15-1.26.68-1.45,1.33-2.33,8.05-6.14,15.69-9.83,23.08-1.26,2.53-2.57,5.15-3.8,7.74-4.73,9.99-8.27,20.59-10.52,31.48-2.39,11.55-3.45,22.91-3.14,33.75.29,10.17,1.76,20.98,4.48,33.03,1.73,7.66,3.9,15.73,6.56,24.39-5.01-10.36-9.54-20.29-13.71-30.07-4.63-10.86-9.01-21.51-11.75-32.37-3.8-15.1-6.6-32.02-8.8-53.23-1.94-18.7-2.8-38.11-2.56-57.67,0-.14,0-.28,0-.42,4.94-5.66,10.12-11.04,15.47-16.02,7.13-6.63,13.04-12.85,18.07-19.02,12.18-14.9,20.58-29.82,24.97-44.32,2.88-9.53,4.05-19.11,3.47-28.49l.27-.23-.3-.12c0-.13-.02-.26-.03-.4-.05-.64-.42-1.17-.99-1.41-.57-.24-1.22-.12-1.71.29l-.31.26-.25-.11.02.31-1.23,1.06c-21.94,18.77-44.62,38.18-54.69,66-.22.62-.43,1.25-.64,1.88,2.41-26.05,6.82-51.66,13.2-76.51,10.15-39.52,24.97-75.19,44.05-106,2.37-3.83,4.9-7.72,7.52-11.57,0,0,0,0,0,0,2.76-.92,5.75-1.65,8.91-2.18,2.6,2.64,3.09,7.33,3.32,11.58.38,7.04-.2,14.13-.82,20.14-.77,7.49-1.85,15.05-2.89,22.37l-.27,1.9c-.74,5.18-1.52,10.54-1.74,15.86-.24,5.48.53,11.7,2.41,19.58,2.2,9.23,5.76,15.96,10.88,20.59,3.02,2.73,6.57,4.74,10.56,5.98,3.63,1.13,7.31.93,10.86.73,1.13-.06,2.25-.12,3.39-.15,2.24-.05,4.59.07,6.64,1.14,1.88.99,3.45,2.56,4.87,4.11.7.76,1.37,1.54,2.05,2.33,2.25,2.6,4.58,5.3,7.64,7.17,9.8,5.99,21.56,9.06,33.02,9.06,8.29,0,16.43-1.61,23.54-4.9,15.6-7.2,33.22-22.5,31.55-41.92-.06-.73-.14-1.46-.21-2.19-.21-2.07-.43-4.21-.35-6.3.09-2.01.6-4.04,1.09-5.99.18-.7.35-1.41.51-2.11,1.09-4.82,1.35-8.94.81-12.98ZM21,304.43c4.42,1.46,8.24,4.66,11.73,7.97,3.85,3.65,7.38,7.74,10.8,11.7l1.52,1.76c2.37,2.73,4.93,5.33,7.4,7.84,1.7,1.73,3.46,3.51,5.14,5.32,5.16,5.57,9.72,11.49,13.54,17.59,8.37,13.36,13.57,28.65,18.18,43.17,4.44,13.97,8.62,29.26,12.78,46.74.83,3.48,1.61,7.07,2.37,10.54,1,4.58,2.01,9.21,3.17,13.82-.23-.58-.47-1.15-.7-1.73-1.86-4.61-3.79-9.37-5.82-14-3.99-9.1-8.92-17.88-13.69-26.36-2.09-3.72-4.25-7.57-6.3-11.39-4.07-7.59-7.83-15.51-11.47-23.18-2.24-4.73-4.56-9.62-6.94-14.39-7.28-14.62-13.6-26.2-19.89-36.45-2.86-4.66-5.98-9.23-9-13.64-1.28-1.87-2.56-3.75-3.82-5.63-3.31-4.94-6.88-10.69-9.14-16.92.04-.92.08-1.84.13-2.76Zm81.69,169.35c-4.49-5.18-9.19-10.32-13.75-15.28-6.53-7.13-13.29-14.5-19.5-22.11-19.02-23.34-33.79-51.03-42.71-80.08-4.12-13.41-6.13-27.99-6-43.48,3.07,6.64,7.27,12.72,11.36,18.66,1.71,2.48,3.48,5.05,5.12,7.59,6.69,10.37,13.26,21.98,20.67,36.56,3.23,6.36,6.36,12.9,9.39,19.23,2.87,5.99,5.83,12.18,8.88,18.22,2.95,5.84,6.23,11.63,9.4,17.22,3.85,6.8,7.84,13.84,11.25,21.01,2.95,6.18,5.61,12.63,8.18,18.86,2.02,4.88,4.08,9.87,6.3,14.79-2.44-3.67-5.29-7.37-8.6-11.19Zm45.07,66.26c-.94-22.47,3.37-45.04,12.48-65.26,1.51-3.34,3.16-6.71,4.76-9.96,3.24-6.58,6.57-13.36,8.92-20.46,14.7,19.15,16.77,45.34,16.65,59.64-.1,11.4-1.98,23.36-5.75,36.56-1.87,6.55-4.07,13.13-6.19,19.48-1.8,5.38-3.66,10.95-5.31,16.48-3.49,11.67-6.72,24.03-7.47,36.47-4.14-16-6.13-33.65-6.07-53.65.07-20.34,2.46-41.69,7.12-63.45,2.4-11.24,5.41-22.51,8.94-33.51.2-.61-.12-1.23-.74-1.43-.64-.2-1.3.12-1.5.75-6.48,20.09-11.13,40.73-13.83,61.33-3.02,23.08-3.36,44.82-1.02,64.64.81,6.82,1.94,13.49,3.39,19.96-.17-.34-.35-.68-.52-1.02-.37-.74-.73-1.47-1.1-2.2-1.07-4.4-2.2-8.83-3.31-13.12-4.28-16.58-8.7-33.73-9.43-51.25Zm-30.52-44.61s.09-.03.14-.05c.02.18.05.35.08.53-.07-.16-.14-.32-.21-.47Zm59.9-179.63c-.04,14.73-3.93,29.69-11.59,44.56-6.62,12.85-16.69,25.55-31.7,39.96-6.15,5.9-11.14,11.09-15.5,16.1.02-.89.03-1.77.05-2.66.31-1.19.6-2.39.89-3.57.5-2.09,1.03-4.25,1.66-6.3,2.45-8,7.18-15.35,11.76-22.45l.28-.44c8.08-12.56,18.91-28.97,31.08-44.61,3.03-3.89,5.72-7.44,8-11.43.77-1.34,1.5-2.7,2.23-4.05.91-1.69,1.85-3.42,2.84-5.11Zm-44.56,45.66c6.77-10.61,15.82-21.02,28.47-32.77,4.29-3.99,8.77-7.97,13.56-12.08-.24.44-.47.87-.7,1.3-2.9,5.36-5.9,10.89-9.88,15.75-6.16,7.51-11.42,14.4-16.09,21.06-4.56,6.5-9.32,13.58-14.97,22.27l-.16.24c-4.61,7.1-9.38,14.43-12.55,22.4-.61,1.54-1.1,3.13-1.53,4.74.14-3.33.33-6.65.54-9.97,2.23-11.41,6.76-22.65,13.32-32.94ZM228.58,14.21l.51-.34c.77-.5,1.53-1.01,2.29-1.51,2.64-1.76,5.37-3.57,8.25-4.97,3.07-1.49,6.58-2.6,10.45-3.31,6.42-1.18,13.31-.92,19.91.74,13.21,3.33,25.08,12.11,31.74,23.49,4.27,7.3,6.39,15.78,8.04,23.86.38,1.85.7,3.79,1.01,5.67.98,5.88,1.99,11.95,4.91,17.22,1.48,2.67,3.3,5.14,5.06,7.54,1.93,2.63,3.93,5.35,5.44,8.29,2.81,5.44,3.64,12.25,2.41,19.7-1.32,7.98-9.16,34.8-54.74,44.99-2.18.49-4.37.87-6.55,1.21-6.22-.94-12.65-1.35-19.15-1.16-7.01.21-14.62,1.42-23.96,3.83-1.66.43-3.25.88-4.81,1.33-.14-.02-.27-.04-.42-.04-.12,0-.23.02-.34.03,2.43-1.64,4.93-3.29,7.5-4.71,8.28-4.6,14.56-8.3,20.36-12.01,14.9-9.51,26.99-19.16,36.97-29.49,6.85-7.09,12.29-14.03,16.64-21.22.27-.45.14-1-.29-1.28-.45-.29-1.03-.17-1.33.26-9.15,13.32-19.93,25.13-32.03,35.1-8.79,7.24-18.66,14.11-29.91,20.83,0-.06.02-.12.02-.18,0-1.13-.91-2.04-2.04-2.04s-2.04.91-2.04,2.04c0,.83.5,1.55,1.22,1.87-2.05,1.2-4.14,2.39-6.29,3.59-.48.26-.92.53-1.39.79.4-.6.63-1.32.63-2.1,0-1.31-.66-2.46-1.65-3.15.31-.35.62-.7.91-1.04,11.44-13.14,20.58-27.06,27.17-41.36,3.86-8.37,6.12-15.33,7.12-21.89.08-.53-.27-1.01-.81-1.09-.49-.08-.94.24-1.03.74-2.48,15.06-10.37,28.91-16.98,39.3-5.77,9.07-12.02,17.33-18.69,24.68-2.07.06-3.74,1.74-3.74,3.83,0,.05.01.09.01.13-2.82,2.9-5.7,5.64-8.65,8.22-3.28,2.87-6.28,5.21-9.16,7.17-.5.25-1.01.5-1.5.76-1.54.81-2.95,1.65-4.27,2.5,1.19-2.49,2.46-4.95,3.76-7.38.4.14.83.23,1.28.23,2.14,0,3.87-1.73,3.87-3.87,0-1.25-.6-2.35-1.52-3.06,2.99-5.47,6.05-11.11,8.54-16.94.59-1.38,1.2-2.76,1.81-4.14,2.04-4.6,4.14-9.36,5.55-14.26.86-2.99,1.31-6.09,1.75-9.1.54-3.71,1.1-7.55,2.43-11.12.16-.41-.05-.86-.46-1.02-.42-.16-.9.05-1.06.47-1.39,3.67-1.97,7.54-2.53,11.29-.41,2.77-.84,5.64-1.59,8.37-1.47,5.34-3.84,10.57-6.12,15.62-.56,1.24-1.12,2.47-1.66,3.71-2.48,5.61-5.51,11.06-8.49,16.34-.17-.02-.34-.05-.52-.05-2.14,0-3.87,1.73-3.87,3.87,0,.94.34,1.78.9,2.45-.45.82-.9,1.63-1.35,2.46.42-2.95.47-5.96.45-8.79-.02-3.11-.19-6.23-.44-9.34.86.98,2.1,1.61,3.51,1.61,2.58,0,4.68-2.1,4.68-4.68s-2.1-4.68-4.68-4.68c-1.22,0-2.32.48-3.15,1.24,2.08-22.5,6.77-40.47,14.49-55.73,3.78-7.46,8.83-14.3,13.72-20.92,2.02-2.73,4.1-5.56,6.08-8.39.73-1.04,1.5-2.1,2.28-3.18,5.12-7.04,10.92-15.01,8.1-24.32-2.37-7.85-9.08-9.94-15.99-11.45,1.19-.63,2.31-1.36,3.38-2.06Zm4.14,150.06c-3.53.04-7.05.38-10.55.92.12-.35.2-.71.2-1.1,0-.09-.02-.17-.03-.25,3.58-.99,7.19-1.83,10.81-2.53-.39.54-.62,1.19-.62,1.9,0,.37.08.72.19,1.05Zm-16.84-3.67l-.21.14c-1.2.81-2.41,1.62-3.64,2.43-.64.23-1.28.46-1.9.7,3.55-2.94,6.81-6.08,9.79-9.2.7.85,1.75,1.4,2.94,1.4.08,0,.16-.02.25-.02-2.56,1.52-4.97,3.03-7.23,4.56Zm.59,5.64c-1.8.38-3.59.79-5.38,1.23.85-.31,1.7-.61,2.55-.91.82-.29,1.65-.56,2.48-.83.1.18.22.35.36.51Zm-20.55-64.45l.06-1.03c.34-5.47.75-11.02,1.15-16.39.62-8.38,1.25-17.04,1.65-25.58.24-5.22.42-10.81.1-16.37l-.11-1.76c-.29-4.7-.59-9.57.55-14.12,1.42-5.62,5.6-8.91,11.79-9.28,1.42-.08,2.79.12,4.25.34,1.46.22,2.96.45,4.5.35.7-.04,1.38-.18,2.05-.35.31.07.61.15.92.22,6.73,1.51,13.69,3.07,15.99,10.07,2.96,8.98-3.36,17.23-8.94,24.5-.79,1.03-1.55,2.03-2.27,3-1.61,2.18-3.26,4.33-4.91,6.48-5.24,6.83-10.65,13.88-14.58,21.8-3.55,7.16-6.5,15.03-8.81,23.45.18-1.42.35-2.84.53-4.26,1.44-11.91,3.17-24.69,6.08-37.48,1.54-6.75,3.27-13.57,4.95-20.17l.08-.31c.1-.41-.13-.81-.54-.92-.4-.11-.82.11-.94.52-4.39,14.26-7.1,25.39-8.8,36.07-1.51,9.51-2.68,19.23-3.8,28.63-.34,2.81-.67,5.62-1.02,8.43-.27,2.21-.45,4.47-.62,6.66-.07.89-.14,1.78-.22,2.67-.13-8.41.38-16.9.9-25.19Zm-35.6,98.19c-7.89,9.69-13.05,21.29-18.04,32.5l-1.23,2.76c-5.27,11.82-10.71,24.04-19.22,33.9-4.55,5.28-10.89,11.41-19.5,11.99-7.71.52-16.08-2.41-24.86-8.71-3.5-2.51-7.43-5.51-9.74-9.35-.42-.71-.83-1.43-1.23-2.16-1.57-2.83-3.19-5.76-6.14-7.59-.79-.49-1.65-.8-2.48-1.09-.44-.15-.87-.31-1.29-.49-1.37-.59-2.71-1.24-4.06-1.89-.84-.4-1.67-.81-2.51-1.19-3.43-1.59-7.84-3.86-11.52-7.35-4.05-3.85-7.78-8.07-11.08-12.53-1.53-2.07-2.98-4.25-4.31-6.49-1.07-1.79-1.72-3.67-2.4-5.67l-.31-.91c-.58-1.67-1.31-3.42-2.65-4.96-.87-.99-1.91-1.78-2.91-2.53-.77-.58-1.49-1.13-2.15-1.76-3.7-3.57-6.46-7.51-7.99-11.39-2.76-7.03-1.68-15.07,3.3-24.59,3.56-6.8,8.42-12.57,14.45-17.17,10.5-8,24.79-13.18,42.49-15.4,13.86-1.74,28.9-1.56,46,.54,10.06,1.24,21.71,2.87,32.71,6.7,4.99,1.74,9.74,4.16,14.35,7.28-.66.56-1.09,1.39-1.09,2.33,0,1.69,1.37,3.07,3.07,3.07,1.26,0,2.35-.77,2.82-1.86.64.51,1.27,1.04,1.9,1.58-.65.61-1.05,1.46-1.05,2.42,0,1.83,1.49,3.32,3.32,3.32,1.05,0,1.98-.5,2.58-1.26,1.08,1.06,2.17,2.12,3.24,3.19-4.63-1.46-9.34-2.65-13.93-3.8-2.74-.69-5.58-1.4-8.35-2.16-1.85-.51-3.7-1.02-5.55-1.54-7.39-2.07-15.03-4.2-22.73-5.63-7.7-1.42-15.9-2.1-25.2-2.05-8.72.04-15.84.71-22.4,2.11-9.24,1.97-16.36,5.29-21.76,10.15-.35.31-.37.83-.06,1.18.32.36.85.39,1.21.08h0c11.27-9.98,28.08-11.34,41.47-11.41,9.07-.03,17,.55,24.24,1.83,9,1.59,17.83,4.12,26.85,6.79,1.24.37,2.47.74,3.7,1.11.11.03.22.06.32.1-9.83-1.05-19.95-1.02-30.1.11-22.8,2.55-41.52,9.46-55.64,20.55-4.24,3.33-7.95,6.99-11.01,10.87-3.75,4.75-6.09,8.78-7.37,12.66-.16.47.07.97.53,1.17.13.06.27.09.41.09.34,0,.66-.18.84-.48l.51-.89c2.06-3.59,4-6.98,6.6-10.13,2.64-3.2,5.76-6.23,9.25-9,6.7-5.32,14.96-9.84,24.54-13.45,17.61-6.64,37.9-9.5,58.67-8.28,6.18.36,12.05,1.09,17.59,2.15-.96.13-1.93.28-2.95.49-5.15,1.04-10.6,2.96-16.65,5.87-10.36,4.98-22.1,10.63-31.96,18.16-5.81,4.44-10.24,9.07-13.53,14.14-.25.38-.14.87.23,1.12.15.1.31.15.47.15.26,0,.52-.13.69-.36,6.82-9.87,17.48-16.58,27.02-21.85,4.74-2.62,9.68-5.06,14.46-7.43l.47-.23c3.1-1.53,6.62-3.19,10.41-4.59.27.28.64.46,1.06.46.76,0,1.38-.59,1.44-1.34.8-.26,1.61-.51,2.43-.74,5.59-1.57,10.18-2.04,14.09-1.47-.2.62-.31,1.29-.31,1.98,0,3.59,2.91,6.49,6.49,6.49,3.34,0,6.1-2.53,6.45-5.78,3.39,1.86,6.04,5.04,7.47,8.39-13.15,2.29-24.51,8.9-32.87,19.18Zm30.95-34.62c.43.22.9.35,1.41.35.15,0,.3-.02.44-.04,0,.01,0,.03,0,.04-.14,1.31-.36,2.84-.7,4.39-.33-1.58-.72-3.16-1.14-4.74Zm1.41-5.92c-1.14,0-2.12.61-2.67,1.52-.64-2.09-1.3-4.18-1.97-6.23l-.1-.3c-.7-2.16-1.43-4.22-2.18-6.23-.03-.95-.3-1.84-.75-2.61.48-.99.76-2.11.76-3.28,0-3.54-2.43-6.5-5.71-7.33-4.49-8.94-10.15-17.28-16.87-24.83-15.43-17.34-35.35-29.97-52.8-40.04-6.04-3.49-12.14-6.68-18.12-9.49-5.79-2.72-10.73-4.79-15.98-6.1-.4-.1-.79.11-.92.51-.12.39.08.81.46.96,18.78,7.18,38.1,17.83,59.06,32.54,19.66,13.8,33.58,28.93,42.55,46.25-3.83.38-6.82,3.61-6.82,7.54,0,2.9,1.63,5.41,4.02,6.68.3,2.8,2.67,4.98,5.55,4.98,1.84,0,3.48-.9,4.49-2.28.16.46.33.92.49,1.39,1.09,3.2,2.11,6.49,3.12,10.08.39,1.4.75,2.81,1.1,4.23.48,1.9.99,3.85,1.57,5.77-.03.04-.04.08-.07.12-1.18-1.1-2.52-2.04-3.94-2.82,1.13-.78,1.88-2.08,1.88-3.56,0-2.39-1.94-4.32-4.32-4.32-1.83,0-3.39,1.14-4.02,2.75-.39-.07-.8-.12-1.21-.12-1.03,0-2,.25-2.86.67-.42-.44-.83-.88-1.25-1.32-1.62-1.74-3.27-3.49-4.95-5.22-.25-1.33-1.29-2.37-2.62-2.63-2.78-2.71-5.7-5.3-8.86-7.58-6.12-4.4-13.04-7.28-19.6-9.3-2.61-1.7-5.06-3.82-7.45-5.92-1.48-1.3-2.88-2.53-4.32-3.67-6.6-5.19-14.33-9.11-21.81-12.9l-.26-.13c-7.04-3.56-15.46-7.54-24.64-9.97-8.99-2.39-18.33-3.75-26.56-4.96l-3.43-.49c-5.75-.82-11.69-1.67-17.4-3.04-4.78-1.15-10.25-2.78-14.53-6.16-4.32-3.41-5.81-8.33-4.21-13.86.76-2.61,2.11-4.87,3.54-7.26.5-.84,1.01-1.69,1.49-2.55,1.35-2.43,2.15-5,2.94-7.5.34-1.09.68-2.18,1.07-3.27,5.03-14.11,16.67-24.7,31.95-29.04,8.31-2.36,16.49-3.23,23.64-2.52,4.48.45,8.84,1.75,12.61,3.76,1.35.72,2.66,1.58,3.94,2.41,1.76,1.14,3.57,2.33,5.54,3.2,4.81,2.13,9.66,1.44,14.36.77,2.97-.42,6.04-.86,9.05-.57,4.57.44,9.14,2.04,12.61,3.4,4.59,1.79,8.54,3.61,12.06,5.57,14.25,7.94,22.75,22.16,28.56,33.66,7.55,14.94,10.4,31.76,12.37,47.71.09.75.2,1.51.29,2.26-.47-.28-1.01-.45-1.59-.45-1.74,0-3.15,1.41-3.15,3.15s1.41,3.15,3.15,3.15c.89,0,1.69-.37,2.26-.96.04.32.09.64.13.96,1.15,8.21,2.33,16.65,2.18,24.95-.26-.07-.53-.12-.81-.12ZM76.3,54.74h0,0Zm260.19,209.03l-.3,1.09c-1.11,4.08-.83,7.89-.52,11.91.11,1.51.23,3.07.27,4.63.1,4.38-1.06,8.8-3.44,13.13-3.91,7.13-10.39,13.54-19.25,19.05-8.13,5.05-16.84,7.81-25.9,8.22-9.95.43-19.91-1.39-28.82-5.31-4.83-2.12-8.24-4.46-11.06-7.56-.58-.64-1.15-1.29-1.72-1.95-2.2-2.55-4.48-5.18-7.5-6.87-3.7-2.07-7.86-1.86-11.88-1.67l-.85.04c-5.29.23-9.12-.49-12.8-2.45-5.97-3.17-10.64-9.21-13.5-17.46-2.34-6.75-3.78-14.2-4.04-20.99-.18-4.62.41-9.37.98-13.96l.19-1.58c.42-3.48.89-6.95,1.35-10.43.47-3.5.93-7.01,1.36-10.51.8-6.61,1.56-13.68,1.64-20.67.07-5.37-.05-10.98-2.19-15.52-.41-.87-.91-1.64-1.47-2.32,1.48-.17,2.64-1.41,2.64-2.94,0-1.64-1.33-2.98-2.98-2.98-.96,0-1.8.46-2.35,1.17-.19-.4-.4-.79-.63-1.17,1.01-.85,2.07-1.63,3.17-2.37,3.11.14,6.28.75,9.39,1.35l1.45.28s.05.01.08.02c-.05.26-.08.53-.08.8,0,.57.12,1.12.33,1.62-.3-.12-.63-.19-.97-.19-1.51,0-2.73,1.22-2.73,2.73s1.22,2.73,2.73,2.73,2.73-1.22,2.73-2.73c0-.21-.03-.42-.08-.61.63.38,1.36.61,2.15.61,1.87,0,3.43-1.24,3.96-2.94,3.15,1.02,5.98,2.25,8.68,3.79.3.17.59.35.88.52.45.76,1.24,1.27,2.17,1.33,9.13,5.86,17.01,13.95,24,24.65,3.13,4.79,6.02,9.84,8.82,14.73.7,1.23,1.41,2.46,2.12,3.69.14.24.38.37.64.37.12,0,.24-.03.36-.09l.61-.43-.3-.57c-.63-1.22-1.26-2.45-1.9-3.67-5.4-10.49-10.98-21.34-19.09-30.29-3.44-3.8-7.61-7.33-12.41-10.53.04-.18.06-.37.06-.56,0-1.51-1.22-2.73-2.73-2.73-.64,0-1.22.23-1.68.59-3.33-1.89-6.93-3.39-10.87-4.52-.76-1.01-1.95-1.67-3.31-1.67-.66,0-1.28.17-1.83.44-.31-.06-.61-.13-.92-.18l-1.41-.26c-1.54-.28-3.11-.56-4.7-.79,10.69-2.79,21.74-5.64,32.73-5.33,0,0,.02,0,.02,0,0,0,.01,0,.02,0,.05,0,.09,0,.14,0,12.19.37,24.13,5.74,36.51,16.41,9.41,8.11,16.94,18,22.46,25.71,8.11,11.34,14.97,22.98,20.38,34.59,4.81,10.3,10.35,23.91,10.57,37.87,0,.42.35.77.77.77h.01c.42,0,.77-.33.79-.75.59-11.87-3.74-23.74-8.05-33.8-5.11-11.91-11.95-24.12-20.33-36.3-8.27-12.01-15.7-20.89-23.38-27.93-11.53-10.57-23.25-16.73-34.84-18.3-.69-.09-1.38-.17-2.06-.24.17-.4.27-.83.27-1.29,0-1.11-.56-2.09-1.41-2.68.3-.05.6-.1.9-.15,15.9-2.37,33.44-.28,49.38,5.88,9.02,3.48,16.56,8.25,22.41,14.16,6.26,6.32,11.56,14.83,16.22,25.99,3.5,8.38,6.27,17.63,8.99,30.01.23,1.04.47,2.09.71,3.14.96,4.16,1.96,8.47,2.15,12.69.18,3.96-.83,7.63-1.91,11.53Z"/>
      <path class="cls-1" d="m221.47,132.43c-2.31,0-4.19,1.87-4.19,4.18s1.87,4.19,4.19,4.19,4.19-1.87,4.19-4.19-1.87-4.18-4.19-4.18Z"/>
      <circle class="cls-1" cx="213.12" cy="151.68" r="3.3"/>
      <path class="cls-1" d="m201.15,128.3c-1.77,0-3.21,1.44-3.21,3.21s1.44,3.21,3.21,3.21,3.21-1.44,3.21-3.21-1.44-3.21-3.21-3.21Z"/>
      <path class="cls-1" d="m165.14,148.38c1.29,0,2.34-1.05,2.34-2.34s-1.05-2.34-2.34-2.34-2.34,1.05-2.34,2.34,1.05,2.34,2.34,2.34Z"/>
      <path class="cls-1" d="m226.63,128.3c-.89,0-1.61.72-1.61,1.61s.72,1.61,1.61,1.61,1.61-.72,1.61-1.61-.72-1.61-1.61-1.61Z"/>
      <path class="cls-1" d="m229.62,167.44c-1.11,0-2.06.63-2.55,1.54-.85-.94-2.06-1.54-3.42-1.54-2.55,0-4.62,2.07-4.62,4.62s2.07,4.62,4.62,4.62c2.27,0,4.15-1.65,4.54-3.81.43.24.91.39,1.43.39,1.61,0,2.91-1.3,2.91-2.91s-1.3-2.91-2.91-2.91Z"/>
      <path class="cls-1" d="m182.35,119.59c-1.19,0-2.16.97-2.16,2.16s.97,2.16,2.16,2.16,2.16-.97,2.16-2.16-.97-2.16-2.16-2.16Z"/>
      <path class="cls-1" d="m169.75,131.52c1.25,0,2.27-1.02,2.27-2.27s-1.02-2.27-2.27-2.27-2.27,1.02-2.27,2.27,1.02,2.27,2.27,2.27Z"/>
      <path class="cls-1" d="m160.95,140.8c1.16,0,2.09-.94,2.09-2.09s-.94-2.09-2.09-2.09-2.09.94-2.09,2.09.94,2.09,2.09,2.09Z"/>
      <path class="cls-1" d="m212.22,116.95c-1.33,0-2.4,1.08-2.4,2.41s1.08,2.4,2.4,2.4,2.4-1.08,2.4-2.4-1.08-2.41-2.4-2.41Z"/>
      <path class="cls-1" d="m211.07,129.91c-.69,0-1.26.56-1.26,1.26s.56,1.26,1.26,1.26,1.26-.56,1.26-1.26-.56-1.26-1.26-1.26Z"/>
      <path class="cls-1" d="m236.38,136.61c-.67,0-1.2.54-1.2,1.2s.54,1.2,1.2,1.2,1.2-.54,1.2-1.2-.54-1.2-1.2-1.2Z"/>
      <path class="cls-1" d="m170.88,176.75c-.63,0-1.13.51-1.13,1.14s.51,1.14,1.13,1.14,1.14-.51,1.14-1.14-.51-1.14-1.14-1.14Z"/>
      <path class="cls-1" d="m162.68,173.27c-2.11,0-3.82,1.71-3.82,3.82s1.71,3.82,3.82,3.82,3.82-1.71,3.82-3.82-1.71-3.82-3.82-3.82Z"/>
      <path class="cls-1" d="m161.39,185.47c-.78,0-1.41.63-1.41,1.41s.63,1.41,1.41,1.41,1.41-.63,1.41-1.41-.63-1.41-1.41-1.41Z"/>
    </g>
  </g>
</svg>