<?xml version="1.0" encoding="UTF-8"?>
<svg id="Layer_2" data-name="Layer 2" xmlns="http://www.w3.org/2000/svg" viewBox="0 0 288.93 726.17">
  <defs>
    <style>
      .cls-1 {
        fill: #231f20;
      }
    </style>
  </defs>
  <g id="Layer_1-2" data-name="Layer 1">
    <path class="cls-1" d="m284.5,56.93c1.41-4.79-2.29-9.87-4.55-13.84-.12-.21-.29-.33-.46-.4.65-4.9.11-9.92-1.96-14.41-2.16-4.69-5.62-8.53-9.85-11.45-2.23-1.54-4.6-2.7-7.19-3.48-2.49-.74-5.05-1.16-7.54-1.89-2.57-.75-4.61-1.95-6.55-3.78-1.82-1.73-3.51-3.52-5.59-4.94-4.16-2.83-8.97-3.27-13.8-2.25-4.52.96-8.83,3.19-13.44,3.68-2.23.24-4.4-.48-6.55-.98-2.32-.55-4.68-.81-7.02-.22-5.2,1.31-8.27,6.17-10.71,10.55-.26.46-.5.93-.73,1.4-1.68-1.14-4.16-1.41-6.02-1.5-1.72-.08-3.34.07-4.95.73-.84.34-1.83.92-2.77.87-.77-.04-1.47-.56-2.12-.93-2.78-1.6-5.83-2-8.58-.07-2.36,1.66-3.73,4.3-4.65,6.96-2.01,5.8-2.43,12.65-.68,18.56,1.31,4.43,3.6,8.53,5.94,12.49,2.52,4.27,5.12,8.48,7.57,12.79,5.44,9.58,10.19,19.75,11.4,30.8-.08.06-.15.12-.23.17-.86.58-.64,1.65-.02,2.14-10.37,16.24-18.35,33.69-25.58,51.6-8.22,20.36-15.87,40.99-22.77,61.83-7.32,22.09-13.74,44.52-18.49,67.31,1.1-9.91,2.32-19.81,3.63-29.7,1.49-11.21,3.12-22.4,4.32-33.64,2.48-23.12,2.41-46.33-1.36-69.32-1-6.09-2.24-12.15-3.3-18.23-.46-2.68-.97-5.35-1.59-8,.85-.39,1.7-.78,2.55-1.17,1.63-1.05,2.91-2.43,3.82-4.14.01-.02.03-.04.04-.07.74-1.27,1.12-2.63,1.14-4.07.27-1.46.16-2.91-.34-4.35-.39-1.47-1.11-2.73-2.16-3.79-.83-1.18-1.9-2.09-3.23-2.73-.88-.33-1.76-.66-2.64-.99-1.94-.45-3.86-.38-5.77.19-.9.41-1.79.83-2.69,1.24-1.63,1.05-2.91,2.43-3.82,4.14-.01.02-.02.05-.03.07-.74,1.27-1.11,2.63-1.14,4.06-.27,1.46-.16,2.91.34,4.34.39,1.47,1.11,2.73,2.16,3.79.83,1.18,1.9,2.09,3.22,2.72.88.33,1.76.66,2.64.99,1.7.39,3.39.37,5.07-.03.4,2.03.74,4.07,1.06,6.1.83,5.34,1.7,10.67,2.61,16,1.99,11.65,2.69,23.49,3.13,35.29.6,16-.86,31.94-2.8,47.81.2-13.61-1.91-27.15-6.76-39.91-3.89-10.25-8.54-20.33-14.55-29.53-6.65-10.18-15.28-19.79-26.92-24.12-.7-.26-1.71.25-2.01.91-4.52,9.96-6.78,20.87-7.2,31.78-.45,11.58,1.65,23.03,5.53,33.93,8.04,22.62,22.03,42.64,34.07,63.22,3.24,5.54,6.31,11.23,8.26,17.36,1.45,4.55,2.13,9.22,1.96,13.93-.03.36-.05.71-.09,1.07-2.97,17.67-4.81,35.48-5.84,53.4-1.72,29.59-1.28,59.21,1.37,88.66-3.14-14.19-6.29-28.37-9.88-42.45-3.97-15.57-8.56-31.06-14.28-46.09-5.59-14.7-11.41-29.35-18.43-43.44-3.49-7-6.78-14.11-10.35-21.07-1.91-3.72-3.95-7.38-6.25-10.87,2.8-2.69,4.22-6.87,2.87-10.64-1.91-5.35-7.48-8.66-13.09-6.94-5.24,1.61-8.84,7.76-6.94,13.09,1.91,5.35,7.48,8.66,13.09,6.94,1.28-.39,2.47-1.06,3.5-1.93,1.71,2.94,3.26,5.98,4.75,9.02,3.08,6.28,5.78,12.73,8.7,19.09,6.47,14.06,12.12,28.36,17.23,42.96,5.31,15.18,10.18,30.44,14.21,46.01,3.97,15.37,7.52,30.84,10.97,46.34,1.94,8.73,3.85,17.46,5.92,26.16.71,2.99,1.46,5.98,2.22,8.96.4,2.65.82,5.29,1.26,7.93-2.1-4.74-4.22-9.48-6.09-14.32-5.92-15.31-11.52-30.75-17.7-45.95-6.13-15.09-12.97-29.81-20.83-44.09-7.56-13.75-14.68-28.3-25.59-39.78-11.24-11.82-26.12-19.14-38.8-29.18-.89-.7-2.37-.44-2.62.8-3.12,15.9-4.46,32-1.49,48.03,2.98,16.12,9.62,31.79,17.38,46.16,7.89,14.62,17.48,28.31,28.4,40.83,11.22,12.85,24.33,23.72,37.09,34.98,7,6.18,13.84,12.53,20.43,19.15,5.99,6.02,11.83,12.25,16.9,19.08,7.81,33.86,18.57,67.04,31.75,99.18,3.67,8.94,7.37,18.01,11.27,27.03-2.82-4.38-5.68-8.73-8.57-13.07-7.63-11.47-15.29-22.93-23.29-34.15-7.98-11.19-16.37-22.05-25.49-32.34-9.2-10.38-18.9-20.31-28.77-30.05-4.43-4.37-8.53-9.07-12.92-13.48-1.4-1.4-2.83-2.76-4.32-4.06.07-.13.15-.26.22-.4.87-1.5,1.31-3.09,1.34-4.78.32-1.72.19-3.42-.4-5.11-.49-1.05-.97-2.11-1.46-3.16-1.24-1.92-2.86-3.42-4.87-4.5-1.04-.39-2.07-.78-3.11-1.17-2.28-.53-4.54-.45-6.78.23-1.73.46-3.21,1.31-4.45,2.54-1.38.97-2.45,2.24-3.21,3.79-.86,1.5-1.31,3.09-1.34,4.78-.32,1.72-.19,3.42.4,5.11.49,1.05.97,2.11,1.46,3.16,1.24,1.92,2.86,3.42,4.87,4.5,1.04.39,2.07.78,3.11,1.17,2.28.53,4.54.45,6.78-.23,1.73-.46,3.21-1.31,4.45-2.54.9-.63,1.64-1.39,2.28-2.27,1,.94,1.97,1.9,2.93,2.87,3.92,3.96,7.52,8.22,11.34,12.27,4.5,4.78,9.19,9.39,13.66,14.2,4.66,5.02,9.24,10.11,13.71,15.3,17.97,20.85,33.17,43.83,48.56,66.58,4.2,6.21,8.42,12.41,12.48,18.71-3.8-5.12-7.77-10.11-12.02-14.87-5.02-5.63-10.49-10.86-15.94-16.07-5.22-5-10.58-9.87-16.26-14.34-5.55-4.36-11.41-8.37-17.63-11.72-6.6-3.56-13.64-6.19-20.56-9.06-14.93-6.18-29.47-13.11-41.68-23.91-1.36-1.2-3.28.14-2.88,1.82,7.19,29.93,15.26,60.53,34.28,85.41,9.59,12.54,21.51,22.84,34.99,31.01,13.57,8.22,28.31,14.27,43.4,19.08,15.88,5.06,32.08,8.51,48.43,11.57.82.39,1.65.78,2.47,1.16,2.82,3.74,5.78,7.38,8.9,10.9,2.99,3.37,6.15,6.58,9.48,9.61,2.78,2.53,6.76-1.77,3.96-4.3-6.01-5.46-11.39-11.51-16.32-17.93-.39-12.59.57-25.07,3.52-37.39,3.01-12.58,7.76-24.65,11.68-36.96,4-12.54,6.85-25.23,6.66-38.46-.21-14.98-2.54-29.69-7.66-43.8-2.41-6.65-5.65-12.96-8.41-19.46-2.75-6.49-5.45-13.41-5.52-20.56-.01-1.23-1.98-1.48-2.19-.22-3.81,23.1-15.22,44.01-23.06,65.85-3.98,11.08-7,22.41-8.06,34.16-1.14,12.69-1.01,25.56.87,38.18.17,1.16.37,2.32.57,3.48-.26-.58-.53-1.15-.79-1.73-1.09-3.76-2.13-7.54-3.05-11.36-2.02-8.4-3.44-16.93-4.15-25.54-.7-8.56-.56-17.11-.63-25.69-.07-8.01-.08-16.02.46-24.01.35-5.21.89-10.44,1.82-15.58,1.94.36,3.87.27,5.78-.31.99-.45,1.98-.91,2.96-1.36,1.8-1.16,3.2-2.68,4.21-4.56.3-.44.49-.94.57-1.49.24-.48.42-.98.56-1.49.01-.03.02-.07.03-.1.11-1.04.21-2.08.32-3.13-.18-1.07-.35-2.14-.53-3.21-.45-.98-.91-1.97-1.36-2.95-.82-1.4-1.92-2.5-3.28-3.3-.78-.71-1.69-1.19-2.72-1.44-.94-.5-1.95-.73-3.01-.7-1.06-.25-2.12-.21-3.17.11-1.65.13-3.16.67-4.55,1.63-1.94,1.36-3.2,2.59-4.34,4.69-.81,1.4-1.23,2.89-1.25,4.48-.3,1.61-.18,3.2.37,4.79.43,1.62,1.22,3.01,2.38,4.17.91,1.3,2.1,2.3,3.55,3,.72.27,1.44.54,2.17.81-2.88,11.89-3.49,24.3-3.84,36.5-.24,8.49-.51,17.04-.09,25.53.37,7.47,1.36,14.92,2.79,22.27-.67-1.58-1.34-3.15-2-4.73-9.85-23.47-18.67-47.26-26.1-71.5.55-15.05,8.55-28.93,15.86-41.7,7.84-13.71,16.28-27.07,24.01-40.84,7.6-13.53,14.34-27.65,18.28-42.72,4.12-15.74,4.76-32.28,4.63-48.48-.13-16.68-1.19-33.51-4.49-49.89-.38-1.9-.8-3.78-1.24-5.67-.26-1.1-2.02-1.29-2.48-.24-11.11,25.57-29.21,46.95-43.62,70.59-3.58,5.88-6.94,11.91-9.87,18.14-3.01,6.39-5.38,12.96-7.58,19.66-4.73,14.37-9.55,28.9-10.79,44.06-.05.61-.07,1.22-.11,1.83-.04-.4-.09-.79-.13-1.19-.38-3.96-.59-7.94-.78-11.92-.43-9.02-.83-18.03-.25-27.05,1.51-23.5,8.27-46.45,17.69-67.94,3.9-8.89,8.12-17.66,12.71-26.22.59.22,1.18.45,1.78.67,2.15.5,4.28.43,6.39-.22,1.63-.43,3.03-1.23,4.2-2.39,1.31-.92,2.31-2.11,3.02-3.57.82-1.41,1.24-2.91,1.26-4.51.3-1.62.18-3.22-.38-4.82-.46-.99-.92-1.99-1.37-2.98-1.16-1.81-2.69-3.22-4.59-4.24-.98-.37-1.95-.73-2.93-1.1-2.15-.5-4.28-.43-6.39.22-1.63.43-3.03,1.23-4.2,2.39-1.31.92-2.31,2.11-3.02,3.57-.82,1.41-1.24,2.91-1.26,4.51-.3,1.62-.18,3.22.38,4.82.46.99.92,1.99,1.37,2.98,1.08,1.67,2.48,2.99,4.18,3.98-4.6,7.05-8.85,14.29-12.67,21.84-5.49,10.85-9.97,22.33-13.44,33.98-3.49,11.7-5.85,23.7-6.93,35.87-.14,1.55-.24,3.09-.32,4.64-2.51-24.48-3.52-49.1-3.03-73.7.09-4.38.23-8.76.41-13.14.11-.1.2-.23.23-.42,1.03-7.33,3.69-14.26,7.67-20.49,4.06-6.36,9.48-11.14,15.19-15.97,6.52-5.52,13.17-10.91,20.13-15.87,6.5-4.63,13.37-8.59,20.33-12.47,6.93-3.87,13.91-7.74,20.26-12.52,6.24-4.7,11.33-10.24,16.04-16.44,8.78-11.57,16.15-24.17,20.36-38.14,5.44-18.05,4.89-37.11,7.81-55.6.18-1.14-1.1-2.39-2.2-1.56-10.28,7.73-18.06,17.93-26.73,27.29-4.49,4.85-9.32,9.19-14.57,13.19-5.64,4.29-11.46,8.33-17.23,12.44-10.63,7.56-20.84,15.56-29.86,25.02-8.25,8.65-15.56,18.2-21.56,28.55-3.49,6.03-6.56,12.35-9.02,18.89,1.13-6.2,2.4-12.37,3.77-18.52,1.22-3.43,2.56-6.82,3.88-10.2,3.4-8.74,7.45-17.22,11.94-25.45,9.01-16.51,19.74-32.15,31.15-47.08,4.48-5.87,9.13-11.63,14.33-16.87.39.28.79.54,1.22.77l2.43.91c1.78.41,3.55.35,5.3-.18,1.35-.36,2.51-1.02,3.48-1.98,1.08-.76,1.92-1.75,2.5-2.96.68-1.17,1.02-2.41,1.05-3.73.25-1.34.15-2.67-.31-3.99-.38-.82-.76-1.65-1.14-2.47-.96-1.5-2.23-2.67-3.8-3.51l-2.43-.91c-1.78-.41-3.55-.35-5.3.18-1.35.36-2.51,1.02-3.48,1.98-1.08.76-1.92,1.75-2.5,2.96-.68,1.17-1.02,2.41-1.05,3.73-.25,1.34-.15,2.67.31,3.99.38.82.76,1.65,1.14,2.47.53.82,1.16,1.53,1.87,2.16-11.42,10.59-20.77,23.27-29.75,35.97-10.38,14.69-19.6,30.32-26.67,46.88,1.94-7.57,4.02-15.11,6.23-22.6,6.28-21.32,13.67-42.25,21.28-63.12,7.46-20.48,15.34-40.96,25.93-60.05,1.31-2.37,2.6-4.72,3.94-7.06.25.03.53-.03.81-.22.22-.15.42-.32.64-.47,4.13-.12,8.19-1.28,12.35-1.31,4.97-.03,9.96,1.08,14.9,1.55,9.92.94,19.77.28,29.59-1.37,9.51-1.59,18.86-4.35,27.27-9.15,6.5-3.71,12.45-8.46,16.32-14.95,1.63-2.74,3.18-6.05,2.99-9.32-.17-2.91-1.89-5-4.41-6.03Zm-128.69,634.27c-14.86-4.63-29.46-10.35-43.06-17.97-13.64-7.65-26.09-17.36-36.11-29.42-9.51-11.45-16.71-24.63-22.21-38.41-5.73-14.36-9.88-29.35-13.35-44.42,9.78,7.95,20.95,13.74,32.55,18.71,6.83,2.93,13.84,5.51,20.59,8.63,6.47,2.99,12.64,6.66,18.41,10.85,5.83,4.22,11.3,8.92,16.59,13.8,5.47,5.05,10.89,10.21,16.05,15.57,10.68,11.08,19.48,23.75,28.11,36.44,4.02,5.91,7.99,11.85,12.07,17.72,3.77,6.5,7.81,12.82,12.19,18.89-6.23-2.77-12.38-5.67-18.43-8.83-9.12-4.77-18.07-9.87-26.79-15.33-17.58-11.02-34.42-23.59-48.97-38.43-3.95-4.03-7.71-8.24-11.21-12.67-3.31-4.19-6.7-8.53-9.45-13.11-.29-.49-1.04-.01-.75.48,2.51,4.18,4.95,8.31,7.9,12.22,2.96,3.92,6.11,7.69,9.42,11.31,6.93,7.6,14.52,14.54,22.52,20.98,16.32,13.15,34.3,24.21,52.81,33.97,5.9,3.11,11.85,6.14,17.85,9.09-12.32-3.05-24.62-6.28-36.74-10.05Zm19.39-81.3c.84-11.72,3.44-23.04,7.21-34.15,3.76-11.08,8.46-21.8,12.76-32.67,3.79-9.58,7.35-19.37,9.75-29.42.76,3.79,2.03,7.51,3.4,11.09,2.32,6.05,5.12,11.89,7.56,17.89,5.46,13.39,7.85,27.79,8.21,42.2.17,6.93-.09,13.79-1.19,20.65-1.02,6.33-2.63,12.54-4.5,18.66-3.8,12.44-8.65,24.53-11.95,37.12-3.25,12.41-4.4,25.11-3.38,37.8-2.75-3.82-5.35-7.75-7.83-11.75-5.08-13.61-6.76-28.62-5.96-42.96.62-11.14,3.01-21.76,6.26-32.4,3.06-9.99,6.26-19.89,7.6-30.29,1.46-11.26,1.65-22.99,5.52-33.79.24-.66-.83-.9-1.06-.25-3.54,9.87-4.16,20.27-5.33,30.61-.59,5.19-1.42,10.31-2.69,15.38-1.3,5.18-2.91,10.27-4.49,15.37-3.27,10.51-5.99,20.95-6.91,31.95-.92,10.99-.45,22.12,1.8,32.93.58,2.81,1.31,5.57,2.14,8.28-1.24-2.1-2.45-4.22-3.63-6.34-3.46-6.21-6.69-12.53-9.78-18.92-3.86-15.27-4.62-31.43-3.5-46.98Zm-65.78-343.08c-2.49-5.22-5.39-10.22-8.18-15.29-2.81-5.1-5.61-10.2-8.54-15.22-11.89-20.37-24.31-42.03-25.02-66.23-.34-11.63,1.57-23.6,6.1-34.36,9.26,3.89,16.47,11.79,22.06,19.91,6.12,8.9,10.84,18.73,14.77,28.77,2.41,6.15,4.35,12.44,5.58,18.94,1.31,6.89,1.82,13.92,1.9,20.92.13,11.93-1.48,23.74-2.15,35.63-.24,4.32-.48,8.65-.73,12.97-.99-8.48-2.63-16.89-4.65-25.18-1.91-7.86-4.15-15.68-6.94-23.28-1.36-3.69-3.02-7.24-4.57-10.85-2.39-5.54-4.61-11.17-6.64-16.86-4.6-12.91-7.71-26.16-10.28-39.6-.11-.57-1.03-.4-1,.16.7,11.91,3.92,23.62,7.65,34.91,1.91,5.78,4.03,11.48,6.39,17.09,1.82,4.32,3.91,8.53,5.71,12.86,2.94,7.09,5.18,14.47,7.13,21.89,2.26,8.58,4.11,17.28,5.31,26.07.49,3.57.95,7.27,1.16,10.97-1.05-4.88-2.87-9.65-5.06-14.23Zm0,229.8c-5.34-6.17-11.12-11.91-17.05-17.51-12.16-11.47-25.1-22.17-36.58-34.33-11.37-12.04-21.32-25.43-29.68-39.72-8.13-13.89-15.11-28.8-19.28-44.39-4.5-16.82-4.06-34.03-1.05-51.02,10.76,8.08,22.74,14.51,32.78,23.53,11.53,10.37,19.23,24.24,26.77,37.58,3.92,6.94,7.9,13.82,11.48,20.94,3.69,7.35,7.1,14.83,10.34,22.38,6.49,15.12,12.29,30.52,18.23,45.86,3.17,8.19,6.75,16.16,10.27,24.2.37,2.11.74,4.23,1.14,6.34-1.89-3.12-3.95-6.13-6.09-9.04-6.64-9.03-14.21-17.31-21.42-25.88-7.07-8.4-13.44-17.36-19.84-26.26-7.04-9.78-13.89-19.74-19.97-30.15-6.55-11.24-12.3-23.17-15.32-35.88-.09-.38-.68-.2-.59.18,5.4,22.74,18.58,43.02,31.99,61.81,6.38,8.94,12.76,18,19.72,26.5,7.16,8.75,14.86,17.05,21.81,25.98,3.63,4.67,7.14,9.56,10.09,14.73,1.26,6.63,2.65,13.24,4.14,19.83-3.71-5.42-7.59-10.72-11.89-15.68Zm12.19-15.97c.49-15.19,5.02-29.94,9.79-44.25,2.32-6.96,4.57-13.92,7.56-20.63,2.81-6.3,6.07-12.39,9.6-18.32,6.97-11.7,14.96-22.75,22.67-33.96,8.01-11.65,15.78-23.58,21.72-36.43,3.29,14.9,4.89,30.26,5.32,45.49.24,8.34.15,16.7-.3,25.03-.44,8.14-1.24,16.22-3.02,24.19-3.42,15.3-9.86,29.66-17.35,43.37-7.58,13.86-16.09,27.2-23.96,40.91-7.34,12.8-15.31,26.36-17.1,41.28-1.22-8.95-2.04-17.95-2-26.99.06-11.43,1.51-22.82,4.61-33.83,3.16-11.22,8.04-21.91,13.05-32.4,5.03-10.52,10.37-20.9,15.15-31.54,5.28-11.74,9.9-23.86,12.49-36.5.14-.66-.89-.91-1.03-.24-4.74,23.16-16.05,44.13-26.22,65.24-4.93,10.24-9.75,20.63-13.22,31.47-3.47,10.83-5.34,22.1-5.77,33.45-.33,8.52.11,17.05.97,25.53-4.21-14.61-7.91-29.39-10.98-44.36-.69-3.35-1.33-6.7-1.96-10.06-.08-2.14-.1-4.29-.04-6.45Zm26.76-237.05c8.72-9.43,18.55-17.5,29.01-24.93,10.87-7.73,22.44-14.87,31.97-24.29,9.24-9.13,16.91-20.15,27.1-28.3-2.38,15.4-2.19,31.14-5.87,46.36-3.47,14.33-10.31,27.32-19.06,39.11-4.68,6.31-9.59,12.33-15.8,17.2-6.12,4.8-12.88,8.73-19.66,12.52-6.88,3.85-13.79,7.62-20.3,12.08-7.03,4.81-13.65,10.16-20.11,15.7-6.43,5.51-12.65,11.08-17.16,18.32-2.44,3.92-4.35,8.15-5.74,12.55.92-9.13,2.92-18.11,6.2-26.72,4.32-11.35,10.6-21.87,18.32-31.24,8.68-10.54,18.95-19.57,30.17-27.32,12.6-8.71,26.55-16.51,36.53-28.38,2.66-3.16,4.99-6.59,7.18-10.08,1.89-3,3.87-5.99,5.25-9.28,1.29-3.06,2.34-6.21,3.66-9.25,1.15-2.65,2.53-5.77,5.07-7.37.65-.41.01-1.41-.64-1-2.03,1.28-3.35,3.42-4.42,5.51-1.41,2.74-2.46,5.65-3.56,8.52-2.42,6.27-6.03,11.97-9.92,17.44-9.35,13.15-23.18,21.66-36.31,30.56-11.63,7.88-22.42,16.75-31.62,27.42-7.99,9.26-14.71,19.68-19.47,30.97-2.5,5.94-4.45,12.09-5.87,18.37.9-10.75,2.15-21.47,3.87-32.11,6.05-19.58,17.3-37.29,31.2-52.33ZM195.01,11.55c1.34-1.88,3.04-3.73,5.27-4.52,2.07-.73,4.14-.34,6.2.19,2.16.55,4.33,1.16,6.59.99,2.26-.17,4.5-.9,6.64-1.64,4.16-1.43,8.36-3.46,12.85-3.42,2.38.02,4.69.76,6.71,2,2.11,1.3,3.74,3.22,5.57,4.87,1.83,1.66,3.82,2.86,6.15,3.67,2.32.8,4.74,1.23,7.12,1.82,5.14,1.27,9.6,4,13.14,7.94,6.86,7.62,6.75,18.53,2.17,27.3-3.97,7.61-11.33,12.76-19.23,15.72-11.2,4.2-23.09,6.45-34.6,9.63-1.21.33-2.42.67-3.64,1.02,2.44-1.33,4.9-2.64,7.28-4.07,8.32-5.01,16.33-10.9,22.49-18.5,3.44-4.25,6.15-8.96,8.03-14.1.07-.18-.25-.3-.32-.12-7.25,18.39-24.24,28.7-40.78,37.74-3.43,1.01-6.84,2.1-10.16,3.36-1.04.4-2.07.84-3.08,1.32,12.34-11.37,24.13-23.4,33.49-37.38,3.47-5.18,6.48-10.59,9.01-16.29.09-.2-.2-.36-.3-.16-4.9,9.96-11.46,19.09-18.5,27.63-7.15,8.66-15.03,16.7-23.19,24.41-1.31,1.24-2.63,2.48-3.95,3.72-.31.21-.63.4-.93.62-2.01,1.49-3.77,3.27-5.5,5.06,1.24-2.41,2.25-4.97,3.29-7.43,2.18-5.16,4.74-10.15,7.01-15.27,2.27-5.13,4.74-10.27,6.4-15.64,1.48-4.79,2.29-9.74,2.72-14.73.51-5.91.5-11.81.53-17.73,0-.38-.55-.35-.58.02-.67,10.07-.39,20.29-3.01,30.12-1.43,5.37-3.79,10.43-6,15.51-2.23,5.13-4.72,10.13-7,15.24-1.63,3.65-2.98,7.59-5.04,11.07-.05-.01-.09,0-.14.02,3.32-7.22,3.1-15.92,2.35-23.64-.89-9.28-2.7-18.48-2.82-27.82-.13-10.11,1.79-20.16,7.76-28.53Zm-23.18,46.87c-2.05-3.87-4.35-7.59-6.43-11.44-2.03-3.76-3.96-7.79-4.46-12.08-.28-2.44-.16-4.95.18-7.38.52-3.74,2.16-12.1,7.48-11.59,1.63.16,2.99,1.59,4.53,2.1,2.06.68,3.75-.1,5.63-.89,1.59-.67,3.28-.71,4.99-.55.83.08,2.84.24,3.58,1.02-1.44,3.47-2.4,7.13-2.95,10.85-1.48,10.01-.25,19.91,1.4,29.81,1.57,9.44,3.39,19.33,1.8,28.89-.37,2.24-.93,4.49-1.61,6.65,0,0,0,.01,0,.02-.06.06-.13.11-.2.17.52-3.77.31-7.58-.29-11.38-.87-5.52-2.07-10.97-3.43-16.39-2.34-9.36-5.57-19.2-4.71-28.96.02-.23-.36-.27-.4-.04-1.55,9.21,1.24,18.59,3.39,27.47,1.32,5.46,2.57,10.95,3.51,16.5.79,4.66,1.18,9.28.34,13.89-.27-8.4-2.75-16.64-6.18-24.26-1.89-4.21-4.01-8.32-6.17-12.4Zm114.42,5.53c-.22,2.72-1.66,5.34-3.1,7.6-3.8,5.95-9.67,10.23-15.79,13.58-8.05,4.4-17.06,6.91-26.08,8.37-9.21,1.48-18.52,2.05-27.83,1.43-5.11-.34-10.3-1.26-15.43-1-3.46.18-7.13.9-10.53,1.99.67-.59,1.33-1.19,1.97-1.81,4.56-2.2,9.37-3.63,14.53-4.26,6.69-.81,13.4-1.52,20.06-2.57,6.54-1.03,12.99-2.42,19.32-4.36,6.42-1.97,13.35-3.03,19.18-6.53,5.44-3.26,8.47-8.81,11.92-13.91.21-.32-.33-.7-.55-.39-3.25,4.57-6.16,9.6-10.89,12.83-5.73,3.92-12.89,4.96-19.39,6.96-12.97,3.97-26.26,5.5-39.68,7.16-4.47.55-8.73,1.68-12.8,3.37,1.94-1.95,3.89-3.88,6.21-5.39,1.67-1.09,3.49-1.94,5.37-2.66.89-.18,1.78-.51,2.66-.94,3.02-.96,6.13-1.68,9.1-2.5,12.35-3.41,25.07-5.37,37.34-9.13,8.83-2.7,17.09-7.53,22.36-15.28,2.25-3.31,3.9-7.14,4.79-11.12,2.12,3.42,5.19,8.08,2.96,11.72-.3.5-.08,1.35.48,1.58,2.44.97,4.04,2.51,3.82,5.27Z"/>
  </g>
</svg>