<?xml version="1.0" encoding="UTF-8"?>
<svg id="Layer_2" data-name="Layer 2" xmlns="http://www.w3.org/2000/svg" viewBox="0 0 392.77 649.02">
  <defs>
    <style>
      .cls-1 {
        fill: #231f20;
      }
    </style>
  </defs>
  <g id="Layer_1-2" data-name="Layer 1">
    <g>
      <path class="cls-1" d="m392.41,388.17c.06-.15.12-.28.17-.43.15-.37-.04-.79-.41-.94-.19-.77-.84-1.35-1.65-1.39-.83-.05-1.59.48-1.84,1.28-6.34,20.64-31.9,26.43-39.59,27.71-6.96,1.16-14.19,1.63-21.18,2.09-10.42.68-21.2,1.39-31.48,4.37-24.74,7.18-41.78,25.8-51.71,40.16-7.15,10.34-16.08,28.1-23.92,45.48-1.91,2.87-3.67,5.87-5.28,9.01,1.84-8.35,3.53-16.81,5.02-25.43,5.55-32.15,7.74-61.09,6.69-88.2,11.09-9.01,23.92-17.46,37.5-26.4,20.42-13.43,41.54-27.33,56.74-43.6,6.41-6.86,11.79-14.87,17-22.62,8.97-13.35,17.44-25.96,30.77-33.32.78-.43,1.14-1.37.83-2.21-.31-.84-1.19-1.33-2.06-1.15-36.27,7.41-67.02,21.11-91.36,40.76-16.99,13.71-42.46,42.85-50.52,71.41-1.27-14.18-3.3-28.34-5.29-42.13-1.66-11.49-3.35-23.26-4.6-35.04,1.4.04,2.78-.12,4.14-.45,3.13-.77,6.12-2.39,8.97-4.14,44.75-27.47,74.23-77.11,76.94-129.54.09-1.73.66-5.51,1.26-9.5.99-6.59,2.02-13.41,1.81-16.33-.05-.73-.54-1.36-1.24-1.59-.7-.23-1.46-.02-1.94.54-19.9,23.09-43.67,59.69-62.77,89.1-3,4.62-5.86,9.02-8.54,13.11-7.57,11.57-15.91,28.12-19.91,44.17-2.41-35.8,1.03-71.86,9.81-106.58.29-.31.49-.7.51-1.14.02-.38.04-.75.06-1.13,11.89-45.75,33.08-89.08,62.38-126.29,2.5,7.24,5.42,15.07,10.86,17.36.91.38,1.87.59,2.85.63,2.47,3.75,8.13,8.5,11.99,9.91,4,1.46,8.26,1.87,12.28,2.16,2.2.16,4.34.25,6.41-.26.43-.11.86-.24,1.29-.41,2.84-1.1,4.89-3.39,6.75-5.64,2.04-2.48,4.06-5.17,4.25-8.55.14-2.49-.8-5.14-2.65-7.46-.82-1.02-2.52-2.98-4.5-4.41,2.6-1.02,5.58-1.07,8.21-.12.13,1.6.77,2.66,1.92,3.15.57.24,1.22.3,1.94.17.11-.02.22-.04.33-.07,1.44-.36,2.69-1.32,3.39-2.63.9-1.67.68-3.65-.53-4.82-1.07-1.03-2.81-1.27-4.24-.57-.62.3-1.17.77-1.61,1.35-2.42-.86-5.06-1.08-7.59-.68.85-.57,1.69-1.15,2.52-1.76,2.28-1.66,4.85-3.73,6.7-6.44,1.08-1.58,1.82-3.29,2.2-5,.45-.13,1.05-.14,1.72-.14.24,0,.48,0,.72,0,.49-.01.85-.03,1.14-.05.19-.01.32-.01.43-.01.14,1.09.55,2.13,1.23,2.98h0c.91,1.13,2.51,2.01,4.1,1.61.24-.06.48-.15.72-.27.98-.5,1.5-1.37,1.85-2.06.64-1.3,1.05-2.69,1.21-4.13.27-2.39-.63-3.62-1.43-4.22-.86-.65-2-.87-3.22-.62-1.68.34-3.1,1.49-3.87,3.12-.34-.04-.69-.04-1.21-.01-.26.01-.6.03-1.05.04-.21,0-.43,0-.64,0-.46,0-.95,0-1.47.05-.03-.31-.07-.62-.13-.92-.65-3.22-2.88-6.17-6.14-8.11-2.9-1.73-5.09-2.3-8.13-2.75-.31-.05-.69-.13-1.11-.21-.36-.07-.74-.15-1.13-.22,2.52-2.72,3.89-3.21,8.34-3.48.88,1.51,2.76,2.39,4.65,2.13.18-.03.37-.06.54-.1,1.6-.4,2.96-1.53,3.62-3.04.76-1.76.37-4.26-1.59-5.25-.97-.49-1.99-.41-2.59-.37-.91.07-1.88.18-2.8.72-.68.4-1.34,1.27-1.72,2.22-.25,0-.48.02-.66.07-.04.01-.09.02-.13.04-2.48.17-4.25.47-5.83,1.17.45-2.21.49-4.54.49-7.48,0-2.47-.39-4.56-1.19-6.37-1.73-3.96-5.72-6.94-10.41-7.78-4.97-.89-9.55.62-12.51,2.05-3.9,1.88-7.23,4.63-9.97,7.06-4.18,3.71-9,8.58-11.51,14.72,0,0-.01,0-.02,0-.61-.12-1.23.09-1.66.54-7.17,7.6-9.23,19.59-5.01,29.15.25.57.78.92,1.35,1.02-26.72,33.74-46.82,72.49-59.43,113.54,1.14-35.63-1.66-68.41-22.45-100.5-2.07-3.2-4.34-6.34-6.54-9.38-4.9-6.78-9.97-13.79-12.88-21.61-.31-.84-1.19-1.33-2.07-1.14-.88.17-1.49.98-1.44,1.87,2.37,43.12,9.15,98.78,40.67,147.56-9.1,35.85-12.59,73.13-9.87,110.11,1.18,16.06,3.52,32.24,5.77,47.89,2.44,16.88,4.95,34.34,6.01,51.6,1.78,28.94-.28,59.92-6.28,94.72-2.03,11.77-4.41,23.28-7.11,34.54-2.65-14.61-10.84-26.69-20.61-38.46-6.86-30.34-18.5-59.55-31.17-87.97,24.2-24.48,33.79-67.84,24.42-111.1-5.85-27.01-13.82-74.26-3.69-95.62.52-.98,1.02-1.9,1.49-2.75.47-.86.17-1.94-.68-2.44-.85-.5-1.94-.22-2.46.61-.54.88-1.05,1.81-1.52,2.8-10.59,19.71-31.92,63.99-34.03,104.4-1.09,20.79-1.11,48.08,6.5,82.23-1.37-2.96-2.74-5.91-4.1-8.86-20-43.1-40.68-87.66-48.16-135-6.05-38.26-3.29-77.98,7.93-115.06,5.83,1.04,12.15,2.1,16.93.91,1.52-.38,2.88-.98,4.03-1.88.78-.61,1.43-1.34,1.95-2.18,1.06-.08,2.26-.29,3.52-.6,4.02-1,8.59-3.02,10.96-5.07,3.22-2.79,5.65-6.31,7.86-9.68,1.46-2.22,2.8-4.44,3.16-7.05.42-3.02-.59-5.92-1.65-8.64-1.17-2.99-2.55-6.06-5.4-7.87-2.11-1.34-4.88-1.8-7.81-1.3-1.29.22-3.83.76-6.05,1.79.37-2.77,1.78-5.4,3.89-7.23,1.46.67,2.71.62,3.69-.14.49-.38.85-.91,1.09-1.61.52-1.51.31-3.22-.55-4.56-1.02-1.6-2.81-2.38-4.47-1.88-1.43.44-2.48,1.84-2.56,3.42-.04.69.1,1.39.4,2.06-1.93,1.69-3.4,3.89-4.29,6.3-.09-1.02-.19-2.04-.31-3.06-.35-2.8-.9-6.05-2.37-8.99-.85-1.71-1.99-3.19-3.3-4.35.11-.46.39-.99.71-1.57.11-.21.23-.42.34-.63.23-.43.39-.76.51-1.02.08-.17.14-.28.2-.38,1.02.41,2.13.56,3.2.37h0c.11-.02.21-.04.32-.07,1.55-.38,3.13-1.59,3.2-3.49.04-1.1-.46-1.97-.91-2.62-.83-1.19-1.85-2.22-3.03-3.06-1.96-1.4-3.46-1.21-4.38-.8-.98.43-1.73,1.33-2.11,2.51-.52,1.64-.2,3.43.84,4.9-.2.28-.37.59-.59,1.05-.12.24-.26.54-.47.93l-.3.56c-.22.4-.45.85-.65,1.32-.29-.12-.58-.25-.88-.34-3.12-1-6.79-.48-10.07,1.42-2.92,1.69-4.48,3.33-6.36,5.77-.19.25-.44.54-.73.87-.24.28-.49.58-.74.88-1.15-3.52-.91-4.96,1.01-8.98,1.75-.03,3.43-1.25,4.12-3.03.67-1.73.39-3.71-.73-5.17-1.16-1.52-3.53-2.4-5.36-1.16-.9.61-1.32,1.53-1.58,2.08-.39.83-.76,1.73-.74,2.8.02.79.45,1.79,1.11,2.58-.14.24-.23.47-.28.67,0,.03-.01.05-.02.08-1.06,2.25-1.67,3.94-1.83,5.66-1.71-1.47-3.72-2.63-6.29-4.05-2.16-1.2-4.17-1.87-6.15-2.06-4.3-.41-8.84,1.63-11.86,5.31-3.2,3.91-4.09,8.65-4.29,11.93-.25,4.32.53,8.56,1.33,12.14,1.21,5.46,3.12,12.04,7.27,17.21,0,0-.01.01-.02.02-.4.48-.52,1.12-.34,1.71,3.16,9.96,12.63,17.59,23.04,18.55.21.02.41-.02.61-.06-10.81,36.96-13.37,76.39-7.36,114.41,3.14,19.86,8.58,39.19,15.28,58.11-5.15-6.69-11.03-13.62-16.79-20.41-6.75-7.95-13.12-15.46-18.15-22.32-8.56-11.68-17.41-23.75-29.16-32.91-13.21-10.3-28.5-14.92-41.96-12.68-.64.1-1.17.54-1.4,1.15-.23.61-.12,1.29.29,1.79,14.3,17.53,29.46,34.73,45.05,51.12,9.71,10.2,20.25,20.76,33,27.99,3.13,1.78,7.16,4.14,11.42,6.64,7.79,4.57,16.56,9.72,22.58,12.87,8.52,22.01,18.47,43.48,28.27,64.61,4.19,9.04,8.42,18.16,12.55,27.35.22.75.41,1.48.64,2.23.13.45.43.82.83,1.04,11.64,26.09,22.39,52.85,29.31,80.44-1.42-1.63-2.85-3.26-4.29-4.9-5.67-6.45-11.53-13.11-16.86-20.28-22.6-30.35-57.55-49.35-93.5-50.82-6.72-.27-13.63.03-20.3.33-15.47.69-30.08,1.34-43.52-4.47-.79-.34-1.71-.08-2.2.62-.49.7-.42,1.66.16,2.28,22.21,23.59,53.32,35.54,83.41,47.1,5.1,1.96,10.38,3.99,15.5,6.03,29.08,11.61,69.37,31.3,83.5,68.15,3.92,10.24,5.83,17.6,6.53,24.9.08,19.05-1.78,36.12-5.62,46.94-7.42,17.91-15.86,34.93-25.31,50.94-.51.86-.22,1.97.64,2.48.43.25.91.31,1.36.2.46-.11.87-.4,1.12-.84,9.47-16.03,17.91-33.05,25.36-50.96.05-.08.1-.16.13-.25.03-.09.06-.19.1-.29,7.19-17.35,13.42-35.54,18.67-54.53.2-.04.4-.08.57-.18.25-.14.48-.34.64-.6.07-.11.14-.24.18-.37,3.38-8.91,8.21-20.59,13.56-32.47,20.09-30.1,56.07-45.14,90.57-55.82,4.22-1.31,8.58-2.53,12.8-3.71,13.33-3.73,27.12-7.59,39.19-14.93,15.07-9.17,28.72-26.79,25.96-45.85Zm-113.48-72.01c21.78-17.58,48.83-30.36,80.53-37.96-1.06.86-2.08,1.76-3.08,2.68-15.33,8.02-30.53,16.61-45.24,25.64-.34.21-.45.66-.24,1,.17.28.49.4.79.32.07-.02.14-.05.21-.09,13.3-8.17,27.01-15.98,40.85-23.33-6.55,6.86-11.97,14.92-17.28,22.82-5.13,7.63-10.43,15.52-16.64,22.16-14.91,15.95-35.84,29.72-56.08,43.04-12.28,8.08-23.95,15.77-34.34,23.87,1.8-7.55,6.59-14.21,10.95-19.86,11.18-14.49,23.75-28.04,37.37-40.27.3-.27.32-.73.06-1.02-.27-.3-.73-.32-1.02-.06-13.68,12.29-26.32,25.9-37.55,40.46-3.66,4.75-7.6,10.21-9.93,16.34,4.34-21.61,21.86-52.52,50.65-75.75Zm-51.45,80.87s0,0,0,0c0,0,0,0,0,0,0,0,0,0,0-.01Zm10.44-146.27c2.68-4.09,5.54-8.5,8.54-13.12,17.92-27.59,39.97-61.54,58.95-84.53-.36,3.12-.94,6.95-1.44,10.3-.64,4.27-1.2,7.95-1.3,9.86-2.65,51.26-31.47,99.79-75.22,126.64-3.26,2-6.69,3.79-10.08,4.03,25.19-26.4,42.23-59.15,58.7-90.86.18-.36.05-.79-.31-.98-.35-.19-.79-.05-.98.31-16.32,31.41-33.2,63.85-57.97,90.01,2.48-18.01,12.32-38.23,21.1-51.65Zm111.96-191.24s.07-.02.1-.03c0,.11-.03.28-.12.44-.03.06-.07.12-.12.18,0-.15-.03-.3-.07-.45.07-.07.13-.12.2-.15Zm8.38-17.79c.13-.35.57-1.19,1.42-1.37.16-.03.28-.03.29-.05.03.09.11.35.04.93-.12,1.03-.41,2.02-.86,2.94-.09.18-.16.29-.2.36-.11-.05-.27-.16-.4-.32-.5-.61-.62-1.61-.3-2.49Zm-12.39-19.61c.05-.2.22-.54.23-.59.27-.16.83-.2,1.24-.23.16-.01.58-.04.61-.08.05.08.08.38-.02.63-.22.51-.78.92-1.34,1-.27.04-.54-.02-.74-.12.04-.2.04-.41.01-.62Zm-6.93,45.7c1.29,1.62,1.96,3.39,1.86,4.98-.13,2.28-1.77,4.43-3.43,6.44-1.62,1.96-3.24,3.78-5.27,4.57-1.76.68-3.81.6-6.12.43-3.76-.28-7.74-.65-11.3-1.95-2.75-1-6.87-4.29-9.23-7.17.39-.14.78-.31,1.18-.5.34-.16.59-.44.77-.75,1.94,1.28,4.44,2,7.17,2.02,2.16.01,4.27-.37,6.32-.88,1.04-.26,2.06-.55,3.08-.83.39-.11.61-.51.5-.89-.11-.39-.53-.64-.89-.5-2.92.82-5.95,1.68-9,1.66-2.83-.01-5.36-.85-7.12-2.33-.65-1.97-1.55-3.85-2.62-5.62,2.42.53,5.08.71,7.91.5,0,0,0,0,0,0,2.29.05,4.67-.22,7.19-.84,1.05-.26,2.14-.6,3.25-.98.15-.04.31-.07.47-.11.86-.2,1.72-.4,2.58-.59.64-.14,1.37-.36,2.13-.58,1.66-.5,3.73-1.11,4.95-.8,1.61.42,3.99,2.68,5.63,4.74Zm-4.44-36.24c.5.1.95.19,1.31.25,2.64.39,4.41.85,6.8,2.28,2.38,1.42,4,3.5,4.44,5.71.43,2.13-.2,4.63-1.74,6.87-1.54,2.25-3.83,4.07-5.85,5.56-3.65,2.67-7.55,5.03-11.6,7.03-2.01.99-3.89,1.78-5.69,2.41-3.13.72-6.35,1.44-9.53,1.68-.52-.02-1.05-.04-1.56-.1-3.09-.35-7.59-1.71-11.33-3.65,1.2,0,2.35-.09,3.36-.18,3.11-.26,6.33-.53,9.5-.97,1.27-.17,2.59-.39,3.89-.71,2.79-.69,5.49-1.86,7.4-4.08.26-.3.23-.76-.08-1.02-.3-.26-.76-.23-1.02.08-2.48,2.89-6.64,3.8-10.38,4.3-3.13.42-6.33.7-9.42.96-2.26.19-4.34.29-6.16-.14-.79-.56-1.5-1.15-2.08-1.77,2.28-.76,4.53-1.6,6.74-2.52-.03.1-.04.2-.03.31.06.4.43.67.83.61,1.85-.28,3.7-.65,5.53-1.1,6.32-1.56,12.43-4.14,17.92-7.58.34-.21.44-.66.23-1-.21-.34-.66-.44-1-.23-6.62,4.14-14.15,6.98-21.86,8.29,2.13-.92,4.24-1.9,6.3-2.97,4.24-2.19,8.45-6.16,7.58-10.59,1.64-1.17,3.62-2.12,5.71-3.09,2.92-1.36,5.91-2.77,8.18-4.98,0,0,.01,0,.02-.01.57-.26,2.69.17,3.59.36Zm-40.66,20.99c4.49-5.67,10.88-9.78,17.9-11.52.57-.14,1.15-.27,1.74-.38-.2,2.48-3.63,4.92-5.71,6-4.48,2.31-9.14,4.29-13.92,5.9Zm10.92-40.48c2.55-2.27,5.64-4.82,9.14-6.51,2.48-1.2,6.28-2.47,10.29-1.75,3.51.63,6.47,2.8,7.73,5.67.59,1.34.88,2.95.88,4.92,0,5.9-.12,8.47-3.37,13.02-1.77,2.47-4.92,3.94-8.24,5.49-2.44,1.13-4.93,2.32-7.01,3.97-5.81.86-11.34,3.2-16.07,6.64,2.52-2.93,5.13-5.8,7.83-8.55,2.89-2.95,6.31-6.22,10.47-7.75.38-.14.57-.56.43-.93-.14-.38-.56-.56-.93-.43-4.44,1.64-8.01,5.04-11,8.1-3.58,3.65-7.02,7.5-10.28,11.46.27-2.01.39-4.03.35-6.06.01,0,.03,0,.04,0,.22-.05.41-.21.5-.44,2.21-5.62,5.68-10.8,10.03-14.99.29-.28.3-.74.02-1.03-.28-.29-.74-.3-1.03-.02-4.08,3.93-7.4,8.71-9.69,13.9-.23-2.84-.75-5.66-1.58-8.4,1.63-6.81,6.96-12.28,11.49-16.3Zm-1.2,59.84c-1.3.37-2.47.32-3.54-.12-3.47-1.46-5.88-6.92-7.93-12.61,5.15,2.72,9.32,7.31,11.47,12.73Zm-13.8-42.29c.05.09.11.16.17.24,1.96,6.8,1.9,14.15-.17,20.92-.58-.06-1.18.14-1.58.63-.24.29-.47.59-.7.89,0,0,0,0,0,0-3.21-7.27-2.21-16.16,2.29-22.67Zm-104.84,17.14c2.75,4.84,6.03,9.37,9.23,13.8,2.17,3,4.41,6.1,6.43,9.22,21.45,33.11,23.25,67.25,21.63,104.72-6.9-19.06-12.91-38.61-17.9-58.22-1.98-7.8-3.67-15.42-2.51-22.88.06-.4-.21-.77-.6-.83-.4-.06-.77.21-.83.61-1.2,7.73.52,15.51,2.54,23.46,5.28,20.77,11.72,41.47,19.13,61.61-.02.37-.03.73-.05,1.1-15.21-24.48-31.99-61.88-37.07-132.59Zm-48.87,16.52c.1.05.23.16.33.32.04.06.07.12.1.19-.13-.07-.28-.12-.42-.16-.03-.09-.04-.17-.03-.25,0-.03.01-.07.02-.1Zm-12-17.78c.05-.16.11-.26.1-.28.09.01.36.08.83.42.84.6,1.57,1.34,2.15,2.18.12.17.18.28.22.35-.1.07-.26.15-.48.19-.78.14-1.71-.24-2.32-.95-.3-.35-.77-1.06-.5-1.91Zm-22.66,1.52c.07-.15.25-.53.23-.57.1,0,.37.11.54.33.34.44.43,1.12.23,1.65-.1.25-.28.46-.46.59-.16-.13-.34-.24-.54-.31-.15-.14-.37-.45-.4-.49,0-.32.24-.84.4-1.2Zm21.14,65.92c-2.96,2.33-8.91,1.77-14.87.8,4.89-3.18,10.92-4.59,16.7-3.84-.31,1.32-.92,2.32-1.83,3.04Zm5.45-23.47c.05-.16.1-.33.14-.49.24-.85.49-1.69.74-2.54.19-.63.35-1.36.52-2.14.37-1.7.84-3.8,1.71-4.71,1.15-1.2,4.28-2.18,6.88-2.62,2.04-.35,3.91-.06,5.26.79,1.93,1.22,3.01,3.7,3.96,6.13.92,2.37,1.73,4.67,1.43,6.82-.26,1.87-1.33,3.62-2.6,5.56-2.07,3.15-4.33,6.44-7.2,8.93-2.21,1.91-7.09,3.92-10.75,4.59.06-.41.11-.83.14-1.27.06-.9-.56-1.71-1.45-1.89-.85-.17-1.71-.3-2.57-.39,2.18-1.03,4.4-2.25,6.45-3.76,3.73-2.76,6.38-6.15,7.68-9.81.13-.38-.06-.79-.44-.93-.38-.13-.79.06-.93.44-1.2,3.39-3.68,6.54-7.17,9.13-2.79,2.07-5.95,3.58-8.88,4.79-.23,0-.45.02-.68.03,1.63-1.85,3.07-4.08,4.27-6.64,1.65-2.8,2.79-6.1,3.49-10.03Zm-23.85-26.23c.33-.39.63-.74.85-1.03,1.62-2.11,2.89-3.44,5.3-4.84,2.4-1.39,5-1.79,7.15-1.1,2.07.66,3.95,2.43,5.16,4.86,1.22,2.44,1.7,5.32,2.01,7.82.56,4.48.73,9.04.5,13.55-.11,2.24-.34,4.26-.66,6.13-.89,3.09-1.83,6.25-3.16,9.15-.27.45-.55.89-.84,1.31-2.77,3.89-9.23,9.5-14.22,10.78.08-.45.16-.9.23-1.36.21-.05.39-.2.49-.42,4.42-10.27,8.2-20.93,11.21-31.69.11-.39-.12-.79-.5-.89-.39-.11-.79.12-.89.5-2.63,9.38-5.87,18.67-9.58,27.7.4-3.21.67-6.44.77-9.67.15-4.77-1.27-10.38-5.58-11.77-.23-2-.09-4.19.08-6.49.23-3.21.45-6.51-.37-9.57,0,0,0-.01,0-.02.05-.63,1.45-2.27,2.06-2.97Zm-2.27,22.8c2.07,1.38,2.54,5.56,2.47,7.91-.15,5.03-.7,10.07-1.61,15.03-3-7.23-3.33-15.51-.86-22.94Zm-29.21-6.27c-.74-3.33-1.47-7.27-1.24-11.15.16-2.75.89-6.69,3.47-9.85,2.26-2.76,5.6-4.3,8.71-4,1.47.14,3.01.67,4.73,1.62,5.16,2.86,7.35,4.22,9.73,9.27,1.3,2.75,1.05,6.21.79,9.87-.19,2.68-.37,5.44.06,8.06-2.63,6.97-3,14.7-1.16,21.89-.26-.21-.55-.4-.82-.6.15-.25.14-.57-.04-.81-3.08-4.08-5.76-8.48-7.97-13.08-.89-1.85-1.81-4-1.4-6.07.08-.39-.18-.77-.57-.85-.39-.08-.77.18-.85.57-.47,2.38.45,4.76,1.52,6.98,1.94,4.03,4.25,7.9,6.85,11.56-4.02-2.57-8.48-4.43-13.15-5.45-5.16-4.73-7.34-12.05-8.66-17.97Zm26.74,34.66c-7.91-.73-15.18-5.91-18.68-13,.11,0,.21-.02.32-.04,7.74,1.8,14.86,6.15,19.93,12.28-.14.45-.27.9-.4,1.35-.29-.32-.69-.55-1.16-.59Zm-7.65,173.31c-4.28-2.51-8.31-4.88-11.47-6.67-12.32-6.99-22.64-17.34-32.16-27.34-13.76-14.46-27.16-29.57-39.95-44.97,19.49,9.67,35.23,26.22,49.37,42.88.19.22.47.3.73.23.11-.03.21-.08.3-.15.31-.26.34-.72.08-1.02-14.93-17.58-31.63-35.05-52.7-44.6-.2-.24-.41-.48-.61-.73,11.66-.91,24.57,3.49,35.94,12.35,11.35,8.85,20.05,20.72,28.46,32.19,5.11,6.96,11.52,14.52,18.31,22.52,5.9,6.96,11.93,14.07,17.13,20.87-6.35-4.11-11.43-10.28-16.37-16.3-1.6-1.96-3.26-3.98-4.93-5.89-4.45-5.09-9.39-9.8-14.7-14-.32-.25-.77-.19-1.02.12-.25.31-.2.77.12,1.02,5.24,4.15,10.12,8.79,14.51,13.81,1.66,1.9,3.31,3.91,4.9,5.85,5.77,7.03,11.72,14.27,19.72,18.35.23.32.48.64.71.95-5.08-2.85-10.96-6.31-16.35-9.47Zm64.77,106.05c4.62-25.23,7.21-51,7.64-76.64,0-.4-.31-.73-.71-.74-.41,0-.73.31-.74.71-.41,24.55-2.81,49.21-7.09,73.41-11.43-41.16-11.59-73.28-10.35-96.91,1.48-28.19,12.53-58.39,22.56-80.51-3.96,20.67-6.04,41.77-6.15,62.81-.02,4.55.09,8.96,1.65,13.05.13.35.5.53.85.44.03,0,.06-.02.09-.03.37-.14.56-.56.42-.94-1.48-3.85-1.58-8.12-1.56-12.52.11-22.28,2.42-44.65,6.87-66.48.05-.24-.04-.47-.19-.64.49-1.04.98-2.09,1.46-3.09-3.08,24.67,2.98,59.61,7.71,81.48,8.98,41.47.18,82.93-22.43,106.74-.02-.05-.03-.11-.04-.16Zm32.86,128.38c-14.63-38.18-55.82-58.36-85.54-70.22-5.14-2.05-10.43-4.08-15.54-6.05-27.22-10.46-55.28-21.24-76.43-40.64.1.03.2.04.3.07l26.37,11.91c3.98,1.8,8.09,3.65,12.38,4.91,4.91,1.44,10.06,2.09,15.04,2.72,5.72.72,11.63,1.47,17.09,3.42.14.05.28.05.42.02.23-.06.42-.22.51-.46.13-.38-.06-.79-.44-.93-5.61-2-11.6-2.76-17.4-3.49-4.92-.62-10.01-1.27-14.81-2.67-4.19-1.23-8.26-3.06-12.19-4.84l-20.52-9.27c10.06,1.6,20.5,1.17,30.7.72,6.6-.29,13.42-.6,19.99-.33,34.86,1.42,68.78,19.88,90.74,49.36,5.42,7.28,11.33,14,17.04,20.5,3.05,3.47,6.02,6.86,8.85,10.22,1.7,7.66,3.08,15.74,4.12,23.95-1.57-2.52-3.31-5.06-5.28-7.45-2.58-3.12-5.55-5.94-8.43-8.68-17.94-17.06-36.49-34.7-57.33-48.94-.33-.23-.78-.14-1.01.19-.23.33-.14.78.19,1.01,20.75,14.17,39.25,31.77,57.15,48.79,2.84,2.7,5.78,5.5,8.31,8.55,2.5,3.01,4.63,6.28,6.83,10.05.55,4.76.99,9.53,1.32,14.29-.71-2.12-1.51-4.35-2.42-6.72Zm6.02,51.05c.93-10.06,1.46-17.54.73-25.16-.07-8.41-.51-17.05-1.26-25.53,3.94,7.46,7.47,15.42,9.09,23.88-2.63,9.12-5.47,18.07-8.56,26.81Zm9.43-29.77c-2.11-8.79-6.12-16.98-10.31-24.63-.89-8.94-2.12-17.62-3.63-25.57,9.68,12.52,16.52,25.29,16.28,41.54-.76,2.9-1.54,5.8-2.34,8.67Zm159.77-112.57c-11.64,7.08-25.18,10.87-38.28,14.54-4.24,1.19-8.63,2.41-12.89,3.73-28.65,8.88-58.29,20.74-79.46,41.54,15.48-22.94,39.17-39.96,65.97-47.11.39-.1.62-.5.51-.89-.1-.39-.52-.61-.89-.51-27.32,7.3-51.46,24.7-67.12,48.17,5.33-10.82,10.7-20.65,15.31-27.31,9.6-13.87,26.02-31.85,49.74-38.74.93-.27,1.87-.52,2.82-.76,9.07-2.25,18.62-2.87,27.89-3.48,7.08-.46,14.4-.94,21.54-2.13,15.37-2.56,27.76-8.91,35.41-17.74-1.7,3-3.49,5.7-5.41,8.16-5.35,6.84-11.85,11.85-18.8,14.48-.37.14-.56.56-.42.94.13.35.5.53.85.45.03,0,.06-.02.08-.03,7.19-2.73,13.91-7.9,19.42-14.94,2.99-3.82,5.65-8.19,8.16-13.36-1.27,14.59-12.36,27.65-24.43,34.99Z"/>
      <path class="cls-1" d="m103.17,436.02c-3.14-1.27-6.03-3.04-8.59-5.27-.3-.26-.76-.23-1.02.07-.26.3-.23.76.07,1.02,2.68,2.33,5.7,4.19,9,5.52.15.06.3.07.45.03.22-.05.41-.21.5-.43.15-.37-.03-.79-.4-.94Z"/>
      <path class="cls-1" d="m285.58,328.76c.13-.03.25-.1.35-.2,3.48-3.61,7.37-6.85,11.53-9.64.33-.22.42-.67.2-1.01-.22-.33-.68-.42-1.01-.2-4.25,2.85-8.21,6.16-11.77,9.84-.28.29-.27.75.02,1.03.19.18.44.24.68.18Z"/>
      <path class="cls-1" d="m318.45,438.12l-8.02,1.52c-.4.08-.65.45-.58.85.07.39.45.65.85.58l8.02-1.52s.03,0,.04,0c.37-.09.61-.46.54-.84-.07-.39-.45-.65-.85-.58Z"/>
      <path class="cls-1" d="m344.13,430.24c-5.77,2.79-11.89,4.87-18.17,6.16-.45.08-.65.47-.56.86.08.39.46.64.86.56,1.02-.21,2.03-.44,3.04-.69,5.33-1.32,10.52-3.19,15.47-5.59.36-.17.51-.61.34-.97-.18-.36-.6-.51-.97-.34Z"/>
    </g>
  </g>
</svg>