<?xml version="1.0" encoding="UTF-8"?>
<svg id="Layer_2" data-name="Layer 2" xmlns="http://www.w3.org/2000/svg" viewBox="0 0 418.03 711.79">
  <defs>
    <style>
      .cls-1 {
        fill: #231f20;
      }
    </style>
  </defs>
  <g id="Layer_1-2" data-name="Layer 1">
    <g>
      <path class="cls-1" d="m417.67,245.09c.37-.43.46-1.02.23-1.53-.22-.49-.69-.81-1.24-.83-.04,0-.08,0-.12,0l-.19-.47-.36.44c-4.92-.24-9.09-1.06-12.74-2.51-4-1.58-7.86-4.02-11.8-7.44-8.91-7.75-16.46-16.75-22.04-23.72-3.7-4.62-7.35-9.42-10.87-14.06-2.93-3.85-5.95-7.84-9-11.7-6.46-8.21-13.47-16.8-21.89-23.75-4.86-4.01-9.92-7.4-14.62-9.78-2.59-1.31-5.13-2.01-7.76-2.14-1.04-.05-2.08-.05-3.13-.04-1.58,0-3.11,0-4.61-.19.05-.23.12-.44.14-.68.44-3.79-2.05-7.17-3.96-9.39-2.63-3.06-5.94-5.67-10.73-8.46-.41-.24-.82-.47-1.23-.7-1.83-1.04-3.57-2.02-5.03-3.47-1.23-1.22-2.47-1.62-3.76-1.24-3.92-6.36-7.08-13.37-10.13-20.17-4.87-10.87-9.91-22.11-18.23-31.01-7.17-7.67-17.21-12.72-29.03-14.61-10.33-1.64-21.99-.83-32.81,2.3-11.2,3.24-21.98,9.22-31.77,17.44-.52-.61-1.05-1.23-1.56-1.83-1.68-1.94-3.41-3.96-5.06-5.97-8.4-10.26-13.99-18.61-18.12-27.06-4.56-9.33-7.64-19.92-9.15-31.49-.36-2.79-.62-5.63-.83-8.32h0s0,0,0,0c-.02-.31-.05-.61-.07-.91-.05-.68-.5-1.33-1.12-1.61-.55-.25-1.14-.19-1.63.16-.19.14-.38.28-.57.42l-.32-.18.02.41c-7.74,5.93-13.33,14.65-17.8,22.46-5.95,10.41-10.27,20.8-12.84,30.9-2.7,10.6-2.34,21.78,1.06,33.24,3.48,11.72,9.2,22.73,14.74,33.38l1.86,3.59c3.44,6.66,6.7,13.66,9.95,21.35-3.07,10.89-5.35,22.61-6.8,35.15-3.68,31.71-1.44,64.49.96,92.72l.44,5.14c2.62,30.96,5.34,62.98,7.14,94.54.61,10.69,1.14,21.08,1.61,31.26-1.52-6.81-3.28-13.64-5.36-20.5-6.4-21.18-14.81-40.68-24.98-57.94-4.35-7.38-9.22-14.61-13.93-21.6-1.69-2.51-3.38-5.02-5.05-7.54-7.63-11.5-14-21.09-20.78-30.95-2.81-4.09-5.77-8.17-8.62-12.12-3.26-4.51-6.64-9.17-9.8-13.85-5.15-7.62-10.48-16.77-10.91-26.76-.1-2.4.06-4.84.5-7.25l.19-.66-.15-.04c-.09-1.11-.94-1.89-1.84-2.1-.98-.23-1.88.15-2.38.94l-.17-.05-.13.74C2.67,228.2-.57,252.98.08,276.67c.6,21.71,5.83,44.67,15.54,68.23,9.82,23.82,22.55,45.42,33.71,63.4,5.18,8.35,10.57,16.77,15.78,24.9,7.65,11.95,15.56,24.3,22.96,36.68,7.78,13.02,13.56,24.02,18.2,34.62,2.59,5.93,4.53,11.91,5.77,17.76,1.14,5.42,1.69,11.02,2.22,16.44l.06.64c.12,1.2.21,2.42.31,3.63-.51,10.63-1.3,21.26-2.5,31.93-.7,6.2-1.54,12.39-2.48,18.58-.07.12-.12.25-.19.38-.16.3-.15.64-.01.93-2.9,18.76-6.72,37.39-10.46,55.56l-.76,3.69c-.39,1.89-.77,3.79-1.15,5.7-2.99,14.87-6.08,30.25-12.69,43.72-1.45,2.96-2.56,4.14-2.92,4.18-.79.1-1.42.57-1.73,1.31-.31.73-.23,1.58.2,2.15.33.44.85.68,1.43.68.09,0,.18,0,.27-.02,5.7-.7,8.39-7.27,10.18-11.61,3.46-8.43,5.71-17.36,7.72-25.79,4.87-20.44,9.1-40.71,12.57-60.25,1.45-8.18,2.73-16.31,3.83-24.38,7.39-5.37,13.36-12.58,19.14-19.58.88-1.07,1.76-2.13,2.63-3.18l1.76-2.11c7.04-8.43,14.32-17.15,21.76-25.47,9.48-10.61,17.8-18.71,26.17-25.49,5-4.05,10.36-7.68,15.41-11.01,6.11-4.03,11.25-7.07,16.2-9.58,5.83-2.96,11.73-5.31,17.53-6.98,4.02-1.16,9.31-2.66,14.24-2.36,2.26.42,4.52.84,6.75,1.26,7.37,1.39,14.99,2.83,22.56,3.84,21.41,2.85,38.94,1.33,53.59-4.66,12.22-5,22.84-13.48,31.56-25.22,7.06-9.49,12.29-20.17,17.35-30.49,1.89-3.85,3.84-7.83,5.86-11.7l.66-.3-.36-.28c.26-.6.13-1.36-.33-1.87-.44-.49-1.08-.65-1.69-.42-.21.08-.42.16-.64.24l-.09-.07-.05.12c-12.53,4.77-24.36,7.74-36.14,9.08-12.29,1.4-24.55,1.15-38.15.71-13.46-.43-25.27.29-36.12,2.21-11.43,2.02-22.82,5.65-34.82,11.09-5.3,2.4-10.45,4.97-15.44,7.67-.51.21-1.01.45-1.49.72-.12.07-.21.16-.3.25-16.45,9.1-31.13,19.83-43.79,32.04-9.2,8.87-17.11,18.6-23.65,26.96-7.65,9.78-14.17,19.19-19.93,28.75-7.39,12.25-13.39,24.66-17.97,37.1,1.93-18.45,2.95-36.56,2.98-54.11.06-32.36-.66-66.16-2.13-100.46-.81-18.8-1.88-37.98-3.2-57.34.72-2.22,1.45-4.44,2.17-6.67,3.38-10.5,6.87-21.35,11.23-31.67,1.89-4.48,3.97-8.97,5.99-13.31,1.21-2.61,2.42-5.21,3.6-7.83,3.38-7.52,6.64-14.97,9.38-21.27l1.59-3.65c9.95-22.81,20.24-46.39,26.12-71.08,6.16-25.81,7.14-49.6,2.94-70.72-2.36-11.86-6.45-23.11-12.14-33.46-2.9-5.26-6.34-10.46-10.21-15.45-1.11-1.43-2.27-2.84-3.44-4.23,2.69-2.23,5.49-4.35,8.4-6.31,10.13-6.8,21.44-11.25,32.7-12.86,13.62-1.94,26.56-.32,36.43,4.57,15.07,7.47,22.29,22.66,29.27,37.35,1.52,3.21,3.1,6.53,4.72,9.67,2.34,4.54,4.59,8.45,6.84,11.96-1.77.7-2.79,2.87-3.22,3.81-1.28,2.79-2.01,5.87-2.56,8.52-.56,2.68-1.13,5.52-1.51,8.3-.23,1.71-.17,3.25.15,4.64-8.03,2.98-15.07,9.81-21.5,20.82-5.43,9.3-9.71,20.24-13.08,33.44-2.6,10.17-4.01,20.82-5.37,31.12-2.17,16.37-4.41,33.29-11.48,48.59-3.18,6.87-7.35,14.36-14.24,17.87-5.99,3.05-12.95,3.38-19.68,3.71-.91.04-1.82.09-2.72.14l-.27-.25-.11.27c-.07,0-.15,0-.22.01-.62.04-1.18.47-1.39,1.07-.2.56-.04,1.14.39,1.54.03.03.07.06.1.09l-.15.37.53-.02c2.85,2.77,4.53,6.29,6.29,10.01.64,1.34,1.3,2.73,2.01,4.06,1.91,3.57,4.66,6.89,8.64,10.46,2.98,2.67,6.29,5.29,10.44,8.25.73.52,1.53,1.01,2.31,1.49,1.04.64,2.11,1.3,3.02,2.04.07.14.17.27.25.38l.1.14c.28.39.59.76.91,1.12.61.68,1.3,1.33,2.1,1.97,1.43,1.14,3.09,2.12,4.93,2.91,3.59,1.54,7.71,2.41,12.59,2.65.89.04,1.78.07,2.68.07,8.13,0,16.69-1.77,24.39-5.08,5-2.15,9.62-5.36,13.74-9.56,1.59-1.63,3.03-3.41,4.43-5.14,1.28-1.58,2.59-3.2,4.02-4.69,4.2,5.66,9.64,11.06,16.57,13.53l1.13.4c2.59.91,5.04,1.76,7.17,3.38,1.23.94,2.39,2.03,3.51,3.08,1,.94,2.03,1.91,3.13,2.79,4.24,3.4,9.83,5.92,16.63,7.49,5.27,1.22,11.2,1.81,18.63,1.85.15,0,.3,0,.45,0,6.41,0,12.13-.78,17.47-2.38,9.36-2.81,18.88-8.3,29.09-16.8,4.2-3.49,7.65-6.87,10.54-10.32,2.87-3.42,5.96-7.56,7.06-12.23.34-1.45.48-2.89.42-4.33h.39s-.41-.41-.41-.41c-.02-.36-.06-.72-.11-1.07-.09-.62-.7-1.01-1.22-1.01-.23.05-.49,0-.74.01l-.78-.78.11.81c-1.7.07-3.42.25-5.1.42-4.11.42-8.36.86-12.24-.17-1.47-.39-2.77-1.04-3.95-1.85-.24-.19-.48-.37-.74-.54-3.95-3.14-6.31-8.38-8.45-13.16l-.45-.99c-.77-1.71-1.51-3.44-2.25-5.17,2.63,1.58,5.56,2.43,8.55,2.43.1,0,.19,0,.29,0,4.16-.08,8.61-1.82,12.55-4.91,8.68-6.81,12.04-18.14,14.74-27.23,1.64-5.51,3.49-11.74,7.36-16.56h.43s-.15-.35-.15-.35c.03-.04.06-.08.1-.12Zm-147.81,186.03c9.96-2.2,20.73-3.27,32.87-3.27.77,0,1.54,0,2.32.01,3.65.04,7.3.14,10.94.24,8.93.24,18.16.49,27.29-.17,13.02-.95,25.14-3.39,36.01-7.26.08-.03.14-.05.21-.08-.25.32-.49.63-.74.94-.59.76-1.16,1.5-1.74,2.17-3.71,4.35-8.61,7.97-12.92,10.93-10.58,7.27-22.2,12.39-33.61,14.81-20.52,4.35-41.66.84-62.12-2.54-5.31-.88-10.8-1.79-16.15-2.54-5.32-.74-10.15-1.07-14.81-.99-.59,0-1.18.02-1.78.04,12.19-5.88,23.39-9.9,34.21-12.3Zm-93.54,54.57c14.34-15.1,32.02-28.16,52.61-38.9,2.63-.59,5.53-.69,8.51-.72,4.33-.05,8.84.24,13.36.82,5.94.76,11.96,1.75,17.78,2.71,6.47,1.07,13.15,2.17,19.78,2.96,7.83.94,14.87,1.4,21.35,1.4s11.96-.43,17.38-1.3c11.13-1.78,22.6-6.26,34.08-13.33,5.89-3.62,11.14-7.66,15.61-11.99,1.33-1.29,2.5-2.74,3.63-4.14.49-.61.99-1.22,1.49-1.81l.3-.35c.61-.73,1.27-1.5,1.96-2.21.02,0,.04-.02.06-.02-5.71,14-11.67,25.49-18.19,35.02-8.46,12.39-18.67,21.36-30.35,26.67-14.35,6.53-31.47,8.53-52.31,6.14-8.56-.99-17.18-2.59-25.52-4.14-10-1.86-20.33-3.79-30.67-4.67-11.95-1.02-21.78-.32-30.94,2.2-7.78,2.14-15.31,5.33-22.6,8.51.88-.96,1.78-1.91,2.67-2.85Zm-41.8,56.26c9.6-17.01,21.19-33.23,34.55-48.35.13-.02.26-.06.39-.11,1.93-.84,3.85-1.7,5.78-2.56,6.38-2.86,12.98-5.81,19.77-7.83,7.39-2.2,15.24-3.19,23.84-3.04-1.9.96-3.8,1.9-5.67,2.81-6.63,3.23-13.48,6.58-19.63,10.93-8.88,6.28-17.41,12.9-25.36,19.69-17.92,15.31-32.2,31.31-43.63,48.94-.18.28-.35.57-.53.86,3.07-7.26,6.56-14.38,10.48-21.33Zm-14.95,37.55c1.54-3.6,3.14-7.32,5.12-10.7,6.43-11.02,12.53-19.73,19.17-27.41,15.33-17.71,33.75-32.37,48.09-43.16,4.56-3.43,9.47-6.49,15.03-9.35,1.86-.96,3.74-1.89,5.61-2.82,3.55-1.76,7.22-3.58,10.73-5.58.11-.06.19-.15.27-.24,5.9.38,11.81,1.14,17.66,2.07-.53.11-1.06.22-1.58.34-4.96,1.12-10.12,2.8-15.33,4.99-10.03,4.21-20.18,10.15-32.93,19.24-19.48,13.91-35.05,32.74-50.11,50.96l-1.97,2.38c-1.49,1.8-2.96,3.6-4.43,5.41-2.68,3.3-5.44,6.7-8.26,9.96-3,3.46-6.24,6.99-9.84,10.07.98-2.05,1.87-4.12,2.75-6.18Zm-10.69-443.49c-2.6-5.66-5.53-11.27-8.36-16.7-3.21-6.16-6.54-12.54-9.39-18.99-4.04-9.14-9.25-22.87-7.83-36.65.91-8.78,3.91-18.22,9.45-29.73,5.43-11.27,11.27-19.95,17.86-26.53.74-.74,1.47-1.42,2.19-2.05.78,11.04,2.86,21.17,6.19,30.15,3.39,9.15,8.39,18.16,15.28,27.54,3.38,4.59,7.14,8.98,10.77,13.23,1.01,1.18,2.04,2.38,3.06,3.59-7.05,6.37-13.54,13.91-19.23,22.5-5.12,7.72-9.55,16.25-13.28,25.56-7.39-12.38-14.2-25.25-18.15-39.15-3.57-12.56-4.52-24.83-2.75-35.51,1.15-6.93,3.61-14.22,7.3-21.66,1.15-2.31,2.74-4.43,4.29-6.48,1.73-2.3,3.53-4.68,4.75-7.39,1.07-2.38,1.54-5,1.39-7.77-.02-.34-.21-.63-.51-.78-.14-.07-.29-.1-.44-.1-.18,0-.36.05-.51.15-.27.18-.42.48-.4.81.31,5.64-2.78,9.74-6.06,14.08l-.67.89c-3.47,4.63-6.27,10.47-8.82,18.39-3.61,11.24-4.21,23.76-1.78,37.23,3.34,18.45,12.22,35.11,21.27,50.15-1.24,3.25-2.39,6.59-3.46,10.02-.71-1.63-1.43-3.23-2.15-4.79Zm24.79,77.59c-2.04-12.29-5.26-24.99-9.84-38.85-3.5-10.6-6.99-20.06-10.58-28.7,1.07-3.95,2.24-7.78,3.52-11.49,1.15,1.87,2.29,3.73,3.42,5.55l.88,1.42c11.28,18.25,22.94,37.11,27.61,58.38,2.88,13.11,2.68,26.91-.61,42.19-2.78,12.92-7.33,25.57-11.73,37.81-.64,1.77-1.28,3.54-1.91,5.32-1.71,4.79-3.53,9.63-5.28,14.32-.66,1.76-1.33,3.54-2,5.34,1.26-4.1,2.47-8.24,3.56-12.38,6.43-24.63,7.46-51.92,2.97-78.9Zm-21.16,102.53c-.73-8.45-1.56-17.05-2.36-25.36-2.16-22.32-4.38-45.39-4.86-68.17-.56-26.79,1.65-50.5,6.57-71.08,1.42,3.51,2.84,7.16,4.27,11,5.34,14.24,9.28,27.02,12.05,39.07,6.36,27.63,7.04,55.39,2.01,82.53-1.83,9.85-4.85,19.64-7.77,29.1-.67,2.16-1.33,4.31-1.98,6.47-2.06,6.83-4.3,14.23-5.88,21.91-.64-8.47-1.33-16.96-2.06-25.46ZM9.38,225.23c.36-.9.76-1.79,1.19-2.66,3.17,10.82,10.33,20.59,16.91,29.56,1.43,1.95,2.85,3.88,4.2,5.79,9.99,14.09,19.7,28.74,29.1,42.89,4.14,6.24,8.28,12.48,12.46,18.7,11,16.37,20.29,35.35,27.62,56.42,6.18,17.75,10.54,35.61,13.04,53.22.58,15.73.99,30.98,1.24,45.91.04,2.39.08,4.77.11,7.16-1.81-8.63-4.18-17.36-7.12-26.16-6.46-19.3-15.37-38.81-27.24-59.65-8.33-14.62-17.82-28.82-27-42.54-2.19-3.28-4.39-6.57-6.57-9.86-10.41-15.7-22.19-34.13-30.3-54.13-3.79-9.35-6.71-19.24-8.66-29.4-.93-4.83-1.82-10.46-1.97-16.32.73-6.24,1.73-12.56,2.99-18.94Zm105.96,294.34c-.41-1.91-.85-3.83-1.41-5.74-3.64-12.57-9.8-24.31-15.8-35.27-9-16.45-19.24-32.53-29.14-48.08-3.18-5-6.37-10-9.51-15.02-12.1-19.29-24.69-40.17-34.75-62.1-11.08-24.16-17.35-46.2-19.16-67.37-.77-9.01-.9-18.26-.4-27.71,1.16,7.27,3,14.74,5.49,22.29,7,21.25,18.65,40.64,28.01,55.16,4.51,6.99,9.24,14,13.82,20.77,6.85,10.14,13.93,20.63,20.4,31.26,12.71,20.9,22.4,40.36,29.62,59.49,6.34,16.81,10.65,33.18,12.88,48.87.06,7.84.05,15.65-.06,23.45Zm41.91-428.06c6.98,9.99,12.25,20.97,15.67,32.66,6.06,20.72,6.57,44.33,1.49,70.18-5.22,26.58-15.9,51.65-25.32,73.77-5.87,13.78-11.81,27.33-18.42,42.35-2.85,6.47-5.8,13.43-8.15,20.52-2.15,6.47-4.09,13.13-5.96,19.56l-.64,2.2c-.14.47-.28.94-.41,1.42-.07-1-.15-2.01-.22-3.01,1.15-7.93,3.36-15.8,5.73-23.32,3-9.55,6.7-19.04,10.27-28.22.92-2.37,1.84-4.73,2.75-7.1,5.44-14.16,10.25-26.95,13.94-40.05,4.81-17.09,6.28-31.18,4.61-44.35-2.9-22.96-14.44-43.37-25.03-60.7-1.49-2.43-3-4.87-4.51-7.3-1.73-2.8-3.47-5.61-5.2-8.45,7.47-20.32,18.24-36.81,32.28-49.36,2.48,2.99,4.91,6.05,7.12,9.22Zm109.59,54.58c.11-1.86.46-3.78.8-5.63.12-.64.23-1.28.34-1.92.41-2.44.87-5.02,1.62-7.54l.11-.38c.39-1.34,1.13-3.92,2.39-4.62.3.17.66.2,1,.06,1.02-.41,1.46-.02,2.35.91.27.28.54.56.85.82,1.02.86,2.2,1.56,3.34,2.22.48.28.95.56,1.4.84,2.43,1.53,5.58,3.62,8.33,6.26,2.08,1.99,4.3,4.4,5.08,7.22.67,2.41-.45,4.16-3.87,6.05-4.65,2.57-11.53,5.22-17.91,3.2-1.94-.62-3.3-1.35-4.27-2.3-1.23-1.2-1.72-2.81-1.57-5.2Zm8.01,181.89c-.41.48-.82.95-1.24,1.41-.63.67-1.25,1.36-1.87,2.03-.95,1.04-1.9,2.07-2.86,3.09-3.9,4.14-7.8,7.17-11.91,9.26-7.3,3.71-16.01,5.74-25.19,5.85-9.42.08-15.99-2.11-20.06-6.74.88-.22,1.73-.56,2.54-1.01.39-.22.55-.69.38-1.1-.17-.41-.62-.64-1.05-.51-1.11.32-2.64.43-4.28.36-.54-.37-1.1-.72-1.66-1.06-.46-.28-.92-.55-1.34-.84-4.11-2.78-7.17-5.03-9.95-7.3-4.26-3.49-7.57-6.63-9.91-10.62-.83-1.42-1.61-2.91-2.37-4.35-1.36-2.61-2.78-5.26-4.57-7.67,2.59,1.23,5.26,2.42,8.1,3.18,2.16.58,4.51.86,7.21.86,1.47,0,3.04-.09,4.74-.25,9.73-.97,15.94-3.97,18.98-9.18.24-.41.13-.94-.27-1.23-.39-.29-.91-.23-1.22.13-3.83,4.35-10.06,6.89-18.54,7.55-4.23.33-7.69.08-10.9-.78-1.26-.34-2.5-.77-3.73-1.21,4.19-.23,8.4-.68,12.44-1.96,6.14-1.95,11.03-6.1,15.39-13.07,8-12.78,11.34-27.77,13.55-40.75.98-5.74,1.76-11.62,2.52-17.29,1.02-7.69,2.08-15.64,3.65-23.36,2.45-12.07,5.97-23.17,10.45-32.98,2.63-5.75,6.3-12.8,11.52-18.49-.12.33-.04.7.25.94.16.13.35.2.55.2.21,0,.42-.08.59-.23.58-.55,1.16-1.14,1.75-1.74,2.69-2.72,5.47-5.51,9.19-5.8-5.83,1.86-10.45,8.08-13.4,12.08-5.32,7.2-9.14,14.71-11.67,22.96-2.55,8.3-4.18,17.58-4.99,28.38-.44,5.88-.42,11.84-.41,17.6,0,3.26.02,6.64-.06,9.96-.22,9.71-1.29,20.82-7.62,29.64-.3.42-.21.99.21,1.29.18.13.38.19.58.19.3,0,.59-.14.78-.4,8.47-11.56,8.36-25.95,8.25-39.87-.03-3.77-.06-7.33.08-10.86.57-14.89,2.6-36.61,13.65-53.33,2.11-3.19,4.67-6.89,7.74-10.11,2.01-2.11,4.35-4.22,6.98-5.2-1.37.92-2.75,2.12-4.13,3.59-1.77,1.89-3.09,4.08-4.36,6.19-.73,1.22-1.49,2.48-2.32,3.65l-.39.68,1.24.84.43-.56c.88-1.13,1.7-2.32,2.5-3.48,1.37-1.99,2.78-4.05,4.5-5.77,1.42-1.42,2.89-2.6,4.39-3.49.23-.14.52-.27.82-.4.11-.05.22-.11.33-.16-6.82,6.59-10,16.05-11.82,22.87-2.6,9.71-3.67,19.69-4.55,29.07-1.28,13.64-1.09,28.11.56,43,1.56,14.07,3.76,26.25,6.73,37.24.67,2.46,1.38,4.83,2.11,7.15-.1.22-.16.47-.15.74.18,4.59.16,10.55-1.61,15.9-1.24,3.75-3.38,7.27-6.36,10.46-5.16,5.52-12.48,9.93-21.76,13.1-4.57,1.56-9.27,2.62-13.94,3.15-.48.05-.82.47-.78.95.04.45.4.78.85.78.02,0,.04,0,.05,0h0c25.5-1.61,39.59-14.29,44.27-25.63,1.47-3.56,2.13-7.34,2.41-10.94,2.12,5.51,4.49,10.59,7.13,15.31,1.17,2.09,2.54,4.39,4.1,6.71-.41.45-.81.91-1.2,1.37Zm-19.7-158.82h0s0,0,0,0c0,0,0,0,0,0Zm122.48,137.67c-.69-.42-1.39-.82-2.07-1.26-2.92-1.86-5.29-4.16-7.81-6.59-1.09-1.05-2.17-2.1-3.31-3.12-.36-.32-.88-.31-1.22.03-.34.34-.36.86-.04,1.23l.73.84c2.85,3.26,5.79,6.63,9.49,9.24,1.68,1.19,3.44,2.29,5.14,3.36l1.4.88c.76.48,1.51.96,2.27,1.44,1.42,1.31,2.97,2.31,4.65,2.97,4.6,1.83,9.63,1.17,14.5.54,2.04-.27,3.98-.52,5.87-.6,0,3.76-2.25,7.52-4.29,10.45-2.36,3.39-5.37,6.69-9.75,10.7-8.61,7.88-17.33,13.69-25.93,17.25-9.75,4.04-20.97,5.19-34.28,3.5-6.83-.87-12.79-2.72-17.72-5.52-.23-.13-.44-.29-.67-.43l-.21-.31c-2.4-3.51-4.67-6.84-6.21-10.76-1.41-3.6-2.44-7.42-3.43-11.12-.25-.94-.5-1.88-.76-2.82-1.22-4.4-2.45-9.1-3.05-13.9-.03-.24-.06-.52-.09-.81-.25-2.39-.64-6-3.06-7.08-.41-.19-.91-.06-1.2.29-.27.33-.28.78-.02,1.13,1.44,1.98,1.74,4.39,2.06,6.94.07.53.13,1.05.21,1.57.59,4.01,1.41,8.03,2.2,11.93l.84,4.18c.8,4.08,1.77,8.94,3.63,13.27-1.02-.81-2.08-1.58-3.23-2.23-1.61-.92-3.34-1.56-5.02-2.19-1.02-.38-2.08-.78-3.08-1.22-2.22-1-4.32-2.45-6.58-4.57-3.42-3.21-6.57-7.04-9.61-11.72-5.2-7.99-9.4-17.28-13.21-29.22-2.99-9.37-5.34-19.79-7.38-32.81-2.35-14.98-3.26-28.57-2.78-41.55.41-10.96,1.5-21.35,3.26-30.87,1.54-8.38,4.11-19.01,10.37-26.96,1.21-1.54,2.44-2.85,3.72-4,.19.06.38.13.57.18-2.09,2.21-3.08,5.1-4.02,7.92-.5,1.5-1.02,3.05-1.7,4.44-.21.43-.04.94.39,1.16.13.07.26.1.39.1.3,0,.59-.16.75-.45.78-1.43,1.37-3.02,1.95-4.56,1.19-3.16,2.33-6.13,4.88-8.03.29.04.57.07.86.1-.54,3.88-1.61,7.7-2.67,11.4l-.17.58c-1.24,4.31-2.05,8.4-2.49,12.51-1.06,10.09-.7,20.18-.2,28.72.98,16.86,4.61,34.26,10.77,51.71,3.29,9.31,7.23,18.49,11.71,27.29.18.34.5.53.85.53.14,0,.29-.03.43-.1.5-.24.72-.83.5-1.34-8.09-18.19-13.71-34.57-17.18-50.08-1.98-8.83-3.28-17.53-3.86-25.87-.53-7.56-1.06-17.5-.4-27.3.36-5.41,1.19-10.43,2.51-15.34l.39-1.43c1-3.63,2.01-7.36,2.18-11.22.81-.02,1.6-.09,2.37-.19-.15.94-.11,1.89-.04,2.83.03.4.05.79.06,1.18.03,1.25-.02,2.54-.06,3.78-.04,1.27-.09,2.58-.06,3.89.01.46.38.83.84.83h0c.46,0,.83-.36.85-.82h0c.04-1.08.12-2.16.21-3.23.1-1.2.2-2.44.22-3.67.02-.63-.01-1.26-.04-1.88-.05-1.13-.08-2.21.15-3.28.52-.11,1.03-.24,1.52-.37-.13,3.77.15,7.6.54,11.79.41,4.34,1.04,8.77,1.89,13.17,1.75,9.06,4.35,18.06,7.71,26.77,6.7,17.32,16.11,33.27,27.98,47.41,6.93,8.26,14.18,15.12,22.16,20.96.17.12.36.18.54.18.28,0,.55-.13.75-.38.33-.42.28-.98-.12-1.31-28.02-23.67-47.8-55.83-55.71-90.55-1.13-4.95-2.02-10.02-2.64-15.09-.39-3.12-.57-6.3-.74-9.38-.08-1.41-.17-2.83-.27-4.24.79-.28,1.54-.58,2.22-.88-.68,3.61.13,7.66.71,10.58,1.31,6.58,3.53,12.89,5.52,18.18,1.85,4.91,3.89,10.13,6.32,15.02,3.17,6.4,7.27,12.77,12.54,19.46,6.34,8.05,13.54,15.54,20.5,22.78,3.67,3.82,7.47,7.77,11.09,11.75,6.19,6.81,10.85,12.6,14.67,18.25,4.76,7.04,7.96,14.56,11.35,22.53l.47,1.1c1.76,4.13,3.56,8.14,5.74,11.86Zm29.4-44.03c-.74,2.6-1.5,5.28-2.39,7.82-1.87,5.33-7.44,18.01-18.81,20.68-6.11,1.44-11.03-1.54-14.23-4.52-1.98-4.55-4.1-9.12-6.77-13.37-3.54-5.65-7.83-11.32-13.49-17.85-4.84-5.58-10.03-10.98-15.06-16.21-5.24-5.45-10.66-11.09-15.67-16.92-5.52-6.42-9.93-12.42-13.5-18.34-3.42-5.68-6.01-11.67-7.89-16.26-3.01-7.33-4.99-13.02-6.43-18.42-.7-2.62-1.53-6.07-1.77-9.53-.14-1.95-.15-4.13.64-5.99,3.72,2.52,6.72,5.87,8.06,9.03.14.32.43.5.76.5.1,0,.2-.02.3-.05.43-.16.66-.62.53-1.04-.73-2.41-2.04-4.62-4.11-6.95l-.35-.4c-.72-.83-1.61-1.84-2.64-2.55,2.48,0,5.14,1.42,7,2.56,1.45.88,2.51,1.65,3.46,2.5l.11.1c.79.71,1.6,1.44,2.59,1.98l.68.31.71-1.25-.56-.39c-.65-.46-1.17-1.07-1.72-1.72-.5-.58-1.01-1.19-1.65-1.71-1.05-.86-2.24-1.65-3.54-2.35-1.82-.99-3.65-1.51-5.41-1.84.06-.07.12-.13.17-.2,8.25,2.44,15.15,4.78,21.43,9.28,6.69,4.8,12.88,10.45,18.4,16.81,5.3,6.11,10.06,12.98,14.16,20.43,1.17,2.13,2.31,4.28,3.45,6.43,3.02,5.71,6.14,11.61,9.91,17.05,1.69,2.43,3.46,4.87,5.17,7.22,1.09,1.5,2.18,3,3.26,4.51,3,4.2,5.66,7.62,8.86,10.62l.59.49.99-1.1-.52-.5c-3.23-3.09-5.92-6.74-8.35-10.22-1.29-1.84-2.58-3.68-3.88-5.52-1.22-1.73-2.45-3.47-3.66-5.21-4.19-6-7.68-12.55-11.04-18.88-.9-1.69-1.79-3.37-2.7-5.05-8.17-15.06-18.83-27.58-31.69-37.23-3.99-2.99-7.8-5.22-11.66-6.83-2.71-1.12-5.52-2.02-8.32-2.85.62.03,1.25.04,1.86.05h.41c3.51.07,6.15.62,8.58,1.82,1.79.88,3.51,2.02,5.16,3.12l1.27.84c2.15,1.41,4.63,3.06,6.92,4.92,8.06,6.54,14.67,14.62,21.85,23.74,3.27,4.14,6.51,8.44,9.65,12.59,9.84,13.01,20,26.47,32.47,37.53,4.51,4,8.56,6.65,12.75,8.34,3.66,1.48,7.8,2.35,12.58,2.64-3.49,5.26-5.23,11.39-6.91,17.34Z"/>
      <path class="cls-1" d="m221.26,297.41l.39-.58c2.41-3.53,3.72-7.54,4.98-11.41.49-1.5,1-3.06,1.57-4.56.12-.31.07-.65-.14-.9-.21-.26-.55-.39-.9-.33-.34.06-.61.28-.74.61-.62,1.64-1.17,3.34-1.71,4.98-1.19,3.65-2.42,7.42-4.44,10.75l-.33.72.59.38.72.35Z"/>
    </g>
  </g>
</svg>