<?xml version="1.0" encoding="UTF-8"?>
<svg id="Layer_2" data-name="Layer 2" xmlns="http://www.w3.org/2000/svg" viewBox="0 0 355.67 791.45">
  <defs>
    <style>
      .cls-1 {
        fill: #231f20;
      }
    </style>
  </defs>
  <g id="Layer_1-2" data-name="Layer 1">
    <path class="cls-1" d="m353.8,14.6c-4.83-9.75-17.3-12.98-24.3-14.04-16.73-2.52-34.7,3.49-54.94,18.36-7.98,5.87-16.05,12.89-23.97,20.87-5.48,5.52-10.14,10.47-14.29,15.17-3.1,2.86-5.96,5.85-8.55,8.93-.76.8-1.43,1.63-2.02,2.5l-.39.5.12.09c-.1.42,0,.82.18,1.16-28.12,36.27-50.58,76.64-66.82,120.13-.65,1.74-1.28,3.5-1.91,5.25,1.12-10.13,2.14-20.48,2.33-30.76.29-15.49-.54-33.3-8.91-48.01-3.95-6.94-9.56-12.55-16.22-16.22-8.35-4.61-18.43-6.65-26.95-5.36-10.56,1.55-22.42,9-23.48,21.69-.47,5.55,1.56,11.28,6.2,17.54,2.94,3.96,6.26,7.74,9.47,11.39,1.38,1.57,2.76,3.13,4.11,4.71,9.42,11.03,18.46,21.93,25.47,33.88,6.99,11.9,12.23,24.09,15.59,36.22.67,2.41,1.27,4.89,1.84,7.4-9.51,32.67-16.16,66.86-19.86,102.12,0-.04-.01-.07-.02-.1-1.42-8.48-3.53-17.12-6.28-25.67-4.09-12.71-10.15-29.02-20.74-42.51-15.03-19.16-42.88-39.02-71.94-32-11.81,2.86-20.61,9.31-24.77,18.18-3.85,8.2-3.63,18.24.61,27.55,8.83,19.4,28.68,26.1,47.87,32.58,5.16,1.74,10.04,3.39,14.71,5.28,7.48,3.02,13.17,6.06,17.91,9.56,5.83,4.31,11.07,9.72,15.15,15.64,5.22,7.57,9.19,16.02,13.04,24.2,2.45,5.21,4.98,10.59,7.82,15.72,1.08,1.95,2.14,3.75,3.21,5.45-.77,33.28.86,67.1,4.92,101.04.34,2.81.69,5.61,1.06,8.42-4.27-8.98-8.83-17.9-13.98-26.46-5.64-9.38-11.28-17.06-17.25-23.47-6.97-7.49-13.85-12.72-21.04-15.99-8.17-3.72-16.93-4.79-25.3-3.11-6.63,1.33-18.44,5.28-22.98,16.77-3.3,8.34-1.94,18.35,3.63,26.78,7.23,10.93,21.05,15.9,31.14,19.53,5.93,2.13,12.05,4.02,17.96,5.85l5.85,1.81c6.01,1.85,12.22,3.76,17.91,6.58,10.94,5.42,21.29,14.34,29.22,25.17,5.03,28.31,11.68,56.1,19.89,83.13-4.28-6.18-8.61-11.98-13.46-17.44-7.86-8.86-17.3-16.54-28.05-22.83-10.91-6.38-21.66-12.46-33.32-16.8-13.96-5.19-25.66-6.22-35.78-3.15-5.75,1.74-11.25,5.12-15.9,9.78-5.5,5.51-8.93,11.32-10.19,17.28-2.07,9.77,2.72,20.14,13.12,28.44,4.33,3.46,9.48,6.53,15.29,9.14,6.74,3.03,12.48,4.8,18.05,5.59,9.64,1.35,19.29.07,28.64-1.17,5.17-.69,10.51-1.4,15.78-1.65,7.49-.36,13.89.39,19.56,2.3,4.96,1.66,10.13,4.16,15.83,7.64,8.14,4.97,15.46,10.76,21.88,17.24,7.53,20.71,15.72,40.27,23,57.2,2.24,5.21,4.62,10.61,7.15,16.09-12.06-13.85-22.63-24.01-33.66-32.44-19.54-14.92-36.27-20.74-51.17-17.81-9.45,1.86-18.57,7.74-23.82,15.33-5.57,8.05-5.93,18.63-.97,28.3,4.55,8.88,12.65,16.68,22.21,21.39,10.73,5.29,23.03,4.82,35.74,3.81,1.22-.1,2.45-.2,3.68-.3,4.77-.4,9.71-.82,14.57-.84,5.82-.03,11.86.7,17.96,2.17,9.85,2.37,19.18,6.59,27.34,12.35,3.27,3.16,6.65,6.31,10.17,9.25,4.04,6.36,8.38,12.58,13.07,18.55l.56.71c3.4,4.33,6.89,8.77,11.01,12.45.11.31.26.62.49.91.78.98,1.75,1.43,2.71,1.69l.13.1.02-.06c.29.07.58.13.86.18.35.06.7.07,1.03.03.99-.12,1.87-.68,2.44-1.59.81-1.29.79-2.95-.07-4.14-2.34-3.25-5.02-6.31-7.61-9.28-2.09-2.39-4.24-4.85-6.2-7.39-3.99-5.18-7.94-10.82-11.72-16.79-1.16-1.83-2.3-3.7-3.44-5.6l.15-.11-.29-.27c-1.11-2.98-2.15-5.81-2.73-8.87-.54-2.86-.78-5.87-.73-8.95.09-5.74,1.12-11.78,3.13-18.46,3.62-12.01,8.18-21.38,13.93-28.66,2.82-3.56,6.06-6.98,9.5-10.59,10-10.52,20.33-21.41,20.21-36.39-.07-8.81-4.7-15.58-12.08-17.65-9.16-2.57-18.38,2.05-24.51,6.38-16.47,11.63-22.62,30.46-24.87,44.2-2.05,12.5-2.26,26-.62,42.77-7.97-17.34-15.54-35.31-22.6-53.67.4-.39.57-.92.42-1.44l.14-.11-.37-.43c-.43-.84-.89-1.67-1.37-2.5-.09-.48-.18-.97-.27-1.45-.61-8.23.5-17.55,3.32-28.21,3.19-12.05,8.01-23.57,14.31-34.24,2.47-4.18,5.26-8.43,7.96-12.54,10.08-15.36,20.51-31.25,19.57-50.34-.51-10.42-4.32-19.7-10.44-25.48-3.13-2.95-6.93-4.61-10.68-4.67-5.2-.08-9.61,2.74-12.39,5.13-4.84,4.16-8.56,9.62-11.26,13.91-3,4.78-5.59,9.89-7.67,15.19-3.86,9.8-6.37,20.95-7.48,33.13-1.6,17.58-.34,35.05,1.87,53.69-9.18-28.47-16.61-57.78-22.22-87.61,2.93-13.62,7.07-25.4,12.67-35.92,6.41-12.03,14.66-22.88,23.85-31.37,4.82-4.46,10.19-8.45,15.37-12.31,4.46-3.32,9.07-6.76,13.35-10.49,10.82-9.44,17.29-19.28,19.25-29.26,1.98-10.11-.9-20.53-7.53-27.19-7.02-7.05-17.84-8.86-28.25-4.7-9.68,3.86-18.5,11.57-26.21,22.91-5.94,8.74-11.1,19.17-16.23,32.82-4.59,12.22-8.28,23.27-11.28,33.79-1.08,3.79-1.99,7.34-2.75,10.71-3.65-31.44-5.24-62.81-4.73-93.75,3.88-9.3,9.65-18.66,17.23-27.92,4.63-5.65,9.58-10.73,14.73-15.1,4.4-3.74,9.24-7.11,13.92-10.36l1.63-1.14c18.13-12.64,40.7-28.38,48.17-53.04,2.96-9.76,3.33-17.83,1.13-24.66-1.26-3.93-3.36-6.96-6.23-9.01-3.28-2.34-7.46-3.51-12.41-3.47-12.44.11-22.78,7.11-29.27,12.96-7.81,7.05-14.85,16.1-22.15,28.46-5.74,9.72-10.92,20.2-15.39,31.17-3.89,9.51-6.9,18.47-9.14,27.06,3.24-39,9.76-76.28,19.46-111.27.04-.09.08-.19.11-.28,4.16-5.73,10.37-10.47,16.31-14.53,9.11-6.22,18.68-11.25,28.45-14.95,4.62-1.75,9.44-3.29,14.09-4.78,8.15-2.61,16.58-5.31,24.36-9.26,6.39-3.25,11.84-7.16,16.18-11.62,2.77-2.84,5.41-6.17,8.31-10.47,7.07-10.49,10.62-19.27,11.2-27.65.32-4.68-.66-8.85-2.82-12.06-2.42-3.57-6.58-6.25-12.03-7.75-9.05-2.48-19.53-.49-31.16,5.91-9.08,5-17.97,12.02-27.16,21.47-8.16,8.4-15.86,18.3-23.53,30.29-3.67,5.73-7.05,11.58-10.16,17.51,14.76-40.81,34.22-78.48,58-112.21,2.74-3.89,5.63-7.7,8.17-10.97,5.24-5.31,13.7-7.6,22.2-9.24,4.98-.96,10.07-1.62,14.56-2.21,1.49-.19,2.98-.41,4.47-.63,3.56-.52,7.25-1.06,10.89-1.24,6.14-.3,12.39.15,18.44.58,7.45.53,15.15,1.08,22.76.26,6.49-.72,11.55-2.24,15.89-4.85,3.93-2.37,7.49-5.66,10.29-9.52,4.59-6.34,8.01-16.11,3.86-24.5ZM124.57,349.69c-1.9-6.36-4.09-12.29-5.98-17.15-6.01-15.51-15.2-29.28-26.56-39.82-5.04-4.68-12.84-10.99-22.25-11.88-.46-.04-.89.15-1.15.52-.27.38-.32.9-.13,1.31.18.39.54.64.98.68,5.84.55,11.8,3.58,18.76,9.55,5.66,4.86,11.06,10.98,16.51,18.72,4.51,6.4,7.93,12.51,10.48,18.69,2.96,7.19,6.31,15.77,8.71,24.85.07.28.14.56.22.84-.43,6.97-.76,13.96-.97,20.98-3.16-5.81-5.87-11.87-8.5-17.8-2.09-4.69-4.25-9.54-6.61-14.2-3.82-7.55-7.49-13.52-11.53-18.77-3.71-4.82-8.94-9.24-15.52-13.16-8.93-5.3-18.9-8.58-28.54-11.74-2.87-.94-5.83-1.91-8.72-2.93-10.6-3.71-22.59-8.46-30.63-17.86-6.41-7.49-9.57-16.56-8.66-24.88.97-8.83,6.52-16.35,15.25-20.64,16.05-7.89,44.14-7.36,70.47,20.11,4.65,4.85,8.76,10.11,12.23,15.64,4.16,6.63,7.35,13.87,10.17,20.7,6.68,16.19,10.94,32.68,12.69,49.04-.26,3.05-.5,6.12-.72,9.18Zm80.08,325.39c2.02-20.16,8.61-35.47,19.58-45.51,5.49-5.02,13.96-10.93,23.1-10.6,3.62.13,6.91,1.36,9.28,3.47,3.24,2.89,4.31,6.96,4.63,9.87.9,8.12-2.06,16.23-9.04,24.77-3.2,3.92-6.8,7.62-10.28,11.2-3.01,3.09-6.12,6.28-8.97,9.62-5.76,6.74-10.15,15.03-14.25,26.89-4.02,11.64-5.33,21.76-3.98,30.8-1.27-2.35-2.55-4.79-3.83-7.3-.56-2.09-.98-4.11-1.28-5.94-1.35-8.17-1.19-17.1.47-26.54.83-4.71,2.03-9.39,3.56-13.92.2-.58-.11-1.19-.7-1.39-.56-.19-1.12.08-1.31.64-2.97,8.67-6.75,23.58-4.71,39.17-.61-1.26-1.22-2.56-1.84-3.86-1.07-13.22-1.82-27.45-.43-41.38Zm-5.74,47.46c3.76,7.83,7.86,15.79,12.38,23.66-2.04-1.63-4.18-3.16-6.4-4.57-4.2-4.04-8.55-8.21-13.15-11.98-8.79-7.18-19.68-13.23-32.38-17.97-7.22-2.69-13.18-4.29-18.77-5.01-.45-.05-.87.12-1.13.46-.28.36-.35.87-.17,1.29.17.4.52.66.96.72,9.92,1.28,20.85,5.06,33.4,11.56,5.58,2.89,10.72,6.19,15.29,9.79,2.59,2.05,5.07,4.22,7.58,6.52-11.49-5.44-24.53-8.23-37.69-7.76-3.98.14-8.02.49-11.94.83-7.87.68-16.01,1.37-23.97.44-10.32-1.21-20.03-6.4-27.36-14.63-7.29-8.18-10.44-17.47-8.65-25.48,2.22-9.89,11.77-16.81,19.28-19.74,13.37-5.22,29.81-1.32,48.88,11.57,13.05,8.82,25.64,20.2,40.8,36.89,1.03,1.13,2.04,2.27,3.06,3.41Zm-32.43-150.25c1.05-26.12,7.37-46.46,19.33-62.2,7.96-10.47,15.33-13.66,21.92-9.5,8.89,5.61,10.96,18.5,11.38,22.31,2.09,18.83-8.48,34.98-18.71,50.61-2.28,3.48-4.43,6.77-6.47,10.11-6.03,9.9-10.8,20.77-14.18,32.29-2.41,8.23-3.89,15.77-4.44,22.75-1.78-7.38-3.58-15-4.27-22.68-1.13-12.71.92-26.97,5.93-41.26,2.66-7.57,6.01-14.46,9.95-20.47.24-.36.27-.81.07-1.2-.2-.39-.6-.66-1.02-.69-.4-.03-.76.16-.99.51-7.13,10.87-12.11,23.71-14.79,38.16-1.38,7.46-1.96,14.2-1.77,20.61.25,8.26,1.98,16.37,3.58,23.33.28,1.21.56,2.42.85,3.63-1.23-3.41-2.44-6.85-3.62-10.29-.63-7.33-1.28-14.89-1.79-22.34-.75-10.83-1.43-22.35-.98-33.68Zm-9.89,43.72c.26.81.5,1.62.76,2.42-4-5.78-8.23-10.42-12.9-14.11-4.69-3.7-10.29-6.93-17.13-9.88-6.62-2.85-13.68-5.29-20.99-7.24-.66-.17-1.31.19-1.53.87-.24.71.08,1.45.74,1.71,3.25,1.29,6.59,2.48,9.82,3.62,8.8,3.12,17.89,6.35,25.74,11.93,8.51,6.06,14.44,14.58,19.68,23.47.42,1.25.85,2.49,1.28,3.74-1.68-1.52-3.42-3.05-5.32-4.61-10.58-8.69-21.12-14.34-31.34-16.8-11.14-2.68-22.56-1.12-33.61.39-2.89.4-5.88.8-8.8,1.13-6.35.7-13.83,1.24-21.19-.08-5.17-.93-10.74-2.84-16.55-5.67-12.37-6.04-20.04-13.34-22.78-21.7-3.77-11.47,4.89-23.41,14.53-29.65,10.9-7.05,24.23-5.55,33.49-3.04,11.61,3.14,22.33,8.75,33.2,14.7,9.93,5.44,20.38,11.64,29.56,20.17,8.64,8.02,15.6,17.44,21.84,26.43.5.72.99,1.45,1.49,2.18Zm-17.85-139.82c2.98-12.07,7.15-23.94,10.82-34.42,4.62-13.17,8.83-22.88,13.64-31.49,6.76-12.08,14.12-20.6,22.52-26.06,10.15-6.6,20.72-7.56,28.27-2.56,7.15,4.74,11.18,14.05,10.29,23.74-.9,9.7-6.49,19.35-16.62,28.68-4.73,4.35-9.96,8.28-15.02,12.07-4.2,3.15-8.55,6.41-12.6,9.91-17.76,15.33-31.16,37.52-37.84,62.59-.17-2.02-.37-4.03-.57-6.02-.83-8.37-1.7-17.02.07-25.51,1.36-6.52,4.31-12.79,7.02-18.07,3.24-6.31,6.96-12.4,11.05-18.1,5.05-7.03,9.59-12.27,14.29-16.47.42-.38.45-1.02.07-1.45-.37-.41-.95-.44-1.36-.08-8.78,7.87-16.82,18.44-24.58,32.31-3.8,6.79-6.33,12.45-7.97,17.83-1.72,5.64-2.14,11.46-2.12,16.62-.02-.13-.04-.25-.06-.38-.59-3.99-1.13-7.97-1.64-11.96.57-3.45,1.33-7.12,2.34-11.17Zm-8.3,25.42c.31,2.11.63,4.22.96,6.33-2.28-3.78-4.76-7.54-7.48-11.26-3.52-4.81-7.48-9.82-12.53-13.88-3.72-2.99-7.79-5.58-11.73-8.08-1.11-.71-2.22-1.41-3.33-2.13-5.66-3.67-11.07-7.39-15.05-12.59-.42-.55-1.16-.65-1.72-.22-.56.43-.68,1.17-.26,1.73,5.02,6.74,12.2,11.22,19.14,15.55,2.79,1.75,5.68,3.55,8.36,5.46,4.64,3.32,8.74,7.34,12.89,12.66,4.55,5.83,8.42,11.65,11.49,17.3.43.79.89,1.67,1.37,2.57.03.16.05.33.08.49-3.99-5.08-8.5-9.62-13.45-13.47-10.64-8.27-23.49-12.12-35.92-15.85l-1.76-.53c-7.58-2.28-14.41-4.38-21.12-6.96-6.56-2.53-12.39-4.91-17.27-8.54-7.3-5.43-11.71-13.97-11.5-22.28.17-6.62,3.19-12.22,8.73-16.17,7.88-5.63,20.36-7.36,30.34-4.21,16.72,5.27,28.66,20.51,38.15,34.73,4.73,7.08,9.27,14.9,14.32,24.6,1.95,3.75,3.83,7.61,5.65,11.34.55,1.12,1.11,2.27,1.67,3.41Zm11.2-177.6c4.24-11.24,9.34-22.41,15.15-33.2,6.42-11.94,12.59-21.09,19.41-28.81,8.53-9.66,16.87-15.34,25.47-17.37,5.66-1.33,15.87-2.36,20.63,5.72,3,5.08,3.3,12.52.89,22.1-5.97,23.79-28.29,39.66-44.59,51.25-.99.7-1.98,1.4-2.97,2.1-4.01,2.83-8.15,5.75-12.04,8.86-4.84,3.87-9.65,8.54-14.29,13.87-7.85,9.02-14.12,18.56-18.72,28.45.05-2.01.11-4.03.18-6.04,1.29-7.2,2.98-14.37,5.9-21.12,5.87-13.6,15.85-25.76,23.87-35.54,1.13-1.38,2.27-2.75,3.41-4.12,3.99-4.79,8.11-9.74,11.68-14.99.3-.44.21-1.01-.2-1.33-.21-.17-.47-.23-.72-.2-.23.03-.45.14-.62.33-4.78,5.39-9.4,11.08-13.87,16.57l-.3.37c-4.43,5.44-9.11,11.32-13.39,17.37-4.87,6.9-8.38,12.78-11.05,18.49-1.1,2.35-2.09,4.85-2.99,7.57,2.15-9.7,5.21-19.86,9.17-30.33Zm12.24-125.57c-.03-1.11-.08-2.23-.16-3.35-.36-4.83-1.55-9.59-2.7-14.19-.29-1.15-.58-2.3-.85-3.45-1.44-6.01-2.86-11.38-5.66-16.16-.84-1.43-1.82-2.84-2.76-4.21-2.41-3.49-4.91-7.09-5.36-11.32-.06-.55-.37-.98-.85-1.19-.51-.23-1.14-.16-1.6.18-.43.32-.65.82-.59,1.37.52,4.79,3.23,8.73,5.84,12.54l.48.7c1.41,2.07,2.88,4.3,3.93,6.79.98,2.32,1.86,4.94,2.79,8.23,1.87,6.64,3.39,12.17,4.48,17.9.99,5.2,1.15,10.84.47,16.78-.05.4-.12.8-.17,1.2-1.23,3.8-2.43,7.61-3.58,11.45-2.53-10.83-5.6-20.42-9.33-29.14-5.19-12.12-12.02-23.62-20.88-35.16-4.28-5.57-8.96-11.07-13.08-15.92-1-1.17-2.02-2.34-3.05-3.51-3.21-3.66-6.53-7.45-9.16-11.55-3.72-5.8-4.25-11.76-1.52-17.23,2-4.01,5.8-7.34,10.69-9.37,2.29-.95,4.75-1.58,7.32-1.9,6.01-.74,12.68.24,19.39,2.91,6.77,2.7,12.56,7.18,16.73,12.98,9.4,13.03,10.93,30.5,11.21,44.27.22,10.84-.62,21.8-1.44,32.4-.2,2.61-.41,5.28-.6,7.95Zm40.92-49.13c7.48-8.5,15.54-15.81,23.98-21.71,11.17-7.82,20.97-11.59,29.98-11.53,5.42.04,10.39,1.5,13.99,4.12,3.28,2.39,5.27,6.13,5.6,10.52.73,9.76-5,19.91-9.37,26.69-6.34,9.82-13.78,16.88-22.76,21.58-7.78,4.07-16.29,6.75-24.52,9.34-4.21,1.32-8.56,2.69-12.77,4.24-9.51,3.48-18.96,8.31-28.08,14.34-5.39,3.57-11.17,7.72-16.03,12.75.36-1.01.75-2.02,1.16-3,2.4-5.74,6.41-11.61,12.28-17.96,4.12-4.47,8.74-8.03,13.63-11.81,1.03-.79,2.06-1.59,3.09-2.4,1.38-1.08,2.75-2.17,4.13-3.26,4.35-3.45,8.85-7.03,13.47-10.28,8.08-5.69,15.03-9.3,21.87-11.35.39-.12.66-.4.75-.77.09-.39-.05-.84-.36-1.13-.26-.24-.6-.35-.94-.31-.07,0-.13.02-.2.04-13.29,3.99-24.34,12.74-35.03,21.21l-2.96,2.34c-1.55,1.22-3.11,2.4-4.68,3.59-4.12,3.12-8.39,6.35-12.16,10.08-4.12,4.08-7.69,8.39-10.63,12.85,9.46-21.64,21.95-41.55,36.59-58.19Zm153.86-114.75c-2.27,3.75-5.42,7.07-9.09,9.59-3.75,2.58-8.21,4.18-14.04,5.06-8.17,1.24-16.58.63-24.71.06-4.97-.35-10.11-.71-15.17-.66-2.6.03-5.18.26-7.73.57-2.03.25-4.03.55-6.01.85l-5.28.78c-3.59.52-7.29,1.05-10.92,1.7-5.78,1.04-11.69,2.25-17.03,4.39,4.99-4.75,10.38-8.85,16.14-12.26,9.31-5.52,20.33-9.7,32.77-12.44,4.11-.9,8.34-1.55,12.43-2.17,2.62-.4,5.33-.81,7.99-1.29.61-.11,1.01-.63.95-1.23-.06-.61-.58-1.06-1.2-1.05-6.67.11-13.31,1.35-18.92,2.54-6.16,1.31-12.03,2.96-17.47,4.92-7.07,2.55-13.66,5.69-19.72,9.39,5.71-5.65,11.63-11.12,17.85-16.18,12.36-10.05,31.22-23.44,52.2-23.76,4.59-.07,9.1.55,13.4,1.84,5.86,1.76,9.91,3.91,12.74,6.75,6.65,6.69,4.6,16.35.81,22.58Z"/>
  </g>
</svg>