<?xml version="1.0" encoding="UTF-8"?>
<svg id="Layer_2" data-name="Layer 2" xmlns="http://www.w3.org/2000/svg" viewBox="0 0 337.5 677.53">
  <defs>
    <style>
      .cls-1 {
        fill: #231f20;
        stroke: #231f20;
        stroke-miterlimit: 10;
        stroke-width: .5px;
      }
    </style>
  </defs>
  <g id="Layer_1-2" data-name="Layer 1">
    <path class="cls-1" d="m336.21,81.48c-2-3.06-5.82-3.31-9.01-2.27-3.66,1.19-6.82,3.67-9.81,6.02-3.21,2.53-6.2,5.33-8.94,8.36-5.71,6.32-10.34,13.59-13.47,21.52-20.14,17.77-36.46,39.26-49.32,62.72.09-.92.16-1.84.21-2.76.2-3.34.25-6.71.03-10.04-.14-2.2-.51-4.43-1.49-6.43-2.15-4.37-7.37-5.13-10.78-1.67-4.51,4.59-2.14,11.62-.84,17.02,1.58,6.61,3.19,13.21,4.8,19.81-1.27,2.71-2.5,5.44-3.68,8.19-7.35,17.08-13.11,34.74-17.61,52.74-.12-1.28-.24-2.55-.36-3.83-.42-4.71-.56-9.58-1.65-14.19-1.61-6.81-7.75-14.42-15.6-11.51-8.17,3.03-9.29,12.73-6.95,20.01,2.29,7.13,6.88,14.15,13.41,18.05,2.68,1.6,5.55,2.49,8.48,2.84-3.08,13.99-5.44,28.14-7.23,42.35-1.24,9.82-2.17,19.67-2.87,29.53-.3-.73-.61-1.46-.94-2.19-2.95-6.41-7.33-13.07-13.02-17.38-2.59-1.96-5.96-3.61-9.29-2.88-3.19.7-5.22,3.52-5.65,6.64-.52,3.75,1.23,7.24,3.21,10.3,2.04,3.16,4.37,6.15,6.92,8.91,5.1,5.51,11.15,10.13,17.8,13.61-.97,21.85-.92,43.75-.52,65.61.04,1.92.08,3.83.12,5.75-3.16-5.29-7.64-9.88-12.81-13.32-2.78-1.86-6.36-4.06-9.78-2.62-2.7,1.13-4.07,4.22-3.9,7.02.23,3.77,2.71,7.02,4.84,9.97,1.96,2.71,4.06,5.33,6.37,7.75,4.57,4.78,9.9,8.58,15.85,11.35,1.12,32.3,3.17,64.57,6.05,96.75,1.44,16.07,3.08,32.12,4.97,48.14-.02-.04-.05-.08-.07-.11-10.58-16.66-20.34-33.83-29.24-51.44-2.55-5.04-5.02-10.13-7.43-15.24,3.76-9.97,7.49-19.99,9.89-30.39,1.25-5.42,2.14-10.93,2.48-16.48.31-4.96.54-10.49-.78-15.33-.93-3.4-3.2-7.15-7.17-7.13-4.07.02-6.37,3.94-7.5,7.35-1.52,4.59-2.23,9.59-2.89,14.36-.71,5.13-1.15,10.3-1.29,15.48-.16,5.97.07,11.95.76,17.87-10.04-22.84-18.68-46.28-25.92-70.16,5.59-10.85,10.43-22.08,14.38-33.64,2.1-6.15,3.96-12.38,5.56-18.67.8-3.15,1.54-6.31,2.22-9.49.59-2.77,1.28-5.58,1.47-8.42.26-4.04-.76-9.18-5.33-10.29-5.05-1.23-8.88,3.85-10.85,7.77-5.32,10.61-8.55,22.31-10.35,34.01-1.14,7.42-1.77,14.95-1.79,22.48-9.99-36.47-16.74-73.83-20.12-111.49-.19-2.14-.37-4.27-.54-6.41,10.88-12.55,21.69-26,25.84-42.35.89-3.5,1.82-7.61.2-11.04-1.64-3.47-5.58-4.23-8.78-2.45-3.81,2.12-6.18,6.47-8.32,10.09-2.37,4-4.43,8.19-6.17,12.51-1.66,4.13-3.02,8.37-4.07,12.69-.94-19.98-.94-40,0-59.97,15.27-17,30.68-34.84,38.35-56.7,1.75-4.99,4.11-11.56-.01-16.04-1.65-1.8-4.11-2.56-6.48-1.93-2.58.69-4.59,2.75-6.25,4.74-7.62,9.13-13.96,19.4-18.82,30.25-1.87,4.17-3.52,8.43-4.95,12.75.15-1.62.3-3.25.45-4.87,2.1-21.5,5.3-42.92,9.61-64.1,14.07-12.39,27.8-26.03,36.19-43,1.67-3.37,4.92-8.64,2.74-12.41-2.21-3.81-7.22-2.8-10.11-.51-3.69,2.94-6.77,7.06-9.66,10.76-3.04,3.9-5.88,7.96-8.46,12.18-2.02,3.29-3.88,6.67-5.59,10.12,2.41-9.86,5.06-19.66,7.96-29.38,1.32-4.42,2.7-8.81,4.12-13.2,15.49-15.02,27.35-33.59,36.18-53.2.9-1.99,1.82-4.21,1.4-6.44-.41-2.19-2.13-3.72-4.29-4.1-4.78-.84-8.86,3.78-11.9,6.81-6.96,6.92-12.62,15.16-16.65,24.1-4.47,9.91-6.94,20.59-7.14,31.46-6.06,17.23-11.28,34.73-15.67,52.44-1.25-8.73-4.9-17.13-10.35-24.07-2.08-2.64-4.47-5.22-7.2-7.2-2.53-1.83-6.35-2.01-7.29,1.6-.85,3.27,1.07,6.99,2.28,9.91,1.54,3.76,3.31,7.41,5.24,10.99,4.3,7.97,9.34,15.51,13.92,23.32-3.57,16.19-6.44,32.54-8.6,49.01-1.21,9.24-2.2,18.5-2.98,27.78-2.79-9.41-7.7-18.18-14.37-25.47-2.71-2.96-5.78-6.04-9.21-8.15-1.61-1-3.62-1.65-5.43-.77-1.42.69-2.19,2.07-2.32,3.62-.33,3.88,2.45,7.87,4.19,11.12,2.34,4.36,4.89,8.6,7.56,12.76,5.67,8.84,11.91,17.29,18.3,25.62-1.2,22.73-1.12,45.53.19,68.27-3.52-8.43-9.03-16.01-16.14-21.86-2.36-1.94-5.89-5.15-9.05-2.96-2.2,1.52-2.04,4.7-1.37,6.98.96,3.27,3.07,6.39,4.85,9.27,1.78,2.89,3.73,5.66,5.84,8.31,4.82,6.06,10.58,11.24,16.94,15.64,1.22,14.94,2.97,29.83,5.25,44.65-18.96-21.17-35.37-44.59-48.93-69.56-.13-.24-.26-.48-.39-.72,1.92-10.12,3.9-20.23,5.6-30.39.91-5.44,1.77-10.89,2.58-16.34.41-2.73.8-5.45,1.19-8.18.35-2.51.84-5.07.84-7.61,0-3.91-1.74-8.34-5.87-9.49-3.82-1.06-6.82,1.77-8.28,5.01-1.91,4.24-2.6,9.21-3.35,13.77-.84,5.02-1.4,10.08-1.66,15.16-.38,7.33-.12,14.67.75,21.94-7.08-14.78-13.18-30.03-18.22-45.63,9.19-18.33,18.47-37.57,18.26-58.54-.06-5.89-.92-11.76-2.68-17.38-.37-1.17-1.75-1.21-2.42-.32-12.53,16.6-18.53,38.4-18.25,59.07-.65-2.41-1.28-4.83-1.88-7.25-4.1-16.54-6.87-33.39-8.54-50.34.12-.11.22-.25.3-.44,6.62-15.34,14.65-30.86,15.5-47.88.17-3.37-.78-7.03-4.39-8.1-3.09-.91-6.37.51-8.38,2.87-2.53,2.97-3.68,7.08-4.75,10.75-1.23,4.21-2.07,8.52-2.59,12.88-.57,4.8-.7,9.66-.37,14.48.31,4.55.86,9.25,2.21,13.63-.1.18-.16.4-.15.67,1.17,20.4,4.59,40.69,9.81,60.49-4.45-7.31-10.16-13.7-18.33-16.82-5.24-2-13.6-1.83-16.02,4.32-2.95,7.51,5.89,12.95,11.27,15.97,9.05,5.06,18.65,9.02,28,13.46,1.55,4.85,3.19,9.67,4.94,14.44,4.03,11.01,8.59,21.83,13.65,32.41-1-1.03-2.03-2.03-3.09-2.99-4.75-4.32-10.63-9.4-17.18-10.48-2.9-.48-6.01,0-8.11,2.23-2.16,2.28-2.58,5.7-1.72,8.63,1.95,6.72,9.97,10.45,15.86,13,7.06,3.07,14.81,4.92,22.48,5.77,6.54,12.1,13.75,23.83,21.58,35.12,9.69,13.96,20.34,27.24,31.9,39.7,3.11,18.84,7.06,37.53,11.85,56.02.68,2.63,1.38,5.25,2.09,7.87-1.54-2.16-3.17-4.26-4.89-6.29-2.9-3.4-6.06-6.58-9.45-9.49-3.2-2.75-6.75-5.44-10.92-6.49-3.66-.91-7.48-.32-10.5,2.01-2.7,2.08-4.17,5.31-3.41,8.71.89,4.01,4.45,7.08,7.44,9.61,3.42,2.88,7.15,5.35,11.06,7.51,8.21,4.54,17.06,7.75,25.61,11.58,6.43,21.21,13.97,42.08,22.6,62.5-6.04-5.22-13.36-8.93-21.27-10.34-4.53-.81-9.51-.85-13.63,1.5-3.48,1.98-6.18,5.81-6.18,9.9,0,4.26,3.02,7.46,6.47,9.53,3.96,2.38,8.53,3.95,12.9,5.37,10.41,3.38,21.23,5.26,32,7.09.21.45.42.89.63,1.34,12.34,26.05,26.53,51.21,42.49,75.21,2.46,19.45,5.3,38.84,8.61,58.16.78,4.56,1.66,9.02,2.81,13.5.65,2.55,5.04,2.11,4.73-.64-1.05-9.21-2.81-18.31-4.26-27.46-1.5-9.47-2.89-18.96-4.19-28.46-.22-1.58-.43-3.17-.64-4.75,4.05,5.82,8.21,11.56,12.48,17.22,2.96,3.93,5.87,7.36,9.54,10.64,1.42,1.26,3.56-.31,2.64-2.04-4.72-8.81-11.32-16.48-17.09-24.64-3.11-4.39-6.15-8.83-9.14-13.31-1.8-14.46-3.4-28.94-4.82-43.43-3.71-37.64-6.26-75.41-7.56-113.21,13.27-11.7,26.73-23.69,33.83-40.31,1.77-4.14,2.97-8.78.9-13.04-1.89-3.89-6.16-5.51-10.22-4.2-4.31,1.38-6.97,5.18-9.21,8.88-2.66,4.39-5.1,8.91-7.34,13.53-3.28,6.78-6.08,13.78-8.39,20.93-.66-24.5-.93-49.09.05-73.6,7.57-6.14,15.22-12.15,22.11-19.06,6.89-6.91,13.64-14.85,17.71-23.82,1.81-4,2.62-8.86-.37-12.53-3.05-3.76-7.94-2.92-11.6-.59-3.92,2.5-7.4,5.99-10.56,9.36-3.26,3.47-6.22,7.22-8.87,11.18-2.75,4.13-5.14,8.48-7.14,13.01.26-3.46.55-6.92.87-10.38,1.84-19.72,4.76-39.39,9.03-58.75,3.56-.31,7.12-1.25,10.48-2.52,7.39-2.79,14.37-6.81,20.34-11.99,5.64-4.9,10.47-11.06,13.2-18.06,1.17-3.01,1.79-6.98-.57-9.61-2.4-2.67-6.29-2.28-9.35-1.12-4.08,1.54-7.96,3.99-11.51,6.49-3.5,2.46-6.79,5.22-9.82,8.26-3.02,3.03-5.76,6.33-8.18,9.85,2.74-10.12,5.89-20.13,9.5-29.99,2.73-7.47,5.74-14.83,9.04-22.06,14.57-4.75,27.66-13.76,37.28-25.69,1.23-1.53,2.41-3.09,3.52-4.7,1.08-1.56,2.32-3.21,2.59-5.14.49-3.53-2.78-5.01-5.77-4.36-1.63.35-3.14,1.2-4.6,1.98-1.86.99-3.69,2.04-5.48,3.16-3.38,2.1-6.61,4.43-9.7,6.94-2.35,1.9-4.59,3.92-6.73,6.05,9.73-17.16,21.31-33.23,34.89-47.69,2.46-2.62,4.98-5.18,7.55-7.68.23-.05.46-.17.64-.34.21.06.44.08.7.03,7.86-1.73,15.35-5.04,21.94-9.65,3.3-2.32,6.4-4.94,9.19-7.85,2.63-2.74,5.35-5.81,7.14-9.19,1.54-2.9,2.66-6.73.71-9.72Zm-155.75,340.85c-1.53-2.45-3.18-6.16-.86-8.69,2.38-2.61,6.43.31,8.64,1.78,4.83,3.21,9.03,7.44,12.01,12.43.79,1.32,1.47,2.68,2.06,4.08.1,3.82.21,7.63.33,11.45-9.25-4.67-16.69-12.24-22.18-21.04Zm22.26-70.42c-4.51-2.48-8.72-5.49-12.51-9-2.36-2.18-4.56-4.54-6.56-7.05-2.08-2.6-4.23-5.47-5.53-8.55-1.17-2.78-1.47-6.93,1.56-8.69,2.84-1.65,6.43.39,8.68,2.17,4.96,3.94,8.81,9.7,11.56,15.34,1.31,2.69,2.38,5.49,3.2,8.36-.15,2.47-.28,4.95-.4,7.42ZM165.82,13.88c2.88-3.39,6.08-6.91,9.7-9.52,1.62-1.17,4.96-2.6,6.3-.19,1.14,2.04-.68,5.08-1.53,6.9-4.15,8.93-8.9,17.59-14.32,25.82-5.55,8.42-11.76,16.41-18.79,23.64,1-17.01,7.6-33.66,18.64-46.66Zm-34.25,107.72c5.53-14.96,13.66-28.89,24.2-40.9,2.03-2.31,6.09-8.11,9.8-6.01,2.04,1.16.96,3.96.3,5.63-.81,2.05-1.76,4.05-2.76,6-4.05,7.92-9.33,15.16-15.21,21.82-5.32,6.03-11.11,11.62-17.09,17.01.25-1.18.5-2.37.76-3.55Zm-24-30.68c-.46-1.26-.98-2.59-.94-3.95.06-2.39,2.01-1.99,3.54-.86,2.41,1.78,4.55,4.07,6.43,6.39,3.91,4.84,6.74,10.59,8.44,16.56,1.44,5.02,2.09,10.28,1.74,15.49-.09.39-.18.79-.27,1.18-6.82-11.31-14.38-22.32-18.94-34.8Zm11.16,121.62c4.04-17.46,11.41-34.09,21.91-48.67,1.62-2.25,3.3-4.47,5.09-6.59,1.53-1.82,3.75-4.35,6.41-3.92,2.84.46,3.84,3.78,3.72,6.24-.14,2.86-1.24,5.73-2.17,8.41-3.59,10.28-9.1,19.79-15.39,28.64-6.15,8.65-13.07,16.7-20.1,24.65.16-2.92.33-5.84.53-8.75Zm-31.66-31.22c-.77-1.52-1.64-3.11-1.73-4.85-.12-2.38,1.88-2.46,3.58-1.5,3.27,1.86,6.2,4.95,8.73,7.69,5.04,5.45,9.08,11.85,11.88,18.72,1.79,4.4,3.09,9,3.84,13.68-.14,1.99-.27,3.97-.38,5.96-9.58-12.58-18.79-25.57-25.92-39.7Zm4.5,98.68c-1.26-2.24-3.02-4.8-2.88-7.49.21-4.23,5.32.29,6.75,1.5,4.7,3.99,8.68,8.77,11.78,14.09,3.06,5.25,5.24,11.01,6.39,16.97-9.1-6.69-16.48-15.18-22.04-25.08ZM26.41,133.58c-.38-3.85-.47-7.73-.27-11.59.38-7.56,1.86-15.11,4.49-22.21,1.09-2.95,2.83-6.55,6.36-6.92,4.22-.44,4.16,4.11,3.89,7.08-.67,7.32-2.55,14.46-5.04,21.36-2.43,6.71-5.39,13.21-8.27,19.75-.47-2.47-.9-4.95-1.15-7.47Zm-6.42,76.8c-3.61-1.81-7.28-3.66-10.63-5.92-2.52-1.7-5.65-4.16-6.11-7.38-.97-6.78,8.51-6.72,12.64-5.2,5.92,2.18,10.68,6.65,14.33,11.68,3.53,4.85,6.23,10.23,8.7,15.69-6.32-2.95-12.71-5.74-18.94-8.87Zm21.79,5.61c-2.66-18.42.67-38.14,8.46-54.85,2-4.28,4.34-8.39,7.03-12.26,4.99,19.2-1,39.14-9.03,56.72-1.88,4.11-3.88,8.17-5.91,12.21-.19-.61-.38-1.21-.56-1.82Zm8.44,63.37c-2.99-1.02-5.89-2.28-8.68-3.77-2.85-1.52-5.84-3.18-8.03-5.6-1.92-2.13-3.18-5.38-1.88-8.16,1.21-2.59,4.17-3.03,6.69-2.49,2.79.59,5.23,2,7.57,3.58,2.69,1.82,5.26,3.8,7.68,5.97,3.91,3.5,7.43,7.42,10.5,11.67.38.72.76,1.45,1.14,2.17-5.06-.83-10.07-1.69-14.98-3.37Zm15.48-4.24c-3.06-17.22-2.71-35.08,1.2-52.13.66-2.89,1.44-8.01,4.81-9.07,1.8-.56,3.53.62,4.51,2.07,1.32,1.96,1.27,4.49,1.06,6.75-.44,4.87-1.31,9.74-2.03,14.58-.72,4.83-1.47,9.65-2.26,14.46-1.53,9.32-3.09,18.64-4.92,27.9-.8-1.52-1.59-3.04-2.37-4.57Zm53.29,26.89c-.16-2.14-.3-4.29-.44-6.44.81-5.76,2.18-11.43,4.08-16.94,2.73-7.91,6.49-15.85,11.5-22.59,1.69-2.27,6.24-6.58,8.58-2.6,1.76,3,.33,7.42-.52,10.47-2.15,7.75-5.93,14.92-10.4,21.58-3.89,5.79-8.28,11.21-12.8,16.51Zm-18.25,115.16c-2.43-2.6-4.27-6.24-1.67-9.4,2.24-2.72,6-3.52,9.3-2.69,3.88.97,7.16,3.55,10.12,6.12,2.97,2.58,5.76,5.36,8.35,8.32,3.83,4.38,7.19,9.14,10.06,14.19.43,1.48.86,2.97,1.3,4.45-13.2-5.59-27.53-10.34-37.47-20.99Zm42.43,18.06c-1-20.06.83-40.33,8.2-59.18.98-2.51,2.05-5.01,3.27-7.42,1.05-2.08,2.44-4.3,4.45-5.57,1.87-1.19,4.19-.98,5.4,1.01,1.03,1.7,1.06,3.92.94,5.84-.16,2.58-.82,5.15-1.36,7.67-.61,2.89-1.28,5.77-1.99,8.63-1.46,5.82-3.13,11.6-5.01,17.3-3.72,11.27-8.25,22.27-13.57,32.87-.11-.39-.23-.77-.34-1.16Zm5.01,84.31c-4.44-1.16-8.84-2.53-13.11-4.22-3.41-1.35-7.35-2.86-9.73-5.79-2.64-3.25-1.5-7.52,1.38-10.18,3.26-3.02,8.15-3.27,12.33-2.66,7.41,1.09,14.57,4.49,20.36,9.2,1.94,1.58,3.74,3.31,5.39,5.17,1.91,4.39,3.88,8.75,5.9,13.1-7.55-1.3-15.09-2.67-22.51-4.62Zm26.59.14c-3.05-16.24-2.76-33.4.4-49.5.69-3.52,1.18-8.3,3.88-10.96,3.3-3.24,6.1,1.13,6.88,4.1,1.17,4.45.94,9.51.69,14.06-.29,5.21-1.09,10.37-2.22,15.46-2.15,9.72-5.4,19.15-8.88,28.46-.25-.54-.5-1.08-.75-1.63Zm41.38-102.42c1.87-4.25,3.92-8.43,6.14-12.51,2.09-3.83,4.16-8.14,7.17-11.35,2.78-2.96,7.98-4.94,10.77-.86,2.68,3.91.73,8.94-1.04,12.78-3.49,7.58-8.3,14.45-13.86,20.64-5.28,5.88-11.11,11.23-17.02,16.47-.03-1.03-.06-2.06-.1-3.09,2.13-7.53,4.77-14.91,7.92-22.07Zm16.03-109.19c2.79-2.56,7.68-7.57,11.88-5.38,4.58,2.39,2.76,8.65.97,12.17-4.11,8.07-9.94,15.21-16.28,21.62-6.43,6.5-13.43,12.46-20.58,18.18.15-3.44.33-6.88.54-10.32,4.67-13.8,12.69-26.39,23.47-36.27Zm-17.94-44.56s-.08,0-.13-.01c-7.06-.81-12.59-5.7-16.16-11.58-3.55-5.84-6.96-14.59-2.45-20.81,2.18-3.01,5.91-4.65,9.47-3.08,3.77,1.66,5.76,5.59,6.65,9.4,1.07,4.58,1.19,9.42,1.61,14.08.35,3.91.65,7.82,1.07,11.73-.02.09-.04.18-.06.27Zm31.41-33.57c3.16-2.04,16.03-10.16,16.02-1.35,0,3.23-1.8,6.45-3.38,9.16-1.66,2.85-3.64,5.49-5.89,7.91-4.62,4.99-10.2,8.99-16.22,12.13-5,2.61-10.63,5.01-16.36,5.68.55-2.44,1.13-4.87,1.73-7.3,5.66-10.58,13.99-19.73,24.1-26.23Zm-2.16-54.85c-.17,2.92-.5,5.84-.97,8.73-1.05,2.03-2.07,4.07-3.06,6.12-.87-3.58-1.74-7.16-2.62-10.74-.69-2.81-1.39-5.62-2.08-8.42-.7-2.84-1.6-5.9-.97-8.84.46-2.16,2.11-4.42,4.44-4.75,2.18-.3,3.66,1.45,4.37,3.3.74,1.91.89,3.96.97,5.98.12,2.87.09,5.75-.08,8.61Zm32.24-14.96c1.31-.73,2.64-1.55,4.07-2.03,1.72-.57,4.17-.51,3.38,2.01-.5,1.61-1.75,3.09-2.72,4.44-1.02,1.42-2.08,2.81-3.2,4.16-4.45,5.37-9.62,10.16-15.33,14.16-5.62,3.93-11.73,7.13-18.17,9.48,1.35-2.87,2.75-5.72,4.2-8.54,7.66-9.56,17.04-17.71,27.77-23.68Zm57.05-69.43c-3.59,5.95-9.09,11.13-14.73,15.11-5.97,4.21-12.63,7.27-19.7,9.07-.05-.14-.12-.27-.21-.39,5.59-12.19,14.25-22.94,25.44-30.43,2.4-1.6,6.38-3.94,9.27-2.23,3.24,1.91,1.39,6.43-.08,8.87Z"/>
  </g>
</svg>